<svg width="500" height="500" viewBox="0 0 500 500" fill="none" xmlns="http://www.w3.org/2000/svg">
<rect width="500" height="500" fill="#153969"/>
<g clip-path="url(#clip0)">
<path d="M368.879 344.254C359.856 367.736 311.19 396.59 248.446 413.691C174.625 433.815 109.273 430.052 102.478 405.286C95.6834 380.523 162.368 413.232 236.192 393.108C276.503 382.118 310.603 357.649 334.366 341.732C354.119 328.495 366.728 321.167 369.812 332.411C370.832 336.127 370.473 340.107 368.879 344.254Z" fill="white"/>
<path opacity="0.1" d="M187.426 410.103C205.957 410.103 220.98 408.606 220.98 406.759C220.98 404.912 205.957 403.414 187.426 403.414C168.895 403.414 153.873 404.912 153.873 406.759C153.873 408.606 168.895 410.103 187.426 410.103Z" fill="black"/>
<path opacity="0.1" d="M124.849 407.093C133.281 407.093 140.116 405.596 140.116 403.749C140.116 401.902 133.281 400.404 124.849 400.404C116.417 400.404 109.582 401.902 109.582 403.749C109.582 405.596 116.417 407.093 124.849 407.093Z" fill="black"/>
<path d="M263.461 306.952C262.119 306.952 260.768 306.909 259.439 306.825L259.482 306.157C260.798 306.241 262.136 306.283 263.457 306.283L263.497 306.283V306.952L263.465 306.952L263.461 306.952ZM267.556 306.819L267.512 306.152C268.843 306.065 270.189 305.934 271.51 305.762L271.597 306.425C270.261 306.599 268.902 306.732 267.556 306.819ZM255.398 306.436C254.059 306.263 252.711 306.044 251.39 305.784L251.52 305.127C252.826 305.385 254.16 305.601 255.484 305.772L255.398 306.436ZM275.604 305.768L275.474 305.112C276.781 304.853 278.097 304.548 279.385 304.204L279.559 304.85C278.257 305.198 276.926 305.506 275.604 305.768ZM247.434 304.871C246.134 304.526 244.826 304.132 243.546 303.701L243.761 303.067C245.027 303.494 246.321 303.883 247.607 304.225L247.434 304.871ZM283.445 303.675L283.229 303.041C284.488 302.615 285.75 302.141 286.981 301.631L287.239 302.249C285.994 302.764 284.717 303.244 283.445 303.675ZM239.739 302.275C238.494 301.761 237.248 301.199 236.035 300.603L236.332 300.003C237.531 300.592 238.764 301.149 239.995 301.657L239.739 302.275ZM290.932 300.577L290.634 299.977C291.83 299.388 293.02 298.753 294.171 298.088L294.508 298.667C293.343 299.339 292.14 299.982 290.932 300.577V300.577ZM232.45 298.692C231.282 298.02 230.122 297.299 229 296.552L229.373 295.996C230.482 296.735 231.631 297.448 232.786 298.113L232.45 298.692ZM297.951 296.527L297.578 295.971C298.684 295.233 299.781 294.448 300.84 293.637L301.249 294.168C300.179 294.987 299.069 295.781 297.951 296.527V296.527ZM225.698 294.192C224.629 293.374 223.572 292.51 222.557 291.623L223 291.121C224.003 291.997 225.049 292.852 226.106 293.662L225.698 294.192ZM304.386 291.598L303.943 291.096C304.945 290.219 305.931 289.298 306.875 288.358L307.349 288.831C306.396 289.781 305.399 290.712 304.386 291.598V291.598ZM219.592 288.857C218.638 287.907 217.703 286.914 216.813 285.905L217.317 285.464C218.197 286.462 219.122 287.444 220.066 288.384L219.592 288.857ZM310.127 285.877L309.622 285.435C310.502 284.436 311.361 283.394 312.173 282.34L312.705 282.748C311.884 283.813 311.016 284.866 310.127 285.877V285.877ZM214.234 282.78C213.412 281.715 212.615 280.61 211.864 279.495L212.422 279.122C213.164 280.226 213.953 281.319 214.766 282.372L214.234 282.78ZM315.075 279.458L314.517 279.085C315.26 277.98 315.975 276.835 316.643 275.684L317.224 276.02C316.549 277.183 315.826 278.34 315.075 279.458V279.458ZM209.715 276.063C209.039 274.901 208.394 273.702 207.797 272.5L208.398 272.203C208.989 273.392 209.627 274.578 210.296 275.728L209.715 276.063ZM319.143 272.448L318.541 272.151C319.132 270.959 319.691 269.731 320.203 268.501L320.823 268.757C320.306 270.001 319.74 271.243 319.143 272.448V272.448ZM206.117 268.82C205.6 267.58 205.118 266.308 204.684 265.039L205.32 264.824C205.748 266.079 206.225 267.337 206.737 268.563L206.117 268.82ZM322.256 264.963L321.621 264.748C322.049 263.489 322.44 262.199 322.785 260.916L323.433 261.089C323.085 262.386 322.689 263.69 322.256 264.963V264.963ZM203.502 261.167C203.153 259.869 202.842 258.543 202.579 257.225L203.237 257.094C203.497 258.398 203.805 259.71 204.15 260.993L203.502 261.167ZM324.351 257.146L323.692 257.016C323.951 255.712 324.17 254.383 324.342 253.065L325.007 253.151C324.833 254.484 324.612 255.828 324.351 257.146ZM201.917 253.232C201.742 251.903 201.608 250.548 201.519 249.204L202.188 249.16C202.276 250.49 202.409 251.83 202.583 253.145L201.917 253.232ZM325.401 249.123L324.731 249.08C324.816 247.758 324.86 246.412 324.86 245.078L324.86 244.919H325.531L325.531 245.076C325.531 246.426 325.487 247.787 325.401 249.123V249.123ZM202.054 245.158H201.383L201.383 245.076C201.383 243.758 201.425 242.424 201.509 241.114L202.178 241.156C202.096 242.453 202.054 243.772 202.054 245.078L202.054 245.158ZM324.72 240.918C324.631 239.591 324.497 238.251 324.321 236.934L324.986 236.846C325.164 238.177 325.3 239.532 325.39 240.873L324.72 240.918ZM202.562 237.17L201.897 237.085C202.069 235.752 202.288 234.408 202.548 233.089L203.206 233.218C202.949 234.522 202.733 235.852 202.562 237.17ZM323.661 232.985C323.4 231.682 323.091 230.371 322.743 229.087L323.391 228.913C323.742 230.211 324.055 231.536 324.319 232.853L323.661 232.985ZM204.109 229.317L203.461 229.145C203.807 227.846 204.202 226.542 204.633 225.27L205.268 225.483C204.842 226.742 204.452 228.032 204.109 229.317ZM321.569 225.258C321.138 224.002 320.66 222.745 320.147 221.521L320.766 221.263C321.284 222.501 321.768 223.772 322.204 225.042L321.569 225.258ZM206.68 221.729L206.06 221.474C206.575 220.231 207.139 218.988 207.735 217.781L208.337 218.076C207.747 219.271 207.19 220.5 206.68 221.729ZM318.481 217.883C317.89 216.697 317.25 215.512 316.578 214.36L317.158 214.024C317.838 215.188 318.484 216.387 319.082 217.585L318.481 217.883ZM210.231 214.54L209.65 214.206C210.324 213.042 211.045 211.884 211.795 210.765L212.353 211.137C211.611 212.244 210.897 213.389 210.231 214.54V214.54ZM314.448 210.969C313.704 209.865 312.914 208.773 312.1 207.722L312.632 207.313C313.454 208.375 314.253 209.48 315.005 210.595L314.448 210.969ZM214.693 207.879L214.16 207.472C214.981 206.405 215.847 205.351 216.735 204.34L217.24 204.781C216.361 205.781 215.504 206.824 214.693 207.879V207.879ZM309.544 204.633C308.664 203.637 307.738 202.656 306.792 201.717L307.266 201.243C308.222 202.192 309.158 203.184 310.048 204.191L309.544 204.633ZM219.983 201.855L219.508 201.382C220.461 200.431 221.456 199.498 222.468 198.611L222.911 199.113C221.91 199.991 220.925 200.913 219.983 201.855V201.855ZM303.855 198.984C302.849 198.108 301.803 197.254 300.745 196.447L301.153 195.916C302.223 196.732 303.28 197.595 304.296 198.48L303.855 198.984ZM226.011 196.567L225.602 196.038C226.669 195.218 227.777 194.423 228.896 193.674L229.27 194.229C228.164 194.97 227.067 195.757 226.011 196.567V196.567ZM297.475 194.117C296.365 193.379 295.216 192.668 294.059 192.004L294.394 191.424C295.563 192.096 296.725 192.814 297.847 193.56L297.475 194.117ZM232.674 192.108L232.337 191.529C233.501 190.856 234.704 190.212 235.911 189.615L236.209 190.214C235.015 190.804 233.826 191.442 232.674 192.108ZM290.511 190.118C289.312 189.531 288.079 188.976 286.845 188.469L287.101 187.851C288.348 188.363 289.595 188.924 290.807 189.518L290.511 190.118ZM239.86 188.556L239.602 187.938C240.845 187.422 242.121 186.94 243.394 186.507L243.611 187.14C242.351 187.569 241.09 188.045 239.86 188.556ZM283.077 187.064C281.814 186.639 280.52 186.252 279.231 185.911L279.403 185.264C280.706 185.609 282.014 186.001 283.292 186.43L283.077 187.064ZM247.452 185.973L247.278 185.327C248.579 184.977 249.909 184.667 251.232 184.404L251.363 185.059C250.055 185.32 248.74 185.627 247.452 185.973V185.973ZM275.316 185.014C274.009 184.759 272.676 184.544 271.351 184.374L271.437 183.711C272.775 183.882 274.124 184.099 275.445 184.357L275.316 185.014ZM255.325 184.405L255.238 183.742C256.571 183.566 257.93 183.431 259.278 183.342L259.323 184.009C257.989 184.098 256.644 184.231 255.325 184.405V184.405ZM267.353 183.994C266.065 183.914 264.754 183.873 263.457 183.873L263.338 183.873V183.204L263.456 183.204C264.768 183.204 266.093 183.245 267.395 183.326L267.353 183.994Z" fill="#E6E6E6"/>
<path d="M263.483 288.223L263.482 287.554C264.793 287.553 266.116 287.493 267.413 287.373L267.475 288.039C266.157 288.16 264.814 288.222 263.483 288.223ZM259.491 288.044C258.167 287.924 256.834 287.742 255.532 287.501L255.654 286.844C256.936 287.08 258.248 287.26 259.552 287.378L259.491 288.044ZM271.434 287.492L271.311 286.835C272.596 286.596 273.885 286.294 275.141 285.938L275.325 286.581C274.049 286.943 272.74 287.25 271.434 287.492ZM251.639 286.595C250.362 286.235 249.087 285.81 247.848 285.332L248.09 284.708C249.31 285.178 250.565 285.597 251.822 285.952L251.639 286.595ZM279.114 285.314L278.872 284.69C280.088 284.22 281.299 283.686 282.469 283.103L282.769 283.701C281.58 284.293 280.35 284.836 279.114 285.314V285.314ZM244.19 283.723C243.002 283.133 241.827 282.481 240.698 281.784L241.051 281.215C242.163 281.901 243.32 282.544 244.49 283.125L244.19 283.723ZM286.258 281.759L285.904 281.19C287.013 280.504 288.105 279.757 289.148 278.97L289.553 279.503C288.493 280.303 287.385 281.061 286.258 281.759V281.759ZM237.4 279.532C236.341 278.735 235.306 277.879 234.324 276.987L234.776 276.493C235.743 277.371 236.762 278.213 237.804 278.998L237.4 279.532ZM292.626 276.955L292.174 276.461C293.139 275.583 294.075 274.65 294.956 273.686L295.452 274.137C294.557 275.115 293.606 276.064 292.626 276.955V276.955ZM231.495 274.172C230.598 273.194 229.738 272.164 228.937 271.11L229.472 270.706C230.26 271.743 231.107 272.758 231.99 273.721L231.495 274.172ZM298.007 271.072L297.472 270.669C298.261 269.629 299.01 268.54 299.698 267.434L300.268 267.786C299.57 268.91 298.809 270.016 298.007 271.072V271.072ZM226.672 267.827C225.971 266.703 225.315 265.533 224.721 264.35L225.321 264.051C225.906 265.216 226.552 266.367 227.242 267.474L226.672 267.827ZM302.216 264.306L301.616 264.007C302.198 262.843 302.734 261.635 303.206 260.419L303.832 260.661C303.352 261.896 302.808 263.123 302.216 264.306V264.306ZM223.101 260.708C222.62 259.475 222.192 258.204 221.828 256.931L222.473 256.748C222.832 258.001 223.254 259.252 223.727 260.465L223.101 260.708ZM305.102 256.882L304.456 256.7C304.813 255.446 305.114 254.161 305.353 252.881L306.013 253.003C305.77 254.304 305.464 255.609 305.102 256.882ZM220.911 253.053C220.668 251.755 220.483 250.428 220.36 249.108L221.028 249.046C221.149 250.345 221.332 251.652 221.571 252.93L220.911 253.053ZM306.56 249.057L305.892 248.996C306.01 247.703 306.071 246.385 306.071 245.078L306.07 244.979H306.741L306.742 245.075C306.742 246.405 306.681 247.744 306.56 249.057ZM220.845 245.128H220.174V245.078C220.174 243.769 220.233 242.447 220.351 241.149L221.019 241.209C220.903 242.487 220.845 243.789 220.845 245.078V245.128ZM305.882 241.061C305.76 239.761 305.575 238.454 305.335 237.178L305.994 237.054C306.239 238.351 306.426 239.678 306.55 240.999L305.882 241.061ZM221.553 237.324L220.893 237.202C221.134 235.901 221.439 234.596 221.8 233.322L222.446 233.504C222.09 234.758 221.79 236.043 221.553 237.324ZM304.429 233.361C304.069 232.109 303.645 230.858 303.171 229.645L303.796 229.402C304.278 230.634 304.708 231.904 305.074 233.177L304.429 233.361ZM223.691 229.783L223.065 229.542C223.543 228.309 224.085 227.082 224.676 225.895L225.277 226.193C224.695 227.361 224.161 228.569 223.691 229.783ZM301.572 226.062C300.987 224.899 300.339 223.748 299.647 222.641L300.216 222.287C300.92 223.412 301.578 224.581 302.171 225.762L301.572 226.062ZM227.191 222.765L226.62 222.413C227.318 221.288 228.078 220.182 228.878 219.124L229.414 219.527C228.626 220.568 227.878 221.657 227.191 222.765ZM297.414 219.411C296.623 218.374 295.774 217.361 294.891 216.399L295.386 215.948C296.283 216.924 297.145 217.953 297.948 219.006L297.414 219.411ZM231.925 216.507L231.429 216.057C232.322 215.078 233.272 214.128 234.252 213.235L234.704 213.729C233.74 214.608 232.805 215.543 231.925 216.507ZM292.103 213.631C291.135 212.754 290.115 211.912 289.071 211.129L289.475 210.595C290.535 211.39 291.571 212.245 292.554 213.136L292.103 213.631ZM237.728 211.217L237.322 210.684C238.38 209.884 239.487 209.124 240.614 208.424L240.969 208.992C239.86 209.681 238.769 210.429 237.728 211.217V211.217ZM285.822 208.915C284.71 208.231 283.552 207.59 282.381 207.01L282.679 206.411C283.87 207 285.045 207.651 286.174 208.346L285.822 208.915ZM244.402 207.075L244.101 206.477C245.288 205.885 246.517 205.341 247.754 204.861L247.998 205.484C246.78 205.957 245.57 206.492 244.402 207.075V207.075ZM278.779 205.43C277.558 204.962 276.302 204.545 275.045 204.192L275.227 203.548C276.505 203.907 277.781 204.33 279.02 204.806L278.779 205.43ZM251.726 204.232L251.542 203.589C252.819 203.225 254.128 202.918 255.432 202.674L255.556 203.331C254.272 203.571 252.983 203.874 251.726 204.232V204.232ZM271.213 203.304C269.929 203.069 268.618 202.89 267.314 202.774L267.374 202.108C268.698 202.226 270.03 202.407 271.334 202.646L271.213 203.304ZM259.453 202.788L259.39 202.122C260.708 201.999 262.051 201.936 263.382 201.934L263.383 202.603C262.073 202.605 260.75 202.667 259.453 202.788V202.788Z" fill="#E6E6E6"/>
<path d="M269.333 332.865C267.4 332.236 264.99 331.128 263.474 329.914L264.62 332.717C225.585 333.256 190.522 307.671 179.255 270.293C168.028 233.043 183.023 192.507 215.727 171.465L216.331 174.432C216.918 172.584 218.309 170.33 219.569 168.74C217.574 169.127 214.927 169.326 213.01 168.999L215.378 170.893C199.539 181.147 187.373 196.146 180.633 213.731C173.701 231.934 172.998 251.91 178.633 270.553C184.269 289.195 195.926 305.459 211.793 316.814C226.868 327.556 244.925 333.352 263.455 333.398C263.852 333.398 264.249 333.391 264.647 333.386L263.728 336.271C265.142 334.94 267.457 333.644 269.333 332.865Z" fill="white"/>
<path d="M348.283 219.674C342.973 202.054 332.275 186.527 317.683 175.261C303.092 163.994 285.335 157.551 266.892 156.83L267.962 154C266.48 155.254 264.099 156.425 262.185 157.104C264.081 157.834 266.429 159.068 267.877 160.361L266.882 157.499C285.116 158.215 302.675 164.568 317.125 175.677C331.575 186.785 342.201 202.1 347.528 219.497C352.856 236.894 352.622 255.513 346.859 272.772C341.096 290.03 330.089 305.075 315.364 315.819L314.586 312.89C314.109 314.77 312.853 317.1 311.689 318.762C313.658 318.259 316.289 317.905 318.221 318.12L315.748 316.368C330.534 305.581 341.602 290.49 347.429 273.174C353.255 255.857 353.554 237.167 348.283 219.674V219.674Z" fill="white"/>
<path opacity="0.1" d="M368.879 344.254C366.567 344.358 364.191 344.411 361.769 344.411C351.293 344.411 341.717 343.401 334.366 341.732C354.119 328.495 366.728 321.167 369.812 332.411C370.832 336.127 370.473 340.107 368.879 344.254Z" fill="black"/>
<path d="M175.927 169.157C166.627 169.157 159.856 175.451 157.574 184.438L154.744 197.92H156.758L161.12 186.883L160.201 197.92H162.462L164.139 192.234L163.786 197.92H190.982V184.163C190.982 182.193 190.593 180.241 189.836 178.421C189.08 176.6 187.971 174.946 186.573 173.552C185.175 172.159 183.515 171.053 181.688 170.299C179.862 169.545 177.904 169.157 175.927 169.157V169.157Z" fill="#2F2E41"/>
<path d="M158.435 269.848L164.81 300.559L199.706 301.071L190.982 268.825L158.435 269.848Z" fill="white"/>
<path opacity="0.1" d="M158.435 269.848L164.81 300.559L199.706 301.071L190.982 268.825L158.435 269.848Z" fill="black"/>
<path d="M163.636 245.914C163.636 245.914 149.879 264.978 150.55 272.671C151.221 280.363 159.945 405.784 159.945 405.784L180.412 406.787L174.373 316.484L179.406 292.069L191.821 405.784L216.986 406.453L194.505 258.958L190.143 245.914H163.636Z" fill="#2F2E41"/>
<path d="M168.333 187.719C168.333 187.719 172.695 195.746 166.991 201.097C161.287 206.449 158.603 220.83 158.603 220.83L190.814 218.489L188.13 200.428C188.13 200.428 181.084 196.08 182.761 188.388L168.333 187.719Z" fill="#A0616A"/>
<path opacity="0.1" d="M168.333 187.719C168.333 187.719 172.695 195.746 166.991 201.097C161.287 206.449 158.603 220.83 158.603 220.83L190.814 218.489L188.13 200.428C188.13 200.428 181.084 196.08 182.761 188.388L168.333 187.719Z" fill="black"/>
<path d="M162.965 209.124C162.965 209.124 164.978 215.144 173.702 214.476C179.013 214.034 184.11 212.186 188.465 209.124V248.256L161.623 247.252V223.506L162.965 209.124Z" fill="#6C63FF"/>
<path d="M169.22 197.906L166.656 199.759L151.221 207.118L156.59 234.877L160.28 240.897V248.256L151.221 260.965C149.185 269.972 148.061 279.159 147.866 288.39C147.53 303.775 151.557 299.762 153.57 299.427C155.583 299.093 159.945 298.089 159.945 298.089L152.899 265.313L164.642 248.256L166.656 241.566C166.656 241.566 165.985 225.847 163.3 219.492C163.3 219.492 168.429 202.742 169.22 197.906Z" fill="white"/>
<path d="M183.328 194.743L189.472 200.763L201.551 204.442L195.847 235.881L192.492 242.57L193.163 249.259C193.163 249.259 205.736 262.701 207.591 289.394C208.565 303.412 206.552 302.743 206.552 302.743L181.755 302.437L177.728 246.918L185.446 205.111L183.328 194.743Z" fill="white"/>
<path d="M208.597 275.012C208.597 275.012 211.953 289.394 205.242 291.066C198.531 292.738 200.88 275.012 200.88 275.012H208.597Z" fill="#A0616A"/>
<path d="M149.413 260.085C149.413 260.085 162.333 267.306 159.05 273.375C155.767 279.444 144.212 265.768 144.212 265.768L149.413 260.085Z" fill="#A0616A"/>
<path d="M196.518 205.111L201.551 204.442C201.551 204.442 204.571 208.455 204.907 211.465C205.242 214.476 210.611 265.313 210.611 265.313L215.979 275.012C215.979 275.012 215.644 276.684 212.959 276.684H210.275L209.269 280.698C209.269 280.698 207.255 273.005 199.538 277.019L196.518 276.015L198.531 272.336C198.531 272.336 196.518 254.61 196.518 246.249C196.518 237.887 195.847 228.857 195.847 228.857L196.518 205.111Z" fill="white"/>
<path d="M172.211 408.071C174.846 408.071 176.982 407.273 176.982 406.288C176.982 405.303 174.846 404.504 172.211 404.504C169.576 404.504 167.439 405.303 167.439 406.288C167.439 407.273 169.576 408.071 172.211 408.071Z" fill="#2F2E41"/>
<path d="M204.416 408.071C207.051 408.071 209.187 407.273 209.187 406.288C209.187 405.303 207.051 404.504 204.416 404.504C201.781 404.504 199.645 405.303 199.645 406.288C199.645 407.273 201.781 408.071 204.416 408.071Z" fill="#2F2E41"/>
<path d="M154.912 206.783L151.221 207.118L142.833 239.56C142.833 239.56 139.477 260.965 140.148 261.968C140.819 262.972 140.148 264.644 139.477 265.313C138.806 265.982 142.162 275.346 145.517 275.012C148.872 274.677 150.214 273.674 150.214 273.674C150.214 273.674 147.195 264.978 154.912 261.968L156.925 255.279L154.912 244.242L157.596 228.857L154.912 206.783Z" fill="white"/>
<path d="M187.123 186.214C187.401 186.214 187.627 185.465 187.627 184.542C187.627 183.618 187.401 182.87 187.123 182.87C186.845 182.87 186.62 183.618 186.62 184.542C186.62 185.465 186.845 186.214 187.123 186.214Z" fill="#A0616A"/>
<path d="M164.307 186.214C164.585 186.214 164.81 185.465 164.81 184.542C164.81 183.618 164.585 182.87 164.307 182.87C164.029 182.87 163.804 183.618 163.804 184.542C163.804 185.465 164.029 186.214 164.307 186.214Z" fill="#A0616A"/>
<path d="M175.715 194.743C181.83 194.743 186.788 189.801 186.788 183.706C186.788 177.61 181.83 172.669 175.715 172.669C169.6 172.669 164.642 177.61 164.642 183.706C164.642 189.801 169.6 194.743 175.715 194.743Z" fill="#A0616A"/>
<path d="M170.85 177.853L170.567 180.528H178.232L179.238 178.522L179.026 180.528H188.298L181.923 170.495L167.83 170.829L164.475 180.528H169.508L170.85 177.853Z" fill="#2F2E41"/>
<path d="M361.769 333.374C381.227 333.374 397 317.652 397 298.257C397 278.862 381.227 263.139 361.769 263.139C342.311 263.139 326.538 278.862 326.538 298.257C326.538 317.652 342.311 333.374 361.769 333.374Z" fill="white"/>
<path d="M364.117 266.149C378.572 266.149 390.289 254.469 390.289 240.061C390.289 225.654 378.572 213.974 364.117 213.974C349.663 213.974 337.946 225.654 337.946 240.061C337.946 254.469 349.663 266.149 364.117 266.149Z" fill="white"/>
<path d="M364.118 215.646C376.534 215.646 386.599 205.613 386.599 193.238C386.599 180.862 376.534 170.829 364.118 170.829C351.702 170.829 341.637 180.862 341.637 193.238C341.637 205.613 351.702 215.646 364.118 215.646Z" fill="white"/>
<path d="M364.453 174.174C369.271 174.174 373.177 170.28 373.177 165.478C373.177 160.675 369.271 156.782 364.453 156.782C359.635 156.782 355.729 160.675 355.729 165.478C355.729 170.28 359.635 174.174 364.453 174.174Z" fill="#6C63FF"/>
<path d="M123.679 390.338C125.929 398.63 133.637 403.765 133.637 403.765C133.637 403.765 137.696 395.457 135.446 387.166C133.195 378.874 125.488 373.739 125.488 373.739C125.488 373.739 121.429 382.047 123.679 390.338Z" fill="white"/>
<path d="M126.986 388.556C133.16 394.548 133.914 403.758 133.914 403.758C133.914 403.758 124.658 403.254 118.483 397.263C112.308 391.271 111.554 382.061 111.554 382.061C111.554 382.061 120.811 382.565 126.986 388.556Z" fill="#6C63FF"/>
<path d="M263.457 258.791C271.055 258.791 277.214 252.652 277.214 245.078C277.214 237.505 271.055 231.366 263.457 231.366C255.86 231.366 249.7 237.505 249.7 245.078C249.7 252.652 255.86 258.791 263.457 258.791Z" fill="#F2F2F2"/>
</g>
<defs>
<clipPath id="clip0">
<rect width="295" height="272.63" fill="white" transform="translate(102 154)"/>
</clipPath>
</defs>
</svg>
