<svg width="500" height="700" viewBox="0 0 500 700" fill="none" xmlns="http://www.w3.org/2000/svg">
<rect width="500" height="700" fill="#364962"/>
<g clip-path="url(#clip0)">
<path d="M124.018 488.404C127.372 485.702 131.226 483.691 135.359 482.487C146.925 479.173 158.89 482.381 170.461 485.483C176.707 487.158 183.167 488.889 189.537 489.603C199.745 490.746 209.26 489.15 217.052 484.989C225.81 480.313 232.118 472.265 233.927 463.463C234.155 462.349 234.307 461.221 234.382 460.086C233.519 460.619 232.653 461.144 231.784 461.661C222.644 467.097 209.797 472.18 200.503 465.52C196.935 462.964 194.62 458.692 194.151 453.802C193.649 448.561 195.333 443.335 198.655 439.824C199.196 439.252 199.777 438.719 200.392 438.227C207.125 432.845 217.753 432.555 225.209 437.874C231.523 442.38 235.263 450.52 235.143 458.777C240.541 455.387 245.762 451.72 250.784 447.793L251.22 448.352C246.054 452.392 240.679 456.157 235.117 459.63C235.055 460.966 234.889 462.296 234.62 463.606C232.769 472.613 226.326 480.84 217.385 485.615C209.466 489.844 199.809 491.467 189.458 490.308C183.035 489.589 176.55 487.85 170.277 486.168C158.271 482.949 146.931 479.909 135.554 483.169C124.118 486.445 114.881 496.497 112.567 508.181C110.252 519.865 114.959 532.687 124.28 540.087L123.84 540.643C114.316 533.082 109.507 519.981 111.872 508.043C113.4 500.327 117.884 493.308 124.018 488.404ZM234.425 459.226C234.692 451.04 231.043 442.909 224.798 438.452C216.94 432.845 205.443 433.681 199.169 440.312C195.986 443.677 194.373 448.694 194.856 453.734C195.306 458.421 197.514 462.506 200.915 464.943C209.898 471.38 222.463 466.38 231.423 461.051C232.427 460.454 233.428 459.845 234.425 459.226V459.226Z" fill="white"/>
<path d="M163.63 548.797C218.102 548.797 262.26 546.733 262.26 544.186C262.26 541.64 218.102 539.576 163.63 539.576C109.158 539.576 65 541.64 65 544.186C65 546.733 109.158 548.797 163.63 548.797Z" fill="#242333"/>
<path d="M159.912 562.629C179.275 562.629 194.972 560.565 194.972 558.019C194.972 555.472 179.275 553.408 159.912 553.408C140.548 553.408 124.851 555.472 124.851 558.019C124.851 560.565 140.548 562.629 159.912 562.629Z" fill="#242333"/>
<path d="M130.694 447.537V450.375C130.694 450.375 127.499 465.21 132.465 464.562C140.611 463.498 134.59 451.439 134.59 451.439V448.956L130.694 447.537Z" fill="#D83F87"/>
<path d="M170.359 527.339L173.546 536.206L181.338 533.369L177.796 525.211L170.359 527.339Z" fill="#D83F87"/>
<path d="M150.881 536.206L148.756 544.009L156.901 546.492L157.256 538.334L150.881 536.206Z" fill="#D83F87"/>
<path d="M143.798 446.828L143.09 450.729C143.09 450.729 142.736 453.567 143.09 455.34C143.444 457.113 168.942 530.531 168.942 530.531L179.921 526.275L165.755 479.813L163.984 443.99L143.798 446.828Z" fill="black"/>
<path d="M157.61 446.118L156.193 498.61C156.193 498.61 153.006 502.157 153.714 504.64C154.422 507.123 151.943 527.694 151.943 527.694L149.818 537.98L159.026 540.817C159.026 540.817 160.797 531.595 162.214 530.531C163.63 529.467 171.776 497.546 171.776 495.418C171.776 493.29 177.796 446.118 177.796 446.118L162.922 440.089L157.61 446.118Z" fill="black"/>
<path d="M174.255 530.531C174.255 530.531 170.359 526.275 168.234 530.531C166.642 533.591 164.868 536.552 162.922 539.398C162.922 539.398 151.589 546.137 162.922 547.91C162.922 547.91 169.297 548.265 172.484 546.137C175.671 544.009 184.171 540.817 184.171 540.108C184.171 539.398 182.046 528.971 179.921 530.106C177.796 531.241 174.255 530.531 174.255 530.531Z" fill="black"/>
<path d="M154.777 542.236C154.777 542.236 151.589 537.625 148.756 540.817C145.923 544.009 142.381 553.231 142.381 553.231C142.381 553.231 136.007 562.807 145.923 562.452C155.839 562.097 156.547 558.551 156.547 558.551C156.547 558.551 157.964 549.329 157.964 548.974C157.964 548.62 157.256 544.974 157.256 544.974L154.777 542.236Z" fill="black"/>
<path d="M152.475 373.233C157.951 373.233 162.391 368.786 162.391 363.302C162.391 357.817 157.951 353.371 152.475 353.371C146.998 353.371 142.558 357.817 142.558 363.302C142.558 368.786 146.998 373.233 152.475 373.233Z" fill="#D83F87"/>
<path d="M147.339 369.508L148.756 380.858L153.006 391.498L162.214 380.503V375.183C162.214 375.183 159.381 370.927 160.089 367.38L147.339 369.508Z" fill="#D83F87"/>
<path d="M152.298 383.341L147.339 381.213L142.027 443.99L143.09 447.892C143.09 447.892 145.923 449.665 154.777 448.246C163.63 446.828 178.15 447.892 178.15 447.892L179.213 415.616L161.86 377.666L152.298 383.341Z" fill="#D0CDE1"/>
<path d="M143.444 445.409C143.444 445.409 150.173 386.888 149.819 385.824C149.464 384.76 143.444 381.878 143.444 381.878C143.444 381.878 133.174 388.661 133.528 391.144C133.882 393.626 140.257 446.118 140.257 446.118L143.444 445.409Z" fill="#575A89"/>
<path d="M170.359 441.153C170.359 441.153 159.735 399.656 159.38 390.434C159.026 381.213 159.026 380.149 159.026 380.149C159.026 380.149 175.317 374.474 180.983 380.149L182.046 409.941C182.046 409.941 183.817 422.71 183.108 426.611C182.62 429.152 181.909 431.644 180.983 434.059C180.983 434.059 184.879 437.961 181.338 439.025C177.796 440.089 175.317 438.316 173.901 440.089C172.484 441.862 170.359 441.153 170.359 441.153Z" fill="#575A89"/>
<path d="M136.007 389.016C136.007 389.016 131.757 389.016 132.111 393.981C132.465 398.947 132.111 422 132.111 422C132.111 422 128.924 441.508 129.986 442.926C131.049 444.345 129.632 448.956 129.632 448.956L136.007 450.375C136.007 450.375 136.715 445.409 138.132 445.054C139.548 444.7 141.673 434.414 141.673 434.414L136.007 389.016Z" fill="#575A89"/>
<path d="M183.817 432.641L182.19 435.602C182.19 435.602 171.036 444.498 176.541 447.791C182.046 451.084 187.358 439.025 187.358 439.025L189.129 435.833L183.817 432.641Z" fill="#D83F87"/>
<path d="M176.025 379.439L180.984 380.149C180.984 380.149 186.65 384.05 187.004 386.178C187.358 388.306 198.691 407.813 198.691 407.813C199.359 409.26 199.721 410.83 199.753 412.424C199.753 414.907 195.858 433.705 193.733 434.059C191.608 434.414 190.191 437.961 190.191 437.961L182.754 433.35C182.778 432.278 182.896 431.209 183.108 430.158C183.463 428.385 184.879 424.838 184.879 424.838L187.004 417.39C186.674 417.142 186.406 416.821 186.222 416.451C186.038 416.082 185.942 415.675 185.942 415.262C185.942 413.843 179.921 406.395 179.921 406.395L176.025 379.439Z" fill="#575A89"/>
<path d="M151.194 386.962C151.194 386.962 142.027 384.405 142.736 382.631C143.444 380.858 144.152 380.503 144.152 380.503C144.152 380.503 145.215 377.666 146.277 377.666C147.339 377.666 148.249 376.795 148.249 376.795L152.297 383.341L151.194 386.962Z" fill="#D0CDE1"/>
<path d="M161.156 373.233C161.156 373.233 164.693 372.346 166.109 373.41C167.526 374.474 168.588 374.474 168.942 375.183C169.297 375.893 173.901 376.602 172.484 377.666C171.067 378.73 152.297 383.341 152.297 383.341L161.151 376.957L161.156 373.233Z" fill="#D0CDE1"/>
<path d="M162.262 352.735C160.68 350.162 158.203 348.266 155.309 347.411L153.183 349.115L154.009 347.128C153.314 347.022 152.611 346.981 151.908 347.006L149.996 349.469L150.787 347.091C149.127 347.297 147.528 347.846 146.091 348.702C144.654 349.559 143.409 350.704 142.436 352.066C140.001 355.581 140.164 360.468 142.558 364.011C143.216 361.988 143.44 360.092 144.097 358.069C144.614 358.14 145.137 358.142 145.654 358.077L146.454 356.208L146.677 357.998C149.156 357.781 152.832 357.307 155.182 356.872L154.954 355.499L156.321 356.64C157.041 356.474 157.468 356.323 157.433 356.208C159.18 359.03 160.912 360.832 162.659 363.653C163.323 359.673 164.494 356.365 162.262 352.735Z" fill="black"/>
<path d="M161.682 363.302C162.074 363.302 162.391 362.666 162.391 361.883C162.391 361.099 162.074 360.464 161.682 360.464C161.291 360.464 160.974 361.099 160.974 361.883C160.974 362.666 161.291 363.302 161.682 363.302Z" fill="#D83F87"/>
<path d="M101.909 544.091L101.529 543.948C101.446 543.917 93.1329 540.727 89.2388 533.495C85.3445 526.262 87.2514 517.554 87.2711 517.467L87.3608 517.07L87.7407 517.213C87.8243 517.244 96.1369 520.434 100.031 527.666C103.925 534.899 102.019 543.608 101.999 543.694L101.909 544.091ZM89.8623 533.158C93.1546 539.273 99.7237 542.408 101.388 543.123C101.705 541.337 102.697 534.112 99.4076 528.003C96.1186 521.895 89.5469 518.755 87.8819 518.038C87.5652 519.826 86.5732 527.049 89.8623 533.158V533.158Z" fill="#3F3D56"/>
<path d="M92.2148 530.958C99.2129 535.174 101.908 543.55 101.908 543.55C101.908 543.55 93.2571 545.088 86.2589 540.872C79.2608 536.655 76.5656 528.28 76.5656 528.28C76.5656 528.28 85.2166 526.741 92.2148 530.958Z" fill="white"/>
<path d="M244.553 452.268H406.464C437.136 452.268 462 434.76 462 404.042V404.042C462 373.325 437.136 360.522 406.464 360.522H355.625C294.282 360.522 244.553 390.833 244.553 452.268V452.268Z" fill="#3F3D56"/>
<path d="M397.426 444.827H262.674V444.473C262.674 420.346 272.061 400.468 289.819 386.989C306.217 374.542 328.834 367.962 355.226 367.962H397.426C410.885 367.962 422.227 370.924 430.226 376.527C439.285 382.874 443.879 392.266 443.879 404.442C443.879 416.68 439.165 427.002 430.246 434.294C421.938 441.086 410.282 444.827 397.426 444.827ZM263.383 444.118H397.426C424.787 444.118 443.17 428.173 443.17 404.442C443.17 381.709 426.497 368.672 397.426 368.672H355.226C310.921 368.672 263.585 388.503 263.383 444.118V444.118Z" fill="white"/>
<path d="M332.382 391.676H313.258V396.286H332.382V391.676Z" fill="white"/>
<path d="M398.607 391.676H391.879V396.286H398.607V391.676Z" fill="white"/>
<path d="M412.065 391.676H405.336V396.286H412.065V391.676Z" fill="white"/>
<path d="M384.796 391.676H339.111V396.286H384.796V391.676Z" fill="white"/>
<path d="M308.3 421.468H289.176V426.079H308.3V421.468Z" fill="white"/>
<path d="M374.525 421.468H367.797V426.079H374.525V421.468Z" fill="white"/>
<path d="M387.983 421.468H381.254V426.079H387.983V421.468Z" fill="white"/>
<path d="M360.714 421.468H315.029V426.079H360.714V421.468Z" fill="white"/>
<path d="M387.275 401.961H368.151V406.572H387.275V401.961Z" fill="white"/>
<path d="M413.128 401.961H394.004V406.572H413.128V401.961Z" fill="white"/>
<path d="M426.585 401.961H419.856V406.572H426.585V401.961Z" fill="white"/>
<path d="M295.905 401.961H289.176V406.572H295.905V401.961Z" fill="white"/>
<path d="M309.362 401.961H302.633V406.572H309.362V401.961Z" fill="white"/>
<path d="M361.776 401.961H316.091V406.572H361.776V401.961Z" fill="white"/>
<path d="M328.486 416.503H347.61V411.892H328.486V416.503Z" fill="white"/>
<path d="M302.633 416.503H321.757V411.892H302.633V416.503Z" fill="white"/>
<path d="M289.176 416.503H295.905V411.892H289.176V416.503Z" fill="white"/>
<path d="M419.856 416.503H426.585V411.892H419.856V416.503Z" fill="white"/>
<path d="M406.399 416.503H413.128V411.892H406.399V416.503Z" fill="white"/>
<path d="M353.985 416.503H399.67V411.892H353.985V416.503Z" fill="white"/>
<path d="M125.559 537.447H118.831V542.768H125.559V537.447Z" fill="white"/>
<path d="M181.161 553.053H174.432V558.373H181.161V553.053Z" fill="white"/>
</g>
<defs>
<clipPath id="clip0">
<rect width="397" height="215.629" fill="white" transform="translate(65 347)"/>
</clipPath>
</defs>
</svg>
