<svg width="500" height="500" viewBox="0 0 500 500" fill="none" xmlns="http://www.w3.org/2000/svg">
<rect width="500" height="500" fill="#AE0049" fill-opacity="0.8"/>
<g clip-path="url(#clip0)">
<path d="M418.578 268.619C409.199 268.619 400.031 265.844 392.232 260.646C384.434 255.447 378.356 248.058 374.767 239.414C371.177 230.769 370.238 221.257 372.068 212.08C373.898 202.903 378.414 194.473 385.046 187.857C391.678 181.24 400.128 176.734 409.327 174.909C418.526 173.084 428.061 174.02 436.726 177.601C445.391 181.182 452.797 187.246 458.008 195.026C463.219 202.806 466 211.952 466 221.309C465.986 233.852 460.985 245.877 452.095 254.746C443.205 263.615 431.151 268.604 418.578 268.619V268.619ZM418.578 174.739C409.346 174.739 400.321 177.471 392.644 182.588C384.967 187.705 378.984 194.978 375.451 203.488C371.918 211.997 370.994 221.361 372.795 230.395C374.596 239.428 379.042 247.726 385.57 254.239C392.099 260.752 400.416 265.188 409.471 266.985C418.527 268.781 427.913 267.859 436.442 264.334C444.972 260.81 452.263 254.841 457.392 247.182C462.521 239.524 465.259 230.52 465.259 221.309C465.245 208.962 460.322 197.125 451.571 188.395C442.82 179.664 430.955 174.753 418.578 174.739V174.739Z" fill="#3F3D56"/>
<path d="M418.738 245.201C431.889 245.201 442.55 234.565 442.55 221.445C442.55 208.325 431.889 197.69 418.738 197.69C405.587 197.69 394.926 208.325 394.926 221.445C394.926 234.565 405.587 245.201 418.738 245.201Z" fill="#F2F2F2"/>
<path d="M420.309 221.5H56.8013V403.687H420.309V221.5Z" fill="#3F3D56"/>
<path opacity="0.1" d="M295.245 274.17H158.929V367.422H295.245V274.17Z" fill="black"/>
<path d="M451.328 197.634C456.631 197.634 460.93 193.346 460.93 188.055C460.93 182.765 456.631 178.477 451.328 178.477C446.025 178.477 441.727 182.765 441.727 188.055C441.727 193.346 446.025 197.634 451.328 197.634Z" fill="white"/>
<path d="M67.6199 232.725C70.0099 232.725 71.9474 230.792 71.9474 228.408C71.9474 226.023 70.0099 224.091 67.6199 224.091C65.23 224.091 63.2925 226.023 63.2925 228.408C63.2925 230.792 65.23 232.725 67.6199 232.725Z" fill="white"/>
<path d="M81.035 232.725C83.425 232.725 85.3625 230.792 85.3625 228.408C85.3625 226.023 83.425 224.091 81.035 224.091C78.645 224.091 76.7075 226.023 76.7075 228.408C76.7075 230.792 78.645 232.725 81.035 232.725Z" fill="white"/>
<path d="M94.45 232.725C96.84 232.725 98.7775 230.792 98.7775 228.408C98.7775 226.023 96.84 224.091 94.45 224.091C92.06 224.091 90.1226 226.023 90.1226 228.408C90.1226 230.792 92.06 232.725 94.45 232.725Z" fill="white"/>
<path d="M107.432 289.281H98.7773V297.915H107.432V289.281Z" fill="white"/>
<path d="M370.975 364.4H362.32V373.035H370.975V364.4Z" fill="white"/>
<path d="M340.46 304.363L333.731 309.794L339.175 316.507L345.904 311.076L340.46 304.363Z" fill="white"/>
<path d="M309.958 421.819H38.1929V275.897H39.0583V420.956H309.958V421.819Z" fill="#3F3D56"/>
<path d="M315.151 427C314.038 427 312.951 426.671 312.026 426.054C311.1 425.437 310.379 424.561 309.954 423.535C309.528 422.51 309.416 421.381 309.633 420.293C309.851 419.204 310.386 418.204 311.173 417.419C311.96 416.634 312.962 416.1 314.054 415.883C315.145 415.666 316.276 415.778 317.304 416.202C318.332 416.627 319.211 417.347 319.829 418.27C320.447 419.192 320.777 420.278 320.777 421.388C320.775 422.876 320.182 424.302 319.127 425.354C318.073 426.406 316.643 426.998 315.151 427V427ZM315.151 416.639C314.21 416.639 313.289 416.917 312.506 417.439C311.724 417.961 311.114 418.702 310.753 419.57C310.393 420.438 310.299 421.393 310.482 422.314C310.666 423.235 311.119 424.081 311.785 424.746C312.451 425.41 313.299 425.862 314.222 426.045C315.146 426.228 316.103 426.134 316.973 425.775C317.843 425.416 318.586 424.807 319.109 424.026C319.632 423.245 319.911 422.327 319.911 421.388C319.91 420.129 319.408 418.921 318.516 418.031C317.623 417.141 316.413 416.64 315.151 416.639V416.639Z" fill="#3F3D56"/>
<path d="M38.6257 276.329C37.5131 276.329 36.4254 276 35.5002 275.383C34.5751 274.766 33.854 273.89 33.4282 272.864C33.0024 271.839 32.891 270.71 33.1081 269.622C33.3252 268.533 33.861 267.533 34.6477 266.748C35.4345 265.963 36.4369 265.429 37.5282 265.212C38.6195 264.995 39.7506 265.107 40.7786 265.531C41.8065 265.956 42.6852 266.676 43.3033 267.598C43.9215 268.521 44.2514 269.607 44.2514 270.717C44.2498 272.205 43.6565 273.631 42.6019 274.683C41.5472 275.735 40.1172 276.327 38.6257 276.329V276.329ZM38.6257 265.968C37.6842 265.968 36.7639 266.246 35.9811 266.768C35.1983 267.29 34.5881 268.031 34.2278 268.899C33.8676 269.767 33.7733 270.722 33.957 271.643C34.1406 272.564 34.594 273.41 35.2597 274.075C35.9255 274.739 36.7737 275.191 37.697 275.374C38.6204 275.557 39.5776 275.463 40.4474 275.104C41.3172 274.745 42.0606 274.136 42.5837 273.355C43.1068 272.574 43.3859 271.656 43.3859 270.717C43.3845 269.457 42.8825 268.25 41.9901 267.36C41.0977 266.47 39.8878 265.969 38.6257 265.968V265.968Z" fill="#3F3D56"/>
<path d="M119.982 392.894L116.118 403.687H107.433V392.678C108.073 378.867 115.841 372.374 116.083 372.176C110.245 377.792 110.895 397.211 110.895 397.211C114.789 380.374 118.251 379.942 118.251 379.942C116.157 383.081 115.075 397.358 115.01 398.247C115.27 395.247 119.982 392.894 119.982 392.894Z" fill="#F2F2F2"/>
<path d="M388.718 394.362V403.687H382.041L378.765 394.53C378.765 394.53 382.499 396.395 382.707 398.774C382.655 398.04 381.798 386.746 380.136 384.259C380.136 384.259 382.884 384.601 385.974 397.954C385.974 397.954 386.485 382.554 381.859 378.099C382.054 378.259 388.212 383.405 388.718 394.362Z" fill="#F2F2F2"/>
<path d="M271.855 367.421H261.33L261.259 366.559L260.492 356.961V356.957L259.696 346.978L264.553 326.394L268.68 330.512V350.127C268.68 350.127 271.107 353.76 270.621 354.728C270.136 355.697 269.651 355.697 270.136 356.421C270.621 357.149 271.107 357.633 270.621 358.118C270.385 358.432 270.257 358.815 270.257 359.208C270.257 359.601 270.385 359.984 270.621 360.298C271.107 360.782 272.077 361.507 271.347 362.235C270.621 362.959 269.651 362.475 270.621 365.14C270.799 365.633 271.023 366.108 271.288 366.559C271.461 366.856 271.65 367.144 271.855 367.421V367.421Z" fill="#D0CDE1"/>
<path d="M239.428 301.087L237.972 315.617L252.779 317.797L253.871 309.442L254.963 301.087H239.428Z" fill="#FFB9B9"/>
<path opacity="0.1" d="M239.428 301.087L237.972 315.617L252.779 317.797L253.871 309.442L254.963 301.087H239.428Z" fill="black"/>
<path d="M247.56 305.809C253.995 305.809 259.211 300.605 259.211 294.186C259.211 287.766 253.995 282.562 247.56 282.562C241.125 282.562 235.908 287.766 235.908 294.186C235.908 300.605 241.125 305.809 247.56 305.809Z" fill="#FFB9B9"/>
<path d="M218.116 367.42C218.076 367.335 218.031 367.247 217.987 367.151C217.901 366.97 217.809 366.774 217.709 366.559C217.064 365.125 216.275 363.085 216.731 362.475C217.461 361.507 217.701 360.538 217.216 360.054C216.731 359.57 215.275 360.538 216.731 359.326C218.187 358.118 218.672 358.842 218.187 357.389C217.701 355.937 216.731 356.665 217.701 355.937C218.672 355.212 219.402 355.453 218.917 354.728C218.431 354 217.461 354 218.431 353.516C219.402 353.032 220.132 353.516 219.887 352.304C219.643 351.095 219.402 351.579 219.887 351.095C220.013 350.969 220.454 349.75 221.043 348.009C222.692 343.089 225.47 334.016 225.47 333.657C225.47 333.173 221.588 317.919 221.588 317.919L219.887 316.947C219.887 316.947 212.363 322.033 209.936 333.417C207.506 344.797 205.809 347.706 205.809 347.706C205.809 347.706 203.382 348.19 205.079 349.883C206.78 351.579 206.78 351.335 205.324 352.304C203.868 353.272 202.897 351.335 203.868 353.272C204.838 355.212 206.05 354.728 205.079 355.937C204.108 357.149 202.412 357.149 203.382 358.118C204.353 359.086 202.412 361.267 203.623 362.235C204.838 363.203 205.324 363.444 205.324 365.14C205.324 365.615 205.363 366.09 205.439 366.559C205.48 366.85 205.54 367.137 205.616 367.42C205.672 367.646 205.727 367.816 205.765 367.923L218.116 367.42Z" fill="#D0CDE1"/>
<path d="M218.116 367.42H219.106L219.158 367.077L217.987 367.151L213.73 367.42L205.765 367.923L218.116 367.42Z" fill="#3F3D56"/>
<path d="M223.285 357.149L221.103 349.643L221.044 348.009L219.888 316.947L234.21 311.865L236.637 309.925C236.637 309.925 237.122 304.355 237.852 303.871C238.115 303.697 238.538 303.9 239.097 304.373C240.079 305.205 241.487 306.865 243.191 308.716C245.862 311.621 251.445 311.137 253.142 310.169C253.36 310.042 253.587 309.93 253.82 309.832C255.039 309.33 255.569 309.685 255.569 309.685C256.784 310.653 253.872 313.802 253.872 313.802C253.872 313.802 254.843 315.979 261.152 318.16C267.465 320.34 268.68 330.512 268.68 330.512C268.68 330.512 261.152 350.851 261.396 352.304C261.604 353.549 260.744 356.218 260.492 356.957V356.961C260.452 357.079 260.426 357.149 260.426 357.149L260.978 366.559L261.03 367.42H224.311C224.202 367.121 224.064 366.833 223.9 366.559C223.859 366.493 223.815 366.423 223.77 366.352C221.588 362.959 223.285 357.149 223.285 357.149Z" fill="#D0CDE1"/>
<path d="M235.828 295.675C235.828 295.675 234.618 293.864 235.083 291.914C235.361 290.807 235.471 289.665 235.409 288.525C235.409 288.525 236.386 285.368 237.363 283.604C238.341 281.84 237.875 281.097 240.947 280.54C244.018 279.983 242.762 275.99 250.859 280.308C251.132 280.688 251.512 280.979 251.951 281.145C252.39 281.31 252.868 281.342 253.325 281.236C255.001 280.911 255.606 283.232 255.606 283.232C255.606 283.232 256.723 282.582 257.141 283.511C257.56 284.439 260.547 282.954 260.547 289.221C260.547 295.489 257.148 301.087 257.148 301.087C257.148 301.087 257.397 290.544 251.859 289.477C246.322 288.409 240.365 285.298 238.922 289.291C238.144 291.532 237.105 293.674 235.828 295.675Z" fill="#2F2E41"/>
<path d="M257.27 298.181C257.873 298.181 258.362 297.531 258.362 296.728C258.362 295.926 257.873 295.275 257.27 295.275C256.666 295.275 256.177 295.926 256.177 296.728C256.177 297.531 256.666 298.181 257.27 298.181Z" fill="#FFB9B9"/>
<path d="M158.929 267.262V367.421H318.18V267.262H158.929ZM317.317 366.559H159.796V268.126H317.317V366.559Z" fill="white"/>
</g>
<defs>
<clipPath id="clip0">
<rect width="433" height="253" fill="white" transform="translate(33 174)"/>
</clipPath>
</defs>
</svg>
