<svg width="500" height="700" viewBox="0 0 500 700" fill="none" xmlns="http://www.w3.org/2000/svg">
<rect width="500" height="700" fill="#4B6A98"/>
<path opacity="0.5" d="M249.724 561.81C304.297 561.81 348.537 554.391 348.537 545.239C348.537 536.087 304.297 528.668 249.724 528.668C195.151 528.668 150.911 536.087 150.911 545.239C150.911 554.391 195.151 561.81 249.724 561.81Z" fill="#DEE3F3"/>
<g opacity="0.45">
<path opacity="0.45" d="M225.991 372.799C225.992 372.984 226.005 373.169 226.03 373.352C226.005 373.169 225.992 372.984 225.991 372.799Z" fill="white"/>
<path opacity="0.45" d="M275.751 360.896C275.758 360.945 275.767 360.994 275.773 361.044C275.767 360.994 275.758 360.945 275.751 360.896Z" fill="white"/>
<path opacity="0.45" d="M275.647 360.405C275.661 360.456 275.675 360.508 275.687 360.56C275.675 360.508 275.661 360.456 275.647 360.405Z" fill="white"/>
<path opacity="0.45" d="M275.699 373.73C275.68 373.815 275.658 373.899 275.634 373.982C275.658 373.899 275.68 373.815 275.699 373.73Z" fill="white"/>
<path opacity="0.45" d="M275.768 373.324C275.757 373.414 275.744 373.504 275.727 373.592C275.744 373.504 275.757 373.414 275.768 373.324Z" fill="white"/>
<path opacity="0.45" d="M228.292 376.582C227.96 376.408 227.653 376.193 227.378 375.94C227.653 376.193 227.96 376.408 228.292 376.582V376.582Z" fill="white"/>
<path opacity="0.45" d="M227.344 375.909C227.215 375.788 227.093 375.659 226.98 375.523C227.093 375.659 227.215 375.788 227.344 375.909Z" fill="white"/>
<path opacity="0.45" d="M300.774 457.375C300.724 457.206 300.663 457.041 300.592 456.879C300.663 457.041 300.724 457.206 300.774 457.375V457.375Z" fill="white"/>
<path opacity="0.45" d="M298.649 454.806C298.817 454.894 298.98 454.993 299.136 455.102C298.98 454.992 298.817 454.893 298.649 454.806V454.806Z" fill="white"/>
<path opacity="0.45" d="M299.605 455.486C299.866 455.731 300.095 456.008 300.287 456.31C300.095 456.008 299.866 455.731 299.605 455.486Z" fill="white"/>
<path opacity="0.45" d="M299.15 455.113C299.292 455.214 299.427 455.324 299.556 455.441C299.428 455.324 299.292 455.214 299.15 455.113V455.113Z" fill="white"/>
<path opacity="0.45" d="M300.556 456.803C300.492 456.665 300.42 456.531 300.342 456.4C300.42 456.53 300.492 456.665 300.556 456.803V456.803Z" fill="white"/>
<path opacity="0.45" d="M300.892 457.901C300.869 457.759 300.838 457.618 300.801 457.479C300.838 457.618 300.869 457.759 300.892 457.901V457.901Z" fill="white"/>
<path opacity="0.45" d="M429.674 434.526H405.105C405.673 434.134 406.136 433.61 406.456 432.999C406.777 432.389 406.944 431.71 406.944 431.022V419.76C406.944 419.2 406.833 418.645 406.618 418.127C406.403 417.609 406.089 417.139 405.692 416.742C405.295 416.346 404.824 416.032 404.305 415.817C403.786 415.603 403.23 415.492 402.669 415.492H374.39C375.253 415.217 376.007 414.675 376.542 413.944C377.077 413.213 377.365 412.332 377.365 411.427V400.165C377.365 399.476 377.198 398.798 376.878 398.187C376.558 397.577 376.094 397.053 375.527 396.661H402.669C403.23 396.661 403.786 396.551 404.305 396.336C404.824 396.122 405.295 395.807 405.692 395.411C406.089 395.015 406.403 394.544 406.618 394.027C406.833 393.509 406.944 392.954 406.944 392.393V381.132C406.944 380.571 406.833 380.017 406.618 379.499C406.403 378.981 406.089 378.51 405.692 378.114C405.295 377.718 404.824 377.404 404.305 377.189C403.786 376.975 403.23 376.864 402.669 376.864H372.455C373.319 376.589 374.072 376.047 374.607 375.316C375.142 374.585 375.43 373.704 375.431 372.799V361.537C375.431 360.848 375.264 360.169 374.943 359.559C374.623 358.949 374.16 358.425 373.592 358.033H402.669C403.23 358.033 403.786 357.923 404.305 357.708C404.824 357.494 405.295 357.179 405.692 356.783C406.089 356.387 406.403 355.916 406.618 355.398C406.833 354.881 406.944 354.326 406.944 353.765V342.504C406.944 341.943 406.833 341.388 406.618 340.871C406.403 340.353 406.089 339.882 405.692 339.486C405.295 339.09 404.824 338.775 404.305 338.561C403.786 338.346 403.23 338.236 402.669 338.236H387.448C388.311 337.961 389.065 337.419 389.6 336.688C390.134 335.957 390.423 335.076 390.423 334.17V322.909C390.423 322.349 390.312 321.794 390.098 321.276C389.883 320.758 389.568 320.288 389.171 319.891C388.774 319.495 388.303 319.181 387.784 318.966C387.266 318.752 386.71 318.641 386.148 318.641H344.884C344.323 318.641 343.767 318.752 343.248 318.966C342.73 319.181 342.259 319.495 341.862 319.891C341.465 320.288 341.15 320.758 340.935 321.276C340.72 321.794 340.61 322.349 340.61 322.909C340.61 322.349 340.499 321.794 340.284 321.276C340.069 320.758 339.755 320.288 339.358 319.891C338.961 319.495 338.49 319.181 337.971 318.966C337.452 318.752 336.896 318.641 336.335 318.641H295.071C294.257 318.642 293.459 318.874 292.773 319.312C292.087 319.75 291.54 320.375 291.198 321.112C291.252 321.386 291.28 321.664 291.28 321.943V333.205C291.28 333.825 291.143 334.437 290.88 334.998C291.073 335.971 291.599 336.846 292.367 337.472H302.965C303.952 337.471 304.909 337.813 305.672 338.438H310.292C309.429 338.713 308.675 339.256 308.14 339.986C307.606 340.717 307.317 341.599 307.317 342.504C307.316 342.232 307.29 341.962 307.237 341.695C307.237 341.71 307.24 341.725 307.24 341.74V353.002C307.238 353.361 307.191 353.718 307.1 354.066C307.169 354.138 307.23 354.217 307.284 354.301C307.306 354.124 307.317 353.944 307.317 353.765C307.319 354.013 307.343 354.259 307.389 354.503C307.445 354.638 307.478 354.783 307.484 354.93C307.754 355.879 308.345 356.705 309.155 357.269H305.479C305.512 357.247 305.541 357.219 305.573 357.195C305.232 357.204 304.888 357.166 304.546 357.163C304.424 357.161 304.304 357.136 304.191 357.089C303.793 357.208 303.38 357.269 302.965 357.269L277.642 358.033C277.075 358.425 276.611 358.949 276.291 359.559C275.971 360.169 275.804 360.848 275.804 361.537V372.799C275.804 373.704 276.093 374.585 276.627 375.316C277.162 376.047 277.916 376.589 278.779 376.864L302.965 377.066C303.39 377.066 303.813 377.129 304.22 377.254C304.49 377.277 304.757 377.324 305.019 377.394C305.039 377.39 305.059 377.388 305.079 377.384C304.844 377.255 304.597 377.149 304.342 377.066H310.292C309.429 377.342 308.675 377.884 308.14 378.614C307.606 379.345 307.317 380.227 307.317 381.132C307.317 380.884 307.295 380.637 307.252 380.394C307.224 380.434 307.192 380.473 307.158 380.508C307.212 380.78 307.239 381.057 307.24 381.334V392.596C307.24 393.118 307.317 392.992 307.317 392.393C307.317 393.082 307.484 393.761 307.804 394.371C308.124 394.982 308.588 395.505 309.155 395.898L324.244 396.38C324.762 396.381 325.275 396.476 325.759 396.661H329.39C328.74 397.115 328.229 397.739 327.913 398.465C328.309 399.125 328.519 399.879 328.519 400.648V411.91C328.519 412.498 328.397 413.079 328.161 413.617C328.695 414.508 329.536 415.175 330.527 415.492H326.562C325.872 415.94 325.067 416.178 324.244 416.177H309.276C308.675 416.563 308.181 417.093 307.839 417.719C307.496 418.345 307.317 419.047 307.317 419.76C307.317 418.256 306.756 433.077 306.756 433.077C306.756 434.408 330.048 435.009 330.048 435.009C330.64 435.009 331.225 435.132 331.767 435.37C332.01 435.318 332.258 435.297 332.507 435.307C332.499 435.301 332.492 435.295 332.484 435.289H336.161C335.593 435.681 335.13 436.205 334.81 436.815C334.489 437.426 334.322 438.105 334.323 438.793C334.321 438.59 334.306 438.386 334.275 438.185C334.255 438.231 334.234 438.277 334.211 438.321C334.284 438.634 334.322 438.955 334.323 439.276V450.055C334.323 450.615 334.433 451.17 334.648 451.688C334.863 452.206 335.178 452.676 335.575 453.073C335.971 453.469 336.443 453.783 336.961 453.998C337.48 454.212 338.036 454.323 338.597 454.323H332.018C331.41 454.64 330.734 454.806 330.048 454.806H303.257C302.562 455.165 301.98 455.708 301.574 456.376C301.168 457.043 300.953 457.809 300.953 458.59V469.852C300.953 470.412 301.063 470.967 301.278 471.485C301.493 472.003 301.808 472.473 302.204 472.87C302.601 473.266 303.073 473.58 303.591 473.795C304.11 474.009 304.666 474.12 305.227 474.12H346.491C347.053 474.12 347.608 474.009 348.127 473.795C348.646 473.58 349.117 473.266 349.514 472.87C349.911 472.473 350.226 472.003 350.44 471.485C350.655 470.967 350.766 470.412 350.766 469.852C350.766 470.412 350.876 470.967 351.091 471.485C351.306 472.003 351.621 472.473 352.018 472.87C352.415 473.266 352.886 473.58 353.405 473.795C353.923 474.009 354.479 474.12 355.04 474.12H396.304C396.866 474.12 397.422 474.009 397.94 473.795C398.459 473.58 398.93 473.266 399.327 472.87C399.724 472.473 400.039 472.003 400.254 471.485C400.468 470.967 400.579 470.412 400.579 469.852V458.59C400.579 458.03 400.468 457.475 400.254 456.957C400.039 456.439 399.724 455.969 399.327 455.573C398.93 455.176 398.459 454.862 397.94 454.648C397.422 454.433 396.866 454.323 396.304 454.323H429.674C430.236 454.323 430.792 454.212 431.31 453.998C431.829 453.783 432.3 453.469 432.697 453.073C433.094 452.676 433.409 452.206 433.624 451.688C433.839 451.17 433.949 450.615 433.949 450.055V438.793C433.949 438.233 433.839 437.678 433.624 437.16C433.409 436.642 433.094 436.172 432.697 435.776C432.3 435.379 431.829 435.065 431.31 434.851C430.792 434.636 430.236 434.526 429.674 434.526V434.526ZM327.455 358.033C326.888 358.425 326.425 358.949 326.104 359.559C325.784 360.17 325.617 360.848 325.617 361.537C325.618 360.848 325.45 360.17 325.13 359.559C324.81 358.949 324.346 358.425 323.779 358.033H327.455ZM322.642 376.864C323.506 376.589 324.259 376.047 324.794 375.316C325.329 374.585 325.617 373.704 325.617 372.799C325.617 373.704 325.906 374.585 326.441 375.316C326.975 376.047 327.729 376.589 328.593 376.864H322.642ZM337.634 338.236C338.498 337.961 339.252 337.419 339.786 336.688C340.321 335.957 340.609 335.076 340.61 334.17C340.61 335.076 340.898 335.957 341.433 336.688C341.968 337.419 342.721 337.961 343.585 338.236H337.634ZM350.766 458.59C350.766 458.03 350.655 457.475 350.44 456.957C350.226 456.439 349.911 455.969 349.514 455.573C349.117 455.176 348.646 454.862 348.127 454.648C347.608 454.433 347.053 454.323 346.491 454.323H355.04C354.479 454.323 353.923 454.433 353.405 454.648C352.886 454.862 352.415 455.176 352.018 455.573C351.621 455.969 351.306 456.439 351.091 456.957C350.876 457.475 350.766 458.03 350.766 458.59V458.59ZM355.292 434.526C355.859 434.134 356.323 433.61 356.643 433C356.963 432.389 357.131 431.71 357.13 431.022C357.13 431.71 357.297 432.389 357.617 433C357.938 433.61 358.401 434.134 358.969 434.526H355.292ZM357.13 419.76C357.13 418.855 356.842 417.973 356.307 417.243C355.772 416.512 355.019 415.97 354.155 415.694H360.106C359.242 415.97 358.488 416.512 357.954 417.243C357.419 417.973 357.131 418.855 357.13 419.76V419.76ZM355.292 395.898C355.859 395.505 356.323 394.982 356.643 394.371C356.963 393.761 357.131 393.082 357.13 392.393C357.13 393.082 357.297 393.761 357.617 394.371C357.938 394.982 358.401 395.505 358.969 395.898H355.292ZM357.13 381.132C357.13 380.227 356.842 379.345 356.307 378.615C355.772 377.884 355.019 377.342 354.155 377.066H360.106C359.242 377.342 358.488 377.884 357.954 378.615C357.419 379.345 357.131 380.227 357.13 381.132V381.132ZM355.292 357.269C355.859 356.877 356.323 356.354 356.643 355.743C356.963 355.133 357.131 354.454 357.13 353.765C357.13 354.454 357.297 355.133 357.617 355.743C357.938 356.354 358.401 356.877 358.969 357.269H355.292ZM357.13 342.504C357.13 341.599 356.842 340.717 356.307 339.986C355.772 339.256 355.019 338.713 354.155 338.438H360.106C359.242 338.713 358.488 339.256 357.954 339.986C357.419 340.717 357.131 341.599 357.13 342.504V342.504ZM385.974 435.289C385.407 435.681 384.943 436.205 384.623 436.815C384.303 437.426 384.136 438.105 384.136 438.793C384.136 438.105 383.969 437.426 383.649 436.815C383.329 436.205 382.865 435.681 382.298 435.289H385.974ZM379.861 454.323C380.423 454.323 380.978 454.212 381.497 453.998C382.016 453.783 382.487 453.469 382.884 453.073C383.281 452.676 383.596 452.206 383.81 451.688C384.025 451.17 384.136 450.615 384.136 450.055C384.136 450.615 384.246 451.17 384.461 451.688C384.676 452.206 384.991 452.676 385.388 453.073C385.785 453.469 386.256 453.783 386.775 453.998C387.293 454.212 387.849 454.323 388.41 454.323H379.861Z" fill="white"/>
<path opacity="0.45" d="M300.952 458.59C300.951 458.409 300.938 458.227 300.914 458.047C300.938 458.227 300.951 458.409 300.952 458.59Z" fill="white"/>
<path opacity="0.45" d="M275.804 372.799C275.804 372.934 275.796 373.067 275.784 373.199C275.796 373.067 275.804 372.934 275.804 372.799Z" fill="white"/>
<path opacity="0.45" d="M226.04 373.435C226.066 373.606 226.103 373.776 226.149 373.943C226.103 373.776 226.066 373.606 226.04 373.435V373.435Z" fill="white"/>
<path opacity="0.45" d="M178.204 398.598C178.133 398.535 178.071 398.462 178.022 398.382C177.96 398.272 177.919 398.151 177.9 398.026C177.89 398.318 177.894 398.611 177.913 398.903C178.043 399.312 178.11 399.737 178.112 400.165C178.114 399.749 178.177 399.336 178.299 398.938C178.261 398.841 178.23 398.741 178.209 398.639C178.206 398.625 178.206 398.612 178.204 398.598Z" fill="white"/>
<path opacity="0.45" d="M236.709 318.641H195.444C194.883 318.641 194.327 318.752 193.809 318.966C193.29 319.181 192.819 319.495 192.422 319.891C192.025 320.288 191.71 320.758 191.495 321.276C191.28 321.794 191.17 322.349 191.17 322.909C191.17 322.349 191.059 321.794 190.844 321.276C190.63 320.758 190.315 320.288 189.918 319.891C189.521 319.495 189.05 319.181 188.531 318.966C188.012 318.752 187.457 318.641 186.895 318.641H145.631C145.07 318.641 144.514 318.752 143.995 318.966C143.477 319.181 143.005 319.495 142.609 319.891C142.212 320.288 141.897 320.758 141.682 321.276C141.467 321.794 141.357 322.349 141.357 322.909V334.17C141.357 335.076 141.645 335.957 142.18 336.688C142.715 337.419 143.468 337.961 144.332 338.236H112.339C111.777 338.236 111.221 338.346 110.703 338.561C110.184 338.775 109.713 339.09 109.316 339.486C108.919 339.882 108.604 340.353 108.389 340.871C108.175 341.388 108.064 341.943 108.064 342.504V353.765C108.064 354.454 108.231 355.133 108.551 355.743C108.871 356.354 109.335 356.877 109.902 357.269H80.8255C80.2642 357.269 79.7083 357.38 79.1897 357.594C78.6711 357.809 78.1999 358.123 77.8029 358.519C77.406 358.916 77.0911 359.386 76.8763 359.904C76.6615 360.422 76.5509 360.977 76.5509 361.537V372.799C76.5509 373.359 76.6615 373.914 76.8763 374.432C77.0911 374.95 77.406 375.42 77.8029 375.816C78.1999 376.213 78.6711 376.527 79.1897 376.741C79.7083 376.956 80.2642 377.066 80.8255 377.066H111.039C110.176 377.342 109.422 377.884 108.887 378.615C108.353 379.345 108.064 380.227 108.064 381.132V392.393C108.064 393.082 108.231 393.761 108.551 394.371C108.871 394.982 109.335 395.505 109.902 395.898H82.76C82.1987 395.898 81.6428 396.008 81.1242 396.222C80.6056 396.437 80.1344 396.751 79.7374 397.148C79.3405 397.544 79.0256 398.014 78.8108 398.532C78.596 399.05 78.4854 399.605 78.4854 400.165V411.427C78.4854 411.987 78.596 412.542 78.8108 413.06C79.0256 413.578 79.3405 414.048 79.7374 414.445C80.1344 414.841 80.6056 415.155 81.1242 415.37C81.6428 415.584 82.1987 415.694 82.76 415.694H111.039C110.176 415.97 109.422 416.512 108.887 417.243C108.353 417.973 108.064 418.855 108.064 419.76V431.022C108.064 431.582 108.175 432.137 108.389 432.655C108.604 433.172 108.919 433.643 109.316 434.039C109.713 434.436 110.184 434.75 110.703 434.964C111.221 435.179 111.777 435.289 112.339 435.289H136.908C136.34 435.681 135.877 436.205 135.557 436.815C135.236 437.426 135.069 438.105 135.069 438.793V450.055C135.069 451.187 135.52 452.272 136.321 453.073C137.123 453.873 138.21 454.323 139.344 454.323H105.974C105.413 454.323 104.857 454.433 104.338 454.648C103.82 454.862 103.348 455.176 102.951 455.573C102.554 455.969 102.24 456.439 102.025 456.957C101.81 457.475 101.699 458.03 101.699 458.59V469.852C101.699 470.412 101.81 470.967 102.025 471.485C102.24 472.003 102.554 472.473 102.951 472.87C103.348 473.266 103.82 473.58 104.338 473.795C104.857 474.009 105.413 474.12 105.974 474.12H147.238C147.799 474.12 148.355 474.009 148.874 473.795C149.393 473.58 149.864 473.266 150.261 472.87C150.658 472.473 150.972 472.003 151.187 471.485C151.402 470.967 151.513 470.412 151.513 469.852C151.513 470.412 151.623 470.967 151.838 471.485C152.053 472.003 152.368 472.473 152.765 472.87C153.162 473.266 153.633 473.58 154.151 473.795C154.67 474.009 155.226 474.12 155.787 474.12H197.051C197.613 474.12 198.169 474.009 198.687 473.795C199.206 473.58 199.677 473.266 200.074 472.87C200.471 472.473 200.786 472.003 201.001 471.485C201.215 470.967 201.326 470.412 201.326 469.852V458.59C201.326 457.809 201.111 457.043 200.705 456.376C200.298 455.708 199.716 455.165 199.022 454.806H190.125C189.438 454.806 188.762 454.64 188.154 454.323H180.608C181.742 454.323 182.829 453.873 183.631 453.073C184.432 452.272 184.883 451.187 184.883 450.055C184.883 451.912 185.85 439.276 185.85 439.276C185.85 438.716 185.961 438.161 186.175 437.643C186.39 437.125 186.705 436.655 187.102 436.259C187.499 435.862 187.97 435.548 188.489 435.333C189.007 435.119 189.563 435.009 190.125 435.009L205.852 434.526C206.301 434.212 206.685 433.816 206.985 433.358C206.762 432.836 206.647 432.274 206.646 431.707V420.445C206.645 419.61 206.891 418.793 207.353 418.097C207.017 417.31 206.452 416.641 205.732 416.177H183.354C182.531 416.178 181.726 415.94 181.036 415.492H175.137C176 415.217 176.754 414.675 177.289 413.944C177.823 413.213 178.112 412.332 178.112 411.427L177.96 400.248C177.96 399.744 177.934 399.298 177.913 398.903C177.632 397.995 177.055 397.206 176.274 396.661H179.95C179.922 396.68 179.898 396.704 179.871 396.723C181.955 396.604 205.761 395.21 207.696 393.655C207.647 393.36 207.637 393.059 207.668 392.761C207.633 392.547 207.615 392.33 207.613 392.113V380.851C207.613 380.711 207.621 380.574 207.634 380.437C207.505 379.662 207.165 378.937 206.65 378.342C206.135 377.747 205.465 377.306 204.715 377.066H209.917C210.525 376.749 211.201 376.583 211.888 376.583H223.686C224.381 376.224 224.963 375.681 225.369 375.013C225.776 374.346 225.991 373.58 225.991 372.799V361.537C225.991 360.848 225.824 360.17 225.504 359.559C225.183 358.949 224.72 358.425 224.153 358.033L211.888 357.269C209.809 357.269 208.434 356.509 209.529 357.269H205.852C206.416 356.88 206.877 356.36 207.197 355.754C207.516 355.149 207.685 354.475 207.689 353.79C207.639 353.53 207.614 353.266 207.613 353.002V341.74C207.613 341.731 207.614 341.722 207.614 341.713C207.471 340.957 207.126 340.254 206.616 339.677C206.106 339.101 205.449 338.673 204.715 338.438H209.18C209.943 337.813 210.9 337.471 211.888 337.473H239.412C239.903 337.073 240.299 336.57 240.571 335.999C240.843 335.427 240.983 334.803 240.983 334.17V322.909C240.983 322.349 240.873 321.794 240.658 321.276C240.443 320.758 240.128 320.288 239.731 319.891C239.334 319.495 238.863 319.181 238.344 318.966C237.826 318.752 237.27 318.641 236.709 318.641V318.641ZM128.202 358.033C127.635 358.425 127.171 358.949 126.851 359.559C126.531 360.17 126.364 360.848 126.364 361.537C126.364 360.848 126.197 360.17 125.877 359.559C125.557 358.949 125.093 358.425 124.526 358.033H128.202ZM126.364 372.799C126.364 373.704 126.653 374.585 127.187 375.316C127.722 376.047 128.476 376.589 129.34 376.864H123.389C124.253 376.589 125.006 376.047 125.541 375.316C126.076 374.585 126.364 373.704 126.364 372.799V372.799ZM130.137 396.661C129.57 397.053 129.106 397.577 128.786 398.187C128.466 398.798 128.299 399.476 128.299 400.165C128.299 399.476 128.132 398.798 127.812 398.187C127.491 397.577 127.028 397.053 126.461 396.661H130.137ZM125.323 415.492C126.187 415.217 126.941 414.675 127.475 413.944C128.01 413.213 128.299 412.332 128.299 411.427C128.299 412.332 128.587 413.213 129.122 413.944C129.657 414.675 130.41 415.217 131.274 415.492H125.323ZM178.016 358.033C177.448 358.425 176.985 358.949 176.665 359.559C176.344 360.17 176.177 360.848 176.177 361.537C176.178 360.848 176.011 360.17 175.69 359.559C175.37 358.949 174.907 358.425 174.339 358.033H178.016ZM151.513 458.59C151.513 458.03 151.402 457.475 151.187 456.957C150.972 456.439 150.658 455.969 150.261 455.573C149.864 455.176 149.393 454.862 148.874 454.648C148.355 454.433 147.799 454.323 147.238 454.323H155.787C155.226 454.323 154.67 454.433 154.151 454.648C153.633 454.862 153.162 455.176 152.765 455.573C152.368 455.969 152.053 456.439 151.838 456.957C151.623 457.475 151.513 458.03 151.513 458.59V458.59ZM156.039 434.526C156.606 434.134 157.07 433.61 157.39 433C157.71 432.389 157.877 431.71 157.877 431.022C157.877 431.71 158.044 432.389 158.364 433C158.685 433.61 159.148 434.134 159.715 434.526H156.039ZM157.877 419.76C157.877 418.855 157.589 417.973 157.054 417.243C156.519 416.512 155.766 415.97 154.902 415.694H160.853C159.989 415.97 159.235 416.512 158.701 417.243C158.166 417.973 157.877 418.855 157.877 419.76V419.76ZM156.039 395.898C156.606 395.505 157.07 394.982 157.39 394.371C157.71 393.761 157.877 393.082 157.877 392.393C157.877 393.082 158.044 393.761 158.364 394.371C158.685 394.982 159.148 395.505 159.715 395.898H156.039ZM157.877 381.132C157.877 380.227 157.589 379.345 157.054 378.615C156.519 377.884 155.766 377.342 154.902 377.066H160.853C159.989 377.342 159.235 377.884 158.701 378.615C158.166 379.345 157.877 380.227 157.877 381.132V381.132ZM156.039 357.269C156.606 356.877 157.07 356.354 157.39 355.743C157.71 355.133 157.877 354.454 157.877 353.765C157.877 354.454 158.044 355.133 158.364 355.743C158.685 356.354 159.148 356.877 159.715 357.269H156.039ZM157.877 342.504C157.877 341.599 157.589 340.717 157.054 339.986C156.519 339.256 155.766 338.713 154.902 338.438H160.853C159.989 338.713 159.235 339.256 158.701 339.986C158.166 340.717 157.877 341.599 157.877 342.504V342.504ZM173.202 376.864C174.066 376.589 174.819 376.047 175.354 375.316C175.889 374.585 176.177 373.704 176.177 372.799C176.178 373.704 176.466 374.585 177.001 375.316C177.536 376.047 178.289 376.589 179.153 376.864H173.202ZM188.195 338.236C189.058 337.961 189.812 337.419 190.347 336.688C190.881 335.957 191.17 335.076 191.17 334.17C191.17 335.076 191.458 335.957 191.993 336.688C192.528 337.419 193.282 337.961 194.145 338.236H188.195Z" fill="white"/>
<path opacity="0.45" d="M227.396 358.38C227.416 358.362 227.436 358.343 227.457 358.325C227.436 358.343 227.416 358.362 227.396 358.38Z" fill="white"/>
<path opacity="0.45" d="M227.112 358.663C227.091 358.686 227.07 358.709 227.049 358.732C227.07 358.709 227.091 358.686 227.112 358.663Z" fill="white"/>
<path opacity="0.45" d="M226.753 359.108C226.763 359.094 226.774 359.081 226.785 359.067C226.774 359.081 226.763 359.094 226.753 359.108Z" fill="white"/>
<path opacity="0.45" d="M226.175 374.029C226.224 374.195 226.284 374.358 226.353 374.517C226.284 374.358 226.224 374.195 226.175 374.029V374.029Z" fill="white"/>
<path opacity="0.45" d="M226.63 375.043C226.726 375.196 226.832 375.343 226.946 375.482C226.832 375.343 226.726 375.196 226.63 375.043Z" fill="white"/>
<path opacity="0.45" d="M226.375 374.562C226.449 374.726 226.534 374.885 226.628 375.039C226.534 374.885 226.449 374.726 226.375 374.562V374.562Z" fill="white"/>
<path opacity="0.45" d="M226.108 360.56C226.12 360.508 226.134 360.456 226.148 360.405C226.133 360.456 226.12 360.508 226.108 360.56Z" fill="white"/>
<path opacity="0.45" d="M226.252 360.079C226.268 360.037 226.282 359.994 226.299 359.952C226.282 359.994 226.268 360.037 226.252 360.079Z" fill="white"/>
<path opacity="0.45" d="M226.022 361.044C226.027 360.994 226.037 360.945 226.044 360.896C226.037 360.945 226.027 360.994 226.022 361.044Z" fill="white"/>
<path opacity="0.45" d="M226.488 359.543C226.49 359.538 226.492 359.532 226.495 359.527C226.492 359.532 226.49 359.538 226.488 359.543Z" fill="white"/>
<path opacity="0.1" d="M145.252 338.438H188.242C190.126 338.438 191.653 336.913 191.653 335.032V322.047C191.653 320.166 190.126 318.641 188.242 318.641H145.252C143.368 318.641 141.84 320.166 141.84 322.047V335.032C141.84 336.913 143.368 338.438 145.252 338.438Z" fill="black"/>
<path opacity="0.1" d="M294.208 338.438H337.198C339.082 338.438 340.61 336.913 340.61 335.032V322.047C340.61 320.166 339.082 318.641 337.198 318.641H294.208C292.324 318.641 290.796 320.166 290.796 322.047V335.032C290.796 336.913 292.324 338.438 294.208 338.438Z" fill="black"/>
<path opacity="0.1" d="M360.464 357.752H403.455C405.339 357.752 406.866 356.227 406.866 354.346V341.362C406.866 339.48 405.339 337.955 403.455 337.955H360.464C358.58 337.955 357.053 339.48 357.053 341.362V354.346C357.053 356.227 358.58 357.752 360.464 357.752Z" fill="black"/>
<path opacity="0.1" d="M279.216 377.066H322.206C324.09 377.066 325.617 375.541 325.617 373.66V360.676C325.617 358.794 324.09 357.269 322.206 357.269H279.216C277.331 357.269 275.804 358.794 275.804 360.676V373.66C275.804 375.541 277.331 377.066 279.216 377.066Z" fill="black"/>
<path opacity="0.1" d="M360.464 396.863H403.455C405.339 396.863 406.866 395.338 406.866 393.457V380.472C406.866 378.591 405.339 377.066 403.455 377.066H360.464C358.58 377.066 357.053 378.591 357.053 380.472V393.457C357.053 395.338 358.58 396.863 360.464 396.863Z" fill="black"/>
<path opacity="0.1" d="M360.464 435.491H403.455C405.339 435.491 406.866 433.966 406.866 432.085V419.101C406.866 417.219 405.339 415.695 403.455 415.695H360.464C358.58 415.695 357.053 417.219 357.053 419.101V432.085C357.053 433.966 358.58 435.491 360.464 435.491Z" fill="black"/>
<path opacity="0.1" d="M381.024 435.009H337.435C336.762 435.009 336.107 435.227 335.569 435.63C335.03 436.033 334.637 436.6 334.449 437.245C334.46 437.42 334.449 437.596 334.414 437.769C334.391 437.87 334.362 437.969 334.325 438.066C334.325 438.083 334.323 438.099 334.323 438.116V451.698C334.323 452.522 334.65 453.313 335.234 453.895C335.818 454.478 336.609 454.806 337.435 454.806H381.024C381.849 454.806 382.641 454.478 383.224 453.895C383.808 453.313 384.136 452.522 384.136 451.698V438.116C384.136 437.708 384.055 437.304 383.899 436.927C383.743 436.55 383.513 436.207 383.224 435.919C382.935 435.63 382.592 435.401 382.215 435.245C381.837 435.089 381.432 435.009 381.024 435.009V435.009Z" fill="black"/>
<path opacity="0.1" d="M304.364 474.12H347.354C349.238 474.12 350.766 472.595 350.766 470.713V457.729C350.766 455.848 349.238 454.323 347.354 454.323H304.364C302.48 454.323 300.952 455.848 300.952 457.729V470.713C300.952 472.595 302.48 474.12 304.364 474.12Z" fill="black"/>
<path opacity="0.1" d="M161.211 357.752H204.201C206.086 357.752 207.613 356.227 207.613 354.346V341.362C207.613 339.48 206.086 337.955 204.201 337.955H161.211C159.327 337.955 157.8 339.48 157.8 341.362V354.346C157.8 356.227 159.327 357.752 161.211 357.752Z" fill="black"/>
<path opacity="0.1" d="M130.259 377.066H173.25C175.134 377.066 176.661 375.541 176.661 373.66V360.676C176.661 358.794 175.134 357.269 173.25 357.269H130.259C128.375 357.269 126.848 358.794 126.848 360.676V373.66C126.848 375.541 128.375 377.066 130.259 377.066Z" fill="black"/>
<path opacity="0.1" d="M111.398 396.863H154.388C156.272 396.863 157.8 395.338 157.8 393.457V380.472C157.8 378.591 156.272 377.066 154.388 377.066H111.398C109.514 377.066 107.987 378.591 107.987 380.472V393.457C107.987 395.338 109.514 396.863 111.398 396.863Z" fill="black"/>
<path opacity="0.1" d="M131.71 416.177H174.7C176.585 416.177 178.112 414.652 178.112 412.771V399.787C178.112 397.905 176.585 396.38 174.7 396.38H131.71C129.826 396.38 128.299 397.905 128.299 399.787V412.771C128.299 414.652 129.826 416.177 131.71 416.177Z" fill="black"/>
<path opacity="0.1" d="M111.398 435.491H154.388C156.272 435.491 157.8 433.966 157.8 432.085V419.101C157.8 417.219 156.272 415.695 154.388 415.695H111.398C109.514 415.695 107.987 417.219 107.987 419.101V432.085C107.987 433.966 109.514 435.491 111.398 435.491Z" fill="black"/>
<path opacity="0.45" d="M88.8627 454.827H131.853C133.737 454.827 135.264 453.302 135.264 451.421V438.436C135.264 436.555 133.737 435.03 131.853 435.03H88.8627C86.9785 435.03 85.4511 436.555 85.4511 438.436V451.421C85.4511 453.302 86.9785 454.827 88.8627 454.827Z" fill="white"/>
<path opacity="0.45" d="M379.711 416.156H422.701C424.585 416.156 426.112 414.631 426.112 412.75V399.765C426.112 397.884 424.585 396.359 422.701 396.359H379.711C377.827 396.359 376.299 397.884 376.299 399.765V412.75C376.299 414.631 377.827 416.156 379.711 416.156Z" fill="white"/>
<path opacity="0.45" d="M377.598 377.133H420.588C422.472 377.133 424 375.608 424 373.727V360.743C424 358.861 422.472 357.337 420.588 357.337H377.598C375.714 357.337 374.186 358.861 374.186 360.743V373.727C374.186 375.608 375.714 377.133 377.598 377.133Z" fill="white"/>
<path opacity="0.45" d="M402.598 473.811H445.588C447.473 473.811 449 472.286 449 470.405V457.42C449 455.539 447.473 454.014 445.588 454.014H402.598C400.714 454.014 399.187 455.539 399.187 457.42V470.405C399.187 472.286 400.714 473.811 402.598 473.811Z" fill="white"/>
<path opacity="0.45" d="M55.4116 474.162H98.4017C100.286 474.162 101.813 472.637 101.813 470.756V457.772C101.813 455.89 100.286 454.365 98.4017 454.365H55.4116C53.5274 454.365 52 455.89 52 457.772V470.756C52 472.637 53.5274 474.162 55.4116 474.162Z" fill="white"/>
<path opacity="0.45" d="M62.1018 435.14H105.092C106.976 435.14 108.503 433.615 108.503 431.734V418.749C108.503 416.868 106.976 415.343 105.092 415.343H62.1018C60.2176 415.343 58.6902 416.868 58.6902 418.749V431.734C58.6902 433.615 60.2176 435.14 62.1018 435.14Z" fill="white"/>
<path opacity="0.45" d="M62.1018 396.82H105.092C106.976 396.82 108.503 395.295 108.503 393.414V380.43C108.503 378.549 106.976 377.024 105.092 377.024H62.1018C60.2176 377.024 58.6902 378.549 58.6902 380.43V393.414C58.6902 395.295 60.2176 396.82 62.1018 396.82Z" fill="white"/>
<path opacity="0.45" d="M63.8624 357.798H106.852C108.737 357.798 110.264 356.273 110.264 354.392V341.407C110.264 339.526 108.737 338.001 106.852 338.001H63.8624C61.9782 338.001 60.4508 339.526 60.4508 341.407V354.392C60.4508 356.273 61.9782 357.798 63.8624 357.798Z" fill="white"/>
<path opacity="0.1" d="M63.8624 357.798H106.852C108.737 357.798 110.264 356.273 110.264 354.392V341.407C110.264 339.526 108.737 338.001 106.852 338.001H63.8624C61.9782 338.001 60.4508 339.526 60.4508 341.407V354.392C60.4508 356.273 61.9782 357.798 63.8624 357.798Z" fill="black"/>
<path opacity="0.45" d="M95.5529 338.462H138.543C140.427 338.462 141.955 336.937 141.955 335.056V322.072C141.955 320.191 140.427 318.666 138.543 318.666H95.5529C93.6687 318.666 92.1413 320.191 92.1413 322.072V335.056C92.1413 336.937 93.6687 338.462 95.5529 338.462Z" fill="white"/>
<path opacity="0.1" d="M138.965 454.806H181.955C183.839 454.806 185.366 453.281 185.366 451.399V438.415C185.366 436.534 183.839 435.009 181.955 435.009H138.965C137.08 435.009 135.553 436.534 135.553 438.415V451.399C135.553 453.281 137.08 454.806 138.965 454.806Z" fill="black"/>
<path opacity="0.1" d="M105.111 474.12H148.101C149.985 474.12 151.513 472.595 151.513 470.713V457.729C151.513 455.848 149.985 454.323 148.101 454.323H105.111C103.227 454.323 101.699 455.848 101.699 457.729V470.713C101.699 472.595 103.227 474.12 105.111 474.12Z" fill="black"/>
</g>
<path opacity="0.5" d="M364.779 295.29C370.944 295.29 375.942 290.3 375.942 284.145C375.942 277.99 370.944 273 364.779 273C358.614 273 353.616 277.99 353.616 284.145C353.616 290.3 358.614 295.29 364.779 295.29Z" fill="white"/>
<path opacity="0.5" d="M149.245 304.351H146.589C146.834 304.352 147.076 304.305 147.303 304.212C147.529 304.119 147.734 303.982 147.907 303.81C148.081 303.637 148.218 303.432 148.312 303.207C148.406 302.981 148.454 302.739 148.454 302.495C148.454 302.251 148.406 302.009 148.312 301.784C148.218 301.558 148.081 301.353 147.907 301.181C147.734 301.008 147.529 300.872 147.303 300.779C147.076 300.686 146.834 300.638 146.589 300.639H125.077C124.832 300.638 124.59 300.686 124.364 300.779C124.138 300.872 123.932 301.008 123.759 301.181C123.586 301.353 123.448 301.558 123.354 301.784C123.261 302.009 123.212 302.251 123.212 302.495C123.212 302.739 123.261 302.981 123.354 303.207C123.448 303.432 123.586 303.637 123.759 303.81C123.932 303.982 124.138 304.119 124.364 304.212C124.59 304.305 124.832 304.352 125.077 304.351H127.733C127.488 304.351 127.246 304.399 127.02 304.492C126.794 304.585 126.589 304.721 126.416 304.894C126.243 305.066 126.105 305.271 126.012 305.496C125.918 305.722 125.87 305.963 125.87 306.208C125.87 306.452 125.918 306.693 126.012 306.919C126.105 307.144 126.243 307.349 126.416 307.521C126.589 307.694 126.794 307.83 127.02 307.923C127.246 308.017 127.488 308.064 127.733 308.064H124.014C123.522 308.065 123.051 308.261 122.703 308.609C122.356 308.957 122.161 309.428 122.161 309.92C122.161 310.411 122.356 310.882 122.703 311.23C123.051 311.578 123.522 311.775 124.014 311.776H145.527C146.019 311.775 146.491 311.578 146.838 311.23C147.186 310.882 147.381 310.411 147.381 309.92C147.381 309.428 147.186 308.957 146.838 308.609C146.491 308.261 146.019 308.065 145.527 308.064H149.245C149.738 308.063 150.21 307.867 150.557 307.519C150.905 307.171 151.101 306.699 151.101 306.208C151.101 305.716 150.905 305.244 150.557 304.896C150.21 304.548 149.738 304.352 149.245 304.351V304.351Z" fill="#DEE3F3"/>
<path opacity="0.5" d="M363.364 282.806H361.343C361.718 282.806 362.078 282.657 362.343 282.392C362.609 282.127 362.758 281.768 362.758 281.393C362.758 281.018 362.609 280.659 362.343 280.394C362.078 280.129 361.718 279.98 361.343 279.98H344.97C344.595 279.98 344.235 280.129 343.97 280.394C343.705 280.659 343.556 281.018 343.556 281.393C343.556 281.768 343.705 282.127 343.97 282.392C344.235 282.657 344.595 282.806 344.97 282.806H346.992C346.616 282.806 346.257 282.955 345.991 283.219C345.726 283.484 345.577 283.844 345.577 284.218C345.577 284.593 345.726 284.952 345.991 285.217C346.257 285.482 346.616 285.631 346.992 285.631H344.162C343.976 285.631 343.792 285.668 343.62 285.739C343.449 285.81 343.293 285.914 343.161 286.045C343.03 286.176 342.926 286.332 342.855 286.503C342.784 286.674 342.747 286.858 342.747 287.044C342.747 287.229 342.784 287.413 342.855 287.584C342.926 287.756 343.03 287.911 343.161 288.043C343.293 288.174 343.449 288.278 343.62 288.349C343.792 288.42 343.976 288.456 344.162 288.456H360.534C360.72 288.456 360.904 288.42 361.076 288.349C361.247 288.278 361.403 288.174 361.535 288.043C361.666 287.911 361.77 287.756 361.842 287.584C361.913 287.413 361.949 287.229 361.949 287.044C361.949 286.858 361.913 286.674 361.842 286.503C361.77 286.332 361.666 286.176 361.535 286.045C361.403 285.914 361.247 285.81 361.076 285.739C360.904 285.668 360.72 285.631 360.534 285.631H363.364C363.739 285.631 364.099 285.482 364.365 285.217C364.63 284.952 364.779 284.593 364.779 284.218C364.779 283.844 364.63 283.484 364.365 283.219C364.099 282.955 363.739 282.806 363.364 282.806H363.364Z" fill="#DEE3F3"/>
<path opacity="0.5" d="M200.196 278.146H197.54C197.784 278.147 198.027 278.099 198.253 278.006C198.479 277.913 198.685 277.777 198.858 277.604C199.031 277.432 199.168 277.227 199.262 277.002C199.356 276.776 199.404 276.534 199.404 276.29C199.404 276.046 199.356 275.804 199.262 275.578C199.168 275.353 199.031 275.148 198.858 274.976C198.685 274.803 198.479 274.667 198.253 274.574C198.027 274.481 197.784 274.433 197.54 274.434H176.027C175.783 274.433 175.54 274.481 175.314 274.574C175.088 274.667 174.882 274.803 174.709 274.976C174.536 275.148 174.398 275.353 174.305 275.578C174.211 275.804 174.163 276.046 174.163 276.29C174.163 276.534 174.211 276.776 174.305 277.002C174.398 277.227 174.536 277.432 174.709 277.604C174.882 277.777 175.088 277.913 175.314 278.006C175.54 278.099 175.783 278.147 176.027 278.146H178.683C178.439 278.146 178.196 278.193 177.97 278.286C177.744 278.379 177.539 278.516 177.366 278.688C177.193 278.861 177.056 279.066 176.962 279.291C176.868 279.517 176.82 279.758 176.82 280.002C176.82 280.246 176.868 280.488 176.962 280.714C177.056 280.939 177.193 281.144 177.366 281.316C177.539 281.489 177.744 281.625 177.97 281.718C178.196 281.811 178.439 281.859 178.683 281.858H174.965C174.473 281.86 174.001 282.056 173.654 282.404C173.306 282.752 173.111 283.223 173.111 283.715C173.111 284.206 173.306 284.677 173.654 285.025C174.001 285.373 174.473 285.569 174.965 285.571H196.477C196.97 285.569 197.441 285.373 197.788 285.025C198.136 284.677 198.331 284.206 198.331 283.715C198.331 283.223 198.136 282.752 197.788 282.404C197.441 282.056 196.97 281.86 196.477 281.858H200.196C200.688 281.857 201.16 281.661 201.508 281.313C201.856 280.965 202.051 280.494 202.051 280.002C202.051 279.511 201.856 279.039 201.508 278.691C201.16 278.343 200.688 278.147 200.196 278.146V278.146Z" fill="#DEE3F3"/>
<path d="M282.413 375.024H202.873C200.108 375.024 197.867 377.261 197.867 380.022V411.491C197.867 414.251 200.108 416.489 202.873 416.489H282.413C285.178 416.489 287.419 414.251 287.419 411.491V380.022C287.419 377.261 285.178 375.024 282.413 375.024Z" fill="white"/>
<path opacity="0.1" d="M280.281 410.125H205.005V410.902H280.281V410.125Z" fill="black"/>
<path opacity="0.3" d="M280.281 381.503H205.005V410.01H280.281V381.503Z" fill="black"/>
<path opacity="0.1" d="M222.526 406.718C228.26 406.718 232.909 402.076 232.909 396.351C232.909 390.626 228.26 385.985 222.526 385.985C216.792 385.985 212.143 390.626 212.143 396.351C212.143 402.076 216.792 406.718 222.526 406.718Z" fill="black"/>
<path opacity="0.1" d="M262.76 406.718C268.494 406.718 273.143 402.076 273.143 396.351C273.143 390.626 268.494 385.985 262.76 385.985C257.025 385.985 252.377 390.626 252.377 396.351C252.377 402.076 257.025 406.718 262.76 406.718Z" fill="black"/>
<path d="M250.429 416.488H234.855V425.561H250.429V416.488Z" fill="white"/>
<path d="M275.089 422.968H210.196V474.8H275.089V422.968Z" fill="white"/>
<path d="M276.387 485.166H208.898V491.645H276.387V485.166Z" fill="white"/>
<path d="M219.93 507.195V514.969V526.632V533.11V536.998H231.611V533.11V526.632V514.969V507.195V498.124H219.93V507.195Z" fill="white"/>
<path d="M254.973 498.124V507.195V514.969V526.632V533.11V536.998H266.653V533.11V526.632V514.969V507.195V498.124H254.973Z" fill="white"/>
<path d="M201.357 434.631V446.616C198.151 447.175 195.164 448.612 192.729 450.768C190.471 452.856 188.715 455.427 187.592 458.288C186.091 461.92 185.361 465.954 185.063 469.768C184.695 474.911 184.936 480.08 185.781 485.168H172.802C172.251 478.004 172.427 471.859 173.142 466.582C173.943 460.632 175.427 455.789 177.307 451.851C181.067 443.977 186.415 439.705 191.114 437.385C196.694 434.631 201.357 434.631 201.357 434.631Z" fill="white"/>
<path opacity="0.3" d="M231.611 498.124H219.93V507.195H231.611V498.124Z" fill="black"/>
<path opacity="0.3" d="M231.611 514.969H219.93V526.631H231.611V514.969Z" fill="black"/>
<path opacity="0.3" d="M231.611 533.11H219.93V536.998H231.611V533.11Z" fill="black"/>
<path opacity="0.3" d="M266.653 498.124H254.973V507.195H266.653V498.124Z" fill="black"/>
<path opacity="0.3" d="M266.653 514.969H254.973V526.631H266.653V514.969Z" fill="black"/>
<path opacity="0.3" d="M266.653 533.11H254.973V536.998H266.653V533.11Z" fill="black"/>
<path opacity="0.3" d="M201.357 434.631V446.616C198.151 447.175 195.164 448.612 192.729 450.768L191.114 437.385C196.694 434.631 201.357 434.631 201.357 434.631Z" fill="black"/>
<path opacity="0.3" d="M187.592 458.288C186.091 461.92 185.361 465.954 185.063 469.768L173.142 466.582C173.943 460.632 175.427 455.789 177.307 451.851L187.592 458.288Z" fill="black"/>
<path d="M283.928 434.631V446.616C287.135 447.175 290.122 448.612 292.557 450.768C294.815 452.856 296.571 455.427 297.694 458.288C299.195 461.92 299.925 465.954 300.223 469.768C300.59 474.911 300.349 480.08 299.505 485.168H312.483C313.035 478.004 312.859 471.859 312.144 466.582C311.342 460.632 309.859 455.789 307.979 451.851C304.218 443.977 298.87 439.705 294.172 437.385C288.591 434.631 283.928 434.631 283.928 434.631Z" fill="white"/>
<path opacity="0.3" d="M283.928 434.631V446.616C287.135 447.175 290.122 448.612 292.557 450.768L294.172 437.385C288.591 434.631 283.928 434.631 283.928 434.631Z" fill="black"/>
<path opacity="0.3" d="M297.693 458.288C299.195 461.92 299.925 465.954 300.223 469.768L312.144 466.582C311.342 460.632 309.859 455.789 307.979 451.851L297.693 458.288Z" fill="black"/>
<path opacity="0.1" d="M250.429 416.488H234.855V417.562H250.429V416.488Z" fill="black"/>
<path opacity="0.1" d="M276.243 432.203V453.904C275.466 453.067 275.035 451.968 275.036 450.828V435.276C275.035 434.136 275.466 433.039 276.243 432.203V432.203Z" fill="black"/>
<path opacity="0.1" d="M210.427 433.634V449.879C210.349 450.906 209.922 451.876 209.217 452.627V430.885C209.922 431.637 210.349 432.607 210.427 433.634V433.634Z" fill="black"/>
<path opacity="0.1" d="M271.845 474.801H213.442V475.568H271.845V474.801Z" fill="black"/>
<path opacity="0.1" d="M240.695 491.646H212.143V492.241H240.695V491.646Z" fill="black"/>
<path opacity="0.1" d="M271.845 491.646H243.293V492.241H271.845V491.646Z" fill="black"/>
<path d="M219.797 336.65H215.328V375.024H219.797V336.65Z" fill="white"/>
<path d="M271.044 336.65H266.574V375.024H271.044V336.65Z" fill="white"/>
<path opacity="0.1" d="M217.413 342.005C220.211 342.005 222.479 339.741 222.479 336.948C222.479 334.155 220.211 331.891 217.413 331.891C214.616 331.891 212.348 334.155 212.348 336.948C212.348 339.741 214.616 342.005 217.413 342.005Z" fill="black"/>
<path d="M217.413 341.707C220.211 341.707 222.479 339.443 222.479 336.65C222.479 333.857 220.211 331.593 217.413 331.593C214.616 331.593 212.348 333.857 212.348 336.65C212.348 339.443 214.616 341.707 217.413 341.707Z" fill="white"/>
<path opacity="0.1" d="M268.958 342.005C271.755 342.005 274.023 339.741 274.023 336.948C274.023 334.155 271.755 331.891 268.958 331.891C266.161 331.891 263.893 334.155 263.893 336.948C263.893 339.741 266.161 342.005 268.958 342.005Z" fill="black"/>
<path d="M268.958 341.707C271.755 341.707 274.023 339.443 274.023 336.65C274.023 333.857 271.755 331.593 268.958 331.593C266.161 331.593 263.893 333.857 263.893 336.65C263.893 339.443 266.161 341.707 268.958 341.707Z" fill="white"/>
<path d="M110.486 454.206C110.486 454.206 125.308 483.255 113.23 499.149C101.153 515.043 114.328 558.342 114.328 558.342" stroke="#FC6681" stroke-width="2" stroke-miterlimit="10"/>
<path d="M114.877 445.163C114.877 450.763 110.76 455.302 110.76 455.302C110.76 455.302 106.643 450.763 106.643 445.163C106.643 439.563 110.76 435.023 110.76 435.023C110.76 435.023 114.877 439.563 114.877 445.163Z" fill="#FC6681"/>
<path d="M118.171 454.206C118.171 454.206 103.349 483.255 115.426 499.149C127.503 515.043 114.328 558.342 114.328 558.342" stroke="#FFD037" stroke-width="2" stroke-miterlimit="10"/>
<path d="M113.779 445.163C113.779 450.763 117.897 455.302 117.897 455.302C117.897 455.302 122.014 450.763 122.014 445.163C122.014 439.563 117.897 435.023 117.897 435.023C117.897 435.023 113.779 439.563 113.779 445.163Z" fill="#FFD037"/>
<path d="M124.21 454.206C124.21 454.206 139.032 483.255 126.954 499.149C114.877 515.043 128.052 558.342 128.052 558.342" stroke="#FC6681" stroke-width="2" stroke-miterlimit="10"/>
<path d="M128.601 445.163C128.601 450.763 124.484 455.302 124.484 455.302C124.484 455.302 120.367 450.763 120.367 445.163C120.367 439.563 124.484 435.023 124.484 435.023C124.484 435.023 128.601 439.563 128.601 445.163Z" fill="#FC6681"/>
<path d="M126.293 468.437C122.405 472.473 116.285 472.895 116.285 472.895C116.285 472.895 116.47 466.773 120.359 462.738C124.248 458.702 130.367 458.281 130.367 458.281C130.367 458.281 130.182 464.402 126.293 468.437Z" fill="#FC6681"/>
<path d="M126.679 488.477C122.791 492.512 116.671 492.934 116.671 492.934C116.671 492.934 116.856 486.812 120.745 482.777C124.634 478.741 130.753 478.32 130.753 478.32C130.753 478.32 130.568 484.441 126.679 488.477Z" fill="#FC6681"/>
<path d="M105.592 499.503C109.269 503.731 109.141 509.854 109.141 509.854C109.141 509.854 103.051 509.121 99.3739 504.893C95.6968 500.664 95.8248 494.541 95.8248 494.541C95.8248 494.541 101.915 495.274 105.592 499.503Z" fill="#FC6681"/>
<path d="M109.003 456.766C113.679 459.859 115.194 465.794 115.194 465.794C115.194 465.794 109.13 466.712 104.454 463.619C99.7789 460.525 98.2633 454.591 98.2633 454.591C98.2633 454.591 104.328 453.672 109.003 456.766Z" fill="#FC6681"/>
<path d="M131.895 454.206C131.895 454.206 117.073 483.255 129.15 499.149C141.227 515.043 128.052 558.342 128.052 558.342" stroke="#FFD037" stroke-width="2" stroke-miterlimit="10"/>
<path d="M127.503 445.163C127.503 450.763 131.621 455.302 131.621 455.302C131.621 455.302 135.738 450.763 135.738 445.163C135.738 439.563 131.621 435.023 131.621 435.023C131.621 435.023 127.503 439.563 127.503 445.163Z" fill="#FFD037"/>
<path d="M128.688 468.868C124.751 472.857 124.492 478.976 124.492 478.976C124.492 478.976 130.616 478.627 134.553 474.639C138.49 470.65 138.749 464.531 138.749 464.531C138.749 464.531 132.625 464.88 128.688 468.868Z" fill="#FFD037"/>
<path d="M136.408 496.615C132.471 500.604 132.212 506.722 132.212 506.722C132.212 506.722 138.336 506.374 142.273 502.385C146.21 498.397 146.469 492.278 146.469 492.278C146.469 492.278 140.345 492.626 136.408 496.615Z" fill="#FFD037"/>
<path d="M125.05 490.517C125.05 490.517 133.973 476.476 146.495 476.174" stroke="#FFD037" stroke-width="2" stroke-miterlimit="10"/>
<path d="M118.103 482.039C118.103 482.039 109.18 467.997 96.6579 467.696" stroke="#FC6681" stroke-width="2" stroke-miterlimit="10"/>
<path d="M116.945 502.078C116.945 502.078 125.867 488.037 138.389 487.735" stroke="#FFD037" stroke-width="2" stroke-miterlimit="10"/>
<path d="M146.087 478.378C147.366 478.378 148.402 477.342 148.402 476.065C148.402 474.788 147.366 473.753 146.087 473.753C144.808 473.753 143.771 474.788 143.771 476.065C143.771 477.342 144.808 478.378 146.087 478.378Z" fill="#FFD037"/>
<path d="M96.8732 470.092C98.1522 470.092 99.1891 469.057 99.1891 467.78C99.1891 466.503 98.1522 465.468 96.8732 465.468C95.5941 465.468 94.5573 466.503 94.5573 467.78C94.5573 469.057 95.5941 470.092 96.8732 470.092Z" fill="#FC6681"/>
<path d="M123.506 506.702C123.506 506.702 114.584 492.661 102.062 492.36" stroke="#FC6681" stroke-width="2" stroke-miterlimit="10"/>
<path d="M102.277 494.756C103.556 494.756 104.593 493.721 104.593 492.444C104.593 491.167 103.556 490.131 102.277 490.131C100.998 490.131 99.9611 491.167 99.9611 492.444C99.9611 493.721 100.998 494.756 102.277 494.756Z" fill="#FC6681"/>
<path d="M138.56 490.131C139.839 490.131 140.876 489.096 140.876 487.819C140.876 486.542 139.839 485.507 138.56 485.507C137.281 485.507 136.244 486.542 136.244 487.819C136.244 489.096 137.281 490.131 138.56 490.131Z" fill="#FFD037"/>
<path d="M172.824 541.476C172.824 541.476 151.323 537.182 145.59 531.458C139.856 525.734 114.055 515.716 111.189 522.871C108.322 530.027 72.4874 554.355 96.8549 558.649C121.222 562.942 154.19 564.373 161.357 561.511C168.524 558.649 172.824 541.476 172.824 541.476Z" fill="#A8A8A8"/>
<path opacity="0.2" d="M96.8549 555.99C121.222 560.284 154.19 561.715 161.357 558.853C166.815 556.673 170.608 546.2 172.107 541.326C172.561 541.423 172.824 541.476 172.824 541.476C172.824 541.476 168.524 558.649 161.357 561.511C154.19 564.373 121.222 562.942 96.8548 558.649C89.8209 557.409 87.8094 554.499 88.5671 550.816C89.1686 553.219 91.6194 555.068 96.8549 555.99Z" fill="black"/>
<path d="M405.043 459.335C405.043 459.335 410.195 466.061 402.665 476.216C395.136 486.371 388.927 494.944 391.437 501.274C391.437 501.274 402.797 482.415 412.044 482.151C421.291 481.887 415.214 470.677 405.043 459.335Z" fill="#FC6681"/>
<path opacity="0.1" d="M405.043 459.335C405.492 459.985 405.847 460.695 406.096 461.444C415.117 472.027 419.924 481.903 411.251 482.151C403.174 482.381 393.483 496.803 391.162 500.445C391.238 500.726 391.33 501.003 391.437 501.274C391.437 501.274 402.797 482.415 412.044 482.151C421.291 481.887 415.214 470.677 405.043 459.335Z" fill="black"/>
<path d="M414.62 467.907C414.62 470.275 414.354 472.194 414.025 472.194C413.697 472.194 413.431 470.275 413.431 467.907C413.431 465.54 413.763 466.654 414.092 466.654C414.42 466.654 414.62 465.54 414.62 467.907Z" fill="#FFD037"/>
<path d="M417.906 470.733C415.824 471.866 414.009 472.551 413.852 472.264C413.695 471.976 415.255 470.824 417.337 469.691C419.419 468.558 418.598 469.383 418.755 469.671C418.912 469.958 419.988 469.601 417.906 470.733Z" fill="#FFD037"/>
<path d="M377.831 459.335C377.831 459.335 372.68 466.061 380.209 476.216C387.739 486.371 393.947 494.944 391.437 501.274C391.437 501.274 380.077 482.415 370.83 482.151C361.584 481.887 367.66 470.677 377.831 459.335Z" fill="#FC6681"/>
<path opacity="0.1" d="M377.831 459.335C377.382 459.985 377.028 460.695 376.779 461.444C367.757 472.027 362.951 481.903 371.623 482.151C379.701 482.381 389.391 496.803 391.712 500.445C391.636 500.726 391.544 501.003 391.437 501.274C391.437 501.274 380.077 482.415 370.83 482.151C361.584 481.887 367.66 470.677 377.831 459.335Z" fill="black"/>
<path d="M368.255 467.907C368.255 470.275 368.521 472.194 368.849 472.194C369.177 472.194 369.443 470.275 369.443 467.907C369.443 465.54 369.111 466.654 368.783 466.654C368.455 466.654 368.255 465.54 368.255 467.907Z" fill="#FFD037"/>
<path d="M364.968 470.733C367.05 471.866 368.865 472.551 369.022 472.264C369.179 471.976 367.619 470.824 365.537 469.691C363.455 468.558 364.276 469.383 364.119 469.671C363.962 469.958 362.886 469.601 364.968 470.733Z" fill="#FFD037"/>
<path d="M369.895 500.394C369.895 500.394 384.299 499.951 388.639 496.865C392.98 493.779 410.796 490.094 411.873 495.043C412.949 499.993 433.518 519.66 417.257 519.791C400.995 519.922 379.472 517.262 375.14 514.627C370.807 511.992 369.895 500.394 369.895 500.394Z" fill="#A8A8A8"/>
<path opacity="0.2" d="M417.547 518.068C401.286 518.199 379.763 515.539 375.43 512.904C372.131 510.897 370.816 503.697 370.376 500.375C370.071 500.388 369.895 500.394 369.895 500.394C369.895 500.394 370.807 511.992 375.14 514.627C379.472 517.262 400.995 519.922 417.257 519.791C421.951 519.753 423.572 518.085 423.483 515.616C422.831 517.108 421.041 518.039 417.547 518.068Z" fill="black"/>
</svg>
