<svg width="500" height="700" viewBox="0 0 500 700" fill="none" xmlns="http://www.w3.org/2000/svg">
<rect width="500" height="700" fill="#7E244F"/>
<g clip-path="url(#clip0)">
<path opacity="0.1" d="M165.047 322.736H135.267C133.549 322.736 132.156 324.009 132.156 325.579V329.841C132.156 331.411 133.549 332.683 135.267 332.683H165.047C166.765 332.683 168.157 331.411 168.157 329.841V325.579C168.157 324.009 166.765 322.736 165.047 322.736Z" fill="white"/>
<path opacity="0.1" d="M202.722 332.683H172.942C171.224 332.683 169.832 333.956 169.832 335.526V339.788C169.832 341.358 171.224 342.631 172.942 342.631H202.722C204.44 342.631 205.832 341.358 205.832 339.788V335.526C205.832 333.956 204.44 332.683 202.722 332.683Z" fill="white"/>
<path opacity="0.1" d="M240.397 342.631H210.617C208.899 342.631 207.507 343.903 207.507 345.473V349.735C207.507 351.305 208.899 352.578 210.617 352.578H240.397C242.115 352.578 243.508 351.305 243.508 349.735V345.473C243.508 343.903 242.115 342.631 240.397 342.631Z" fill="white"/>
<path opacity="0.1" d="M165.047 307.815H135.267C133.549 307.815 132.156 309.088 132.156 310.658V314.92C132.156 316.49 133.549 317.763 135.267 317.763H165.047C166.765 317.763 168.157 316.49 168.157 314.92V310.658C168.157 309.088 166.765 307.815 165.047 307.815Z" fill="white"/>
<path opacity="0.1" d="M202.722 317.763H172.942C171.224 317.763 169.832 319.035 169.832 320.605V324.867C169.832 326.437 171.224 327.71 172.942 327.71H202.722C204.44 327.71 205.832 326.437 205.832 324.867V320.605C205.832 319.035 204.44 317.763 202.722 317.763Z" fill="white"/>
<path opacity="0.1" d="M240.397 327.71H210.617C208.899 327.71 207.507 328.982 207.507 330.552V334.814C207.507 336.384 208.899 337.657 210.617 337.657H240.397C242.115 337.657 243.508 336.384 243.508 334.814V330.552C243.508 328.982 242.115 327.71 240.397 327.71Z" fill="white"/>
<path opacity="0.1" d="M282.259 322.736H252.478C250.761 322.736 249.368 324.009 249.368 325.579V329.841C249.368 331.411 250.761 332.683 252.478 332.683H282.259C283.976 332.683 285.369 331.411 285.369 329.841V325.579C285.369 324.009 283.976 322.736 282.259 322.736Z" fill="white"/>
<path opacity="0.1" d="M319.934 332.683H290.154C288.436 332.683 287.043 333.956 287.043 335.526V339.788C287.043 341.358 288.436 342.631 290.154 342.631H319.934C321.652 342.631 323.044 341.358 323.044 339.788V335.526C323.044 333.956 321.652 332.683 319.934 332.683Z" fill="white"/>
<path opacity="0.1" d="M357.609 342.631H327.829C326.111 342.631 324.719 343.903 324.719 345.473V349.735C324.719 351.305 326.111 352.578 327.829 352.578H357.609C359.327 352.578 360.719 351.305 360.719 349.735V345.473C360.719 343.903 359.327 342.631 357.609 342.631Z" fill="white"/>
<path opacity="0.1" d="M282.259 307.815H252.478C250.761 307.815 249.368 309.088 249.368 310.658V314.92C249.368 316.49 250.761 317.763 252.478 317.763H282.259C283.976 317.763 285.369 316.49 285.369 314.92V310.658C285.369 309.088 283.976 307.815 282.259 307.815Z" fill="white"/>
<path opacity="0.1" d="M319.934 317.763H290.154C288.436 317.763 287.043 319.035 287.043 320.605V324.867C287.043 326.437 288.436 327.71 290.154 327.71H319.934C321.652 327.71 323.044 326.437 323.044 324.867V320.605C323.044 319.035 321.652 317.763 319.934 317.763Z" fill="white"/>
<path opacity="0.1" d="M357.609 327.71H327.829C326.111 327.71 324.719 328.982 324.719 330.552V334.814C324.719 336.384 326.111 337.657 327.829 337.657H357.609C359.327 337.657 360.719 336.384 360.719 334.814V330.552C360.719 328.982 359.327 327.71 357.609 327.71Z" fill="white"/>
<path opacity="0.1" d="M165.047 287.921H135.267C133.549 287.921 132.156 289.194 132.156 290.763V295.025C132.156 296.595 133.549 297.868 135.267 297.868H165.047C166.765 297.868 168.157 296.595 168.157 295.025V290.763C168.157 289.194 166.765 287.921 165.047 287.921Z" fill="white"/>
<path opacity="0.1" d="M202.722 297.868H172.942C171.224 297.868 169.832 299.141 169.832 300.711V304.973C169.832 306.543 171.224 307.815 172.942 307.815H202.722C204.44 307.815 205.832 306.543 205.832 304.973V300.711C205.832 299.141 204.44 297.868 202.722 297.868Z" fill="white"/>
<path opacity="0.1" d="M240.397 307.815H210.617C208.899 307.815 207.507 309.088 207.507 310.658V314.92C207.507 316.49 208.899 317.763 210.617 317.763H240.397C242.115 317.763 243.508 316.49 243.508 314.92V310.658C243.508 309.088 242.115 307.815 240.397 307.815Z" fill="white"/>
<path opacity="0.1" d="M165.047 273H135.267C133.549 273 132.156 274.273 132.156 275.843V280.105C132.156 281.675 133.549 282.947 135.267 282.947H165.047C166.765 282.947 168.157 281.675 168.157 280.105V275.843C168.157 274.273 166.765 273 165.047 273Z" fill="white"/>
<path opacity="0.1" d="M202.722 282.947H172.942C171.224 282.947 169.832 284.22 169.832 285.79V290.052C169.832 291.622 171.224 292.894 172.942 292.894H202.722C204.44 292.894 205.832 291.622 205.832 290.052V285.79C205.832 284.22 204.44 282.947 202.722 282.947Z" fill="white"/>
<path opacity="0.1" d="M240.397 292.894H210.617C208.899 292.894 207.507 294.167 207.507 295.737V299.999C207.507 301.569 208.899 302.842 210.617 302.842H240.397C242.115 302.842 243.508 301.569 243.508 299.999V295.737C243.508 294.167 242.115 292.894 240.397 292.894Z" fill="white"/>
<path opacity="0.1" d="M282.259 287.921H252.478C250.761 287.921 249.368 289.194 249.368 290.763V295.025C249.368 296.595 250.761 297.868 252.478 297.868H282.259C283.976 297.868 285.369 296.595 285.369 295.025V290.763C285.369 289.194 283.976 287.921 282.259 287.921Z" fill="white"/>
<path opacity="0.1" d="M319.934 297.868H290.154C288.436 297.868 287.043 299.141 287.043 300.711V304.973C287.043 306.543 288.436 307.815 290.154 307.815H319.934C321.652 307.815 323.044 306.543 323.044 304.973V300.711C323.044 299.141 321.652 297.868 319.934 297.868Z" fill="white"/>
<path opacity="0.1" d="M357.609 307.815H327.829C326.111 307.815 324.719 309.088 324.719 310.658V314.92C324.719 316.49 326.111 317.763 327.829 317.763H357.609C359.327 317.763 360.719 316.49 360.719 314.92V310.658C360.719 309.088 359.327 307.815 357.609 307.815Z" fill="white"/>
<path opacity="0.1" d="M282.259 273H252.478C250.761 273 249.368 274.273 249.368 275.843V280.105C249.368 281.675 250.761 282.947 252.478 282.947H282.259C283.976 282.947 285.369 281.675 285.369 280.105V275.843C285.369 274.273 283.976 273 282.259 273Z" fill="white"/>
<path opacity="0.1" d="M319.934 282.947H290.154C288.436 282.947 287.043 284.22 287.043 285.79V290.052C287.043 291.622 288.436 292.894 290.154 292.894H319.934C321.652 292.894 323.044 291.622 323.044 290.052V285.79C323.044 284.22 321.652 282.947 319.934 282.947Z" fill="white"/>
<path opacity="0.1" d="M357.609 292.894H327.829C326.111 292.894 324.719 294.167 324.719 295.737V299.999C324.719 301.569 326.111 302.842 327.829 302.842H357.609C359.327 302.842 360.719 301.569 360.719 299.999V295.737C360.719 294.167 359.327 292.894 357.609 292.894Z" fill="white"/>
<path opacity="0.1" d="M165.047 499.873H135.267C133.549 499.873 132.156 501.146 132.156 502.716V506.978C132.156 508.548 133.549 509.821 135.267 509.821H165.047C166.765 509.821 168.157 508.548 168.157 506.978V502.716C168.157 501.146 166.765 499.873 165.047 499.873Z" fill="white"/>
<path opacity="0.1" d="M202.722 509.821H172.942C171.224 509.821 169.832 511.093 169.832 512.663V516.925C169.832 518.495 171.224 519.768 172.942 519.768H202.722C204.44 519.768 205.832 518.495 205.832 516.925V512.663C205.832 511.093 204.44 509.821 202.722 509.821Z" fill="white"/>
<path opacity="0.1" d="M240.397 519.768H210.617C208.899 519.768 207.507 521.04 207.507 522.61V526.872C207.507 528.442 208.899 529.715 210.617 529.715H240.397C242.115 529.715 243.508 528.442 243.508 526.872V522.61C243.508 521.04 242.115 519.768 240.397 519.768Z" fill="white"/>
<path opacity="0.1" d="M165.047 484.953H135.267C133.549 484.953 132.156 486.225 132.156 487.795V492.057C132.156 493.627 133.549 494.9 135.267 494.9H165.047C166.765 494.9 168.157 493.627 168.157 492.057V487.795C168.157 486.225 166.765 484.953 165.047 484.953Z" fill="white"/>
<path opacity="0.1" d="M202.722 494.9H172.942C171.224 494.9 169.832 496.172 169.832 497.742V502.004C169.832 503.574 171.224 504.847 172.942 504.847H202.722C204.44 504.847 205.832 503.574 205.832 502.004V497.742C205.832 496.172 204.44 494.9 202.722 494.9Z" fill="white"/>
<path opacity="0.1" d="M240.397 504.847H210.617C208.899 504.847 207.507 506.12 207.507 507.69V511.952C207.507 513.522 208.899 514.794 210.617 514.794H240.397C242.115 514.794 243.508 513.522 243.508 511.952V507.69C243.508 506.12 242.115 504.847 240.397 504.847Z" fill="white"/>
<path opacity="0.1" d="M282.259 499.873H252.478C250.761 499.873 249.368 501.146 249.368 502.716V506.978C249.368 508.548 250.761 509.821 252.478 509.821H282.259C283.976 509.821 285.369 508.548 285.369 506.978V502.716C285.369 501.146 283.976 499.873 282.259 499.873Z" fill="white"/>
<path opacity="0.1" d="M319.934 509.821H290.154C288.436 509.821 287.043 511.093 287.043 512.663V516.925C287.043 518.495 288.436 519.768 290.154 519.768H319.934C321.652 519.768 323.044 518.495 323.044 516.925V512.663C323.044 511.093 321.652 509.821 319.934 509.821Z" fill="white"/>
<path opacity="0.1" d="M357.609 519.768H327.829C326.111 519.768 324.719 521.04 324.719 522.61V526.872C324.719 528.442 326.111 529.715 327.829 529.715H357.609C359.327 529.715 360.719 528.442 360.719 526.872V522.61C360.719 521.04 359.327 519.768 357.609 519.768Z" fill="white"/>
<path opacity="0.1" d="M282.259 484.953H252.478C250.761 484.953 249.368 486.225 249.368 487.795V492.057C249.368 493.627 250.761 494.9 252.478 494.9H282.259C283.976 494.9 285.369 493.627 285.369 492.057V487.795C285.369 486.225 283.976 484.953 282.259 484.953Z" fill="white"/>
<path opacity="0.1" d="M319.934 494.9H290.154C288.436 494.9 287.043 496.172 287.043 497.742V502.004C287.043 503.574 288.436 504.847 290.154 504.847H319.934C321.652 504.847 323.044 503.574 323.044 502.004V497.742C323.044 496.172 321.652 494.9 319.934 494.9Z" fill="white"/>
<path opacity="0.1" d="M357.609 504.847H327.829C326.111 504.847 324.719 506.12 324.719 507.69V511.952C324.719 513.522 326.111 514.794 327.829 514.794H357.609C359.327 514.794 360.719 513.522 360.719 511.952V507.69C360.719 506.12 359.327 504.847 357.609 504.847Z" fill="white"/>
<path opacity="0.1" d="M165.047 465.058H135.267C133.549 465.058 132.156 466.331 132.156 467.901V472.163C132.156 473.733 133.549 475.005 135.267 475.005H165.047C166.765 475.005 168.157 473.733 168.157 472.163V467.901C168.157 466.331 166.765 465.058 165.047 465.058Z" fill="white"/>
<path opacity="0.1" d="M202.722 475.005H172.942C171.224 475.005 169.832 476.278 169.832 477.848V482.11C169.832 483.68 171.224 484.953 172.942 484.953H202.722C204.44 484.953 205.832 483.68 205.832 482.11V477.848C205.832 476.278 204.44 475.005 202.722 475.005Z" fill="white"/>
<path opacity="0.1" d="M240.397 484.953H210.617C208.899 484.953 207.507 486.225 207.507 487.795V492.057C207.507 493.627 208.899 494.9 210.617 494.9H240.397C242.115 494.9 243.508 493.627 243.508 492.057V487.795C243.508 486.225 242.115 484.953 240.397 484.953Z" fill="white"/>
<path opacity="0.1" d="M165.047 450.137H135.267C133.549 450.137 132.156 451.41 132.156 452.98V457.242C132.156 458.812 133.549 460.084 135.267 460.084H165.047C166.765 460.084 168.157 458.812 168.157 457.242V452.98C168.157 451.41 166.765 450.137 165.047 450.137Z" fill="white"/>
<path opacity="0.1" d="M202.722 460.084H172.942C171.224 460.084 169.832 461.357 169.832 462.927V467.189C169.832 468.759 171.224 470.032 172.942 470.032H202.722C204.44 470.032 205.832 468.759 205.832 467.189V462.927C205.832 461.357 204.44 460.084 202.722 460.084Z" fill="white"/>
<path opacity="0.1" d="M240.397 470.032H210.617C208.899 470.032 207.507 471.304 207.507 472.874V477.136C207.507 478.706 208.899 479.979 210.617 479.979H240.397C242.115 479.979 243.508 478.706 243.508 477.136V472.874C243.508 471.304 242.115 470.032 240.397 470.032Z" fill="white"/>
<path opacity="0.1" d="M282.259 465.058H252.478C250.761 465.058 249.368 466.331 249.368 467.901V472.163C249.368 473.733 250.761 475.005 252.478 475.005H282.259C283.976 475.005 285.369 473.733 285.369 472.163V467.901C285.369 466.331 283.976 465.058 282.259 465.058Z" fill="white"/>
<path opacity="0.1" d="M319.934 475.005H290.154C288.436 475.005 287.043 476.278 287.043 477.848V482.11C287.043 483.68 288.436 484.953 290.154 484.953H319.934C321.652 484.953 323.044 483.68 323.044 482.11V477.848C323.044 476.278 321.652 475.005 319.934 475.005Z" fill="white"/>
<path opacity="0.1" d="M357.609 484.953H327.829C326.111 484.953 324.719 486.225 324.719 487.795V492.057C324.719 493.627 326.111 494.9 327.829 494.9H357.609C359.327 494.9 360.719 493.627 360.719 492.057V487.795C360.719 486.225 359.327 484.953 357.609 484.953Z" fill="white"/>
<path opacity="0.1" d="M282.259 450.137H252.478C250.761 450.137 249.368 451.41 249.368 452.98V457.242C249.368 458.812 250.761 460.084 252.478 460.084H282.259C283.976 460.084 285.369 458.812 285.369 457.242V452.98C285.369 451.41 283.976 450.137 282.259 450.137Z" fill="white"/>
<path opacity="0.1" d="M319.934 460.084H290.154C288.436 460.084 287.043 461.357 287.043 462.927V467.189C287.043 468.759 288.436 470.032 290.154 470.032H319.934C321.652 470.032 323.044 468.759 323.044 467.189V462.927C323.044 461.357 321.652 460.084 319.934 460.084Z" fill="white"/>
<path opacity="0.1" d="M357.609 470.032H327.829C326.111 470.032 324.719 471.304 324.719 472.874V477.136C324.719 478.706 326.111 479.979 327.829 479.979H357.609C359.327 479.979 360.719 478.706 360.719 477.136V472.874C360.719 471.304 359.327 470.032 357.609 470.032Z" fill="white"/>
<path opacity="0.1" d="M252.926 563C354.305 563 436.488 556.834 436.488 549.227C436.488 541.62 354.305 535.454 252.926 535.454C151.548 535.454 69.3646 541.62 69.3646 549.227C69.3646 556.834 151.548 563 252.926 563Z" fill="white"/>
<path d="M86.4356 344.467C103.745 351.323 113.691 365.509 113.691 365.509C113.691 365.509 95.5697 368.57 78.2559 361.718C60.9421 354.866 51 340.676 51 340.676C51 340.676 69.1218 337.611 86.4356 344.467Z" fill="white"/>
<path d="M139.558 318.145C144.912 310.111 154.029 306.285 154.029 306.285C154.029 306.285 154.448 315.444 149.11 323.455C143.773 331.467 134.635 335.289 134.635 335.289C134.635 335.289 134.199 326.134 139.558 318.145Z" fill="white"/>
<path d="M100.2 326.742C104.03 339.237 114.587 347.463 114.587 347.463C114.587 347.463 118.937 335.423 115.106 322.924C111.276 310.425 100.714 302.203 100.714 302.203C100.714 302.203 96.3651 314.243 100.2 326.742Z" fill="#46455B"/>
<path d="M402.911 326.179H103.779C102.112 326.179 100.761 327.414 100.761 328.938V463.065C100.761 464.588 102.112 465.823 103.779 465.823H402.911C404.578 465.823 405.929 464.588 405.929 463.065V328.938C405.929 327.414 404.578 326.179 402.911 326.179Z" fill="#312F41"/>
<path opacity="0.1" d="M100.761 457.406H405.929V463.065C405.929 463.796 405.611 464.498 405.045 465.015C404.479 465.533 403.712 465.823 402.911 465.823H103.779C102.978 465.823 102.211 465.533 101.645 465.015C101.079 464.498 100.761 463.796 100.761 463.065V457.406Z" fill="black"/>
<path d="M152.041 447.077H131.529C130.951 447.077 130.482 447.505 130.482 448.033V456.45C130.482 456.978 130.951 457.406 131.529 457.406H152.041C152.619 457.406 153.087 456.978 153.087 456.45V448.033C153.087 447.505 152.619 447.077 152.041 447.077Z" fill="white"/>
<path d="M174.018 455.876H160.204C159.741 455.876 159.366 456.219 159.366 456.641C159.366 457.064 159.741 457.406 160.204 457.406H174.018C174.48 457.406 174.855 457.064 174.855 456.641C174.855 456.219 174.48 455.876 174.018 455.876Z" fill="white"/>
<path d="M145.615 353.488C156.662 355.352 167.931 353.488 178.932 352.226L212.367 348.4C213.719 348.243 215.687 347.505 216.482 349.016C216.93 349.861 216.628 351.694 216.662 352.666C216.75 355.344 216.741 358.022 216.662 360.7C216.511 365.819 216.101 370.927 215.578 376.023C214.56 385.997 213.12 395.917 212.4 405.929C212.032 411.025 211.848 416.137 212.011 421.233C212.049 422.449 212.103 423.666 212.183 424.879C212.271 426.237 212.936 428.253 211.316 429.16C210.391 429.68 208.57 429.654 207.511 429.807C205.837 430.048 204.162 430.239 202.454 430.396C191.198 431.425 179.795 430.996 168.496 430.935L134.379 430.775L126.057 430.732C125.304 430.732 122.587 431.146 122.122 430.327C121.926 429.979 122.449 428.349 122.541 427.913C122.669 427.194 122.809 426.476 122.96 425.759C123.931 420.728 125.078 415.727 126.233 410.731C128.715 400.018 131.256 389.253 132.278 378.311C132.784 372.82 132.45 367.281 133.069 361.802C133.358 359.258 133.701 353.58 137.406 353.354C140.546 353.163 143.777 353.354 146.925 353.354C147.092 353.354 147.251 353.294 147.369 353.186C147.487 353.079 147.553 352.933 147.553 352.781C147.553 352.628 147.487 352.482 147.369 352.375C147.251 352.267 147.092 352.207 146.925 352.207C143.953 352.207 140.977 352.134 138.005 352.188C136.029 352.222 134.656 352.651 133.714 354.311C131.307 358.573 131.554 364.258 131.478 368.91C131.298 380.048 129.427 390.947 126.991 401.84C125.764 407.322 124.441 412.785 123.223 418.272C122.65 420.892 122.101 423.521 121.599 426.157C121.365 427.412 120.18 430.178 121.222 431.329C122.265 432.481 125.471 431.861 126.907 431.869L136.895 431.922L156.034 432.022C168.4 432.087 180.808 432.404 193.169 432.072C199.072 431.911 205.309 431.689 211.057 430.4C212.769 430.017 213.593 429.298 213.66 427.63C213.761 425.043 213.3 422.377 213.242 419.779C212.823 397.551 218.537 375.632 217.951 353.397C217.914 351.885 218.537 348.075 216.729 347.16C215.917 346.747 214.862 346.973 214.008 347.065C212.375 347.237 210.747 347.447 209.114 347.623L187.912 350.041C181.134 350.806 174.361 351.633 167.571 352.337C160.384 353.102 153.125 353.557 145.962 352.337C145.171 352.203 144.832 353.309 145.627 353.442L145.615 353.488Z" fill="white"/>
<path d="M132.286 367.013L215.934 363.263C216.741 363.225 216.746 362.077 215.934 362.116L132.286 365.865C131.483 365.899 131.478 367.047 132.286 367.013Z" fill="white"/>
<path d="M158.056 357.551C157.822 357.778 157.652 358.053 157.561 358.354C157.47 358.654 157.461 358.97 157.534 359.274C157.607 359.578 157.76 359.862 157.98 360.1C158.2 360.337 158.481 360.523 158.797 360.639C159.923 361.109 161.246 360.715 162.364 360.459C164.038 360.077 165.713 359.736 167.433 359.457C171.178 358.851 174.971 358.528 178.773 358.493C180.506 358.473 182.227 358.546 183.96 358.615C185.216 358.661 186.568 358.753 187.631 358.041C188.845 357.23 189.239 355.646 188.05 354.659C186.375 353.263 182.767 354.074 180.833 354.219C173.815 354.752 166.843 355.703 159.961 357.066C159.174 357.219 159.504 358.328 160.296 358.171C164.836 357.276 169.412 356.557 174.022 356.013C176.288 355.758 178.558 355.543 180.833 355.367C181.904 355.287 182.976 355.214 184.048 355.156C184.466 355.134 184.91 355.091 185.337 355.103C186.664 355.13 186.819 354.912 186.024 356.377C185.316 357.674 185.542 357.525 184.316 357.483C183.797 357.483 183.278 357.429 182.758 357.406C181.695 357.365 180.632 357.344 179.569 357.341C177.305 357.341 175.048 357.441 172.795 357.639C170.887 357.808 168.982 358.045 167.094 358.351C165.913 358.542 164.741 358.764 163.573 359.009C163.059 359.12 162.539 359.235 162.025 359.353C161.778 359.415 161.526 359.468 161.279 359.526C160.364 359.816 159.584 359.434 158.939 358.378C159.5 357.846 158.617 357.031 158.052 357.567L158.056 357.551Z" fill="white"/>
<path d="M173.218 373.88C167.161 373.666 160.618 375.162 156.629 379.619C153.506 383.104 151.727 389.084 155.034 393.009C158.588 397.218 166.382 396.476 171.083 394.681C176.056 392.768 181.498 388.824 182.993 383.889C184.856 377.725 178.807 373.065 172.507 372.996C171.699 372.996 171.699 374.144 172.507 374.144C176.098 374.182 179.623 375.59 181.297 378.647C183.051 381.869 181.54 385.251 179.204 387.829C175.462 391.934 169.61 395.03 163.649 394.942C160.07 394.892 156.114 393.771 155.004 390.32C154.092 387.523 154.787 384.466 156.377 381.987C159.818 376.631 166.822 374.818 173.243 375.047C174.051 375.074 174.051 373.926 173.243 373.899L173.218 373.88Z" fill="white"/>
<path d="M167.203 382.381C166.945 382.294 166.666 382.267 166.394 382.305C166.121 382.342 165.864 382.442 165.645 382.594C165.426 382.747 165.253 382.948 165.142 383.178C165.031 383.409 164.985 383.661 165.009 383.912C165.135 385.404 166.935 385.825 168.287 385.737C169.455 385.645 170.82 385.251 170.409 383.915C170.334 383.679 170.204 383.46 170.027 383.274C169.851 383.088 169.633 382.939 169.388 382.837C169.013 382.701 168.607 382.655 168.207 382.703C168.053 382.703 166.633 383.177 167.236 382.607L166.248 382.488C166.358 382.587 166.442 382.707 166.494 382.84C166.546 382.972 166.565 383.114 166.55 383.254C166.552 383.354 166.582 383.451 166.638 383.537C166.693 383.624 166.772 383.695 166.867 383.745C166.962 383.794 167.07 383.821 167.179 383.821C167.289 383.822 167.396 383.796 167.492 383.747C167.635 383.692 167.793 383.675 167.947 383.697C168.1 383.72 168.244 383.781 168.362 383.874C168.48 383.967 168.567 384.088 168.614 384.224C168.66 384.36 168.665 384.504 168.626 384.642C168.592 384.775 168.611 384.914 168.678 385.035C168.746 385.157 168.858 385.252 168.995 385.305C169.132 385.358 169.286 385.365 169.428 385.325C169.57 385.285 169.692 385.201 169.773 385.086C170.192 384.397 170.698 383.028 170.07 382.309C169.652 381.823 168.844 381.968 168.341 382.251C168.031 382.452 167.743 382.678 167.479 382.928C166.973 383.338 166.642 383.529 166.83 382.745C167.144 381.318 168.634 380.181 169.995 379.611L169.074 378.965C168.591 380.623 167.728 382.168 166.541 383.498L167.613 383.904C167.583 383.379 167.73 382.858 168.036 382.412C168.342 381.966 168.79 381.617 169.321 381.413H168.706L169.032 381.903C168.911 382.626 170.121 382.936 170.242 382.205C170.401 381.26 169.748 380.032 168.538 380.495C167.094 381.046 166.345 382.557 166.374 383.904C166.374 384.363 167.086 384.719 167.45 384.313C168.781 382.835 169.753 381.115 170.301 379.267C170.33 379.157 170.323 379.042 170.282 378.936C170.241 378.83 170.167 378.737 170.069 378.668C169.971 378.599 169.853 378.558 169.73 378.55C169.607 378.542 169.484 378.566 169.375 378.62C168.121 379.139 167.062 379.982 166.328 381.046C165.817 381.811 165.177 383.005 165.696 383.885C165.781 384.026 165.896 384.15 166.033 384.25C166.171 384.35 166.329 384.424 166.499 384.467C166.668 384.511 166.845 384.524 167.02 384.505C167.195 384.485 167.364 384.435 167.517 384.355C167.904 384.146 168.257 383.888 168.567 383.59C168.722 383.464 168.894 383.246 169.099 383.208C169.283 383.093 169.275 383.158 169.07 383.41C169.067 383.807 168.941 384.194 168.706 384.528L169.853 384.968C169.956 384.61 169.944 384.233 169.818 383.882C169.692 383.531 169.457 383.221 169.142 382.989C168.828 382.757 168.446 382.614 168.044 382.576C167.642 382.538 167.236 382.607 166.876 382.775L167.822 383.273C167.842 382.786 167.675 382.308 167.349 381.922C167.3 381.848 167.233 381.784 167.153 381.737C167.073 381.689 166.983 381.659 166.889 381.647C166.794 381.636 166.698 381.644 166.608 381.671C166.517 381.698 166.434 381.743 166.366 381.804C165.729 382.412 165.608 383.464 166.407 384.026C167.006 384.443 167.299 384.026 167.956 383.931C170.187 383.667 168.886 384.585 168.099 384.616C167.747 384.65 167.391 384.627 167.048 384.547C166.174 384.276 166.12 383.928 166.885 383.502C167.634 383.782 167.956 382.672 167.22 382.397L167.203 382.381Z" fill="white"/>
<path d="M166.194 384.478C166.709 386.008 164.582 386.513 163.573 387.041C162.865 387.404 162.248 387.898 161.761 388.491C160.706 389.784 160.312 391.429 159.965 392.979C159.806 393.702 161.016 394.008 161.179 393.285C161.37 392.146 161.727 391.036 162.238 389.983C162.992 388.614 164.072 388.154 165.478 387.451C166.885 386.747 167.902 385.656 167.404 384.172C167.169 383.468 165.955 383.77 166.194 384.478V384.478Z" fill="white"/>
<path d="M168.287 383.709C167.987 383.747 167.714 383.885 167.521 384.098C167.327 384.31 167.227 384.581 167.24 384.857C167.24 385.312 167.571 385.603 167.797 385.966C168.334 386.71 168.743 387.524 169.011 388.38C169.212 389.203 169.409 390.676 168.94 391.441C168.073 392.86 166.508 392.589 165.172 392.589C163.917 392.589 162.945 392.971 162.987 391.372C163.012 390.473 163.699 389.562 164.243 388.855L163.096 388.717C163.338 389.885 163.466 391.071 163.477 392.26C163.477 392.791 164.369 393.086 164.645 392.547C165.318 391.253 165.852 389.902 166.24 388.514L165.005 388.361L165.223 391.269C165.226 391.393 165.274 391.513 165.357 391.61C165.441 391.708 165.557 391.778 165.688 391.811C165.82 391.843 165.959 391.837 166.085 391.791C166.212 391.746 166.319 391.665 166.391 391.56C166.537 391.412 166.645 391.235 166.705 391.043C166.746 390.863 166.361 389.65 166.206 390.083L167.437 390.236L167.525 387.473L166.269 387.627C166.535 388.405 166.615 389.227 166.504 390.037C166.424 390.676 167.6 390.821 167.76 390.19L168.547 386.479L167.4 386.613C167.672 387.126 167.747 387.708 167.613 388.265C167.521 389 168.777 388.992 168.869 388.265C168.976 387.504 168.842 386.73 168.484 386.035C168.42 385.939 168.327 385.862 168.217 385.814C168.106 385.765 167.983 385.747 167.861 385.762C167.74 385.777 167.625 385.823 167.532 385.896C167.439 385.969 167.371 386.065 167.337 386.173L166.546 389.884L167.78 390.037C167.906 389.125 167.81 388.199 167.5 387.324C167.458 387.193 167.366 387.079 167.24 387.004C167.114 386.929 166.963 386.898 166.814 386.916C166.666 386.934 166.529 387 166.429 387.102C166.329 387.205 166.272 387.336 166.269 387.473L166.181 390.236C166.181 390.905 167.199 391.001 167.416 390.389L167.483 390.201C167.512 390.104 167.513 390.001 167.485 389.903C167.457 389.805 167.402 389.715 167.324 389.643C166.022 388.35 165.759 390.408 165.306 390.978L166.479 391.269L166.261 388.361C166.215 387.741 165.21 387.55 165.026 388.208C164.672 389.502 164.181 390.762 163.561 391.969L164.733 392.26C164.719 390.968 164.579 389.68 164.314 388.411C164.206 387.883 163.448 387.906 163.167 388.273C162.33 389.375 160.882 391.781 161.999 393.101C162.975 394.249 166.043 393.805 167.353 393.733C169.421 393.625 170.171 392.428 170.397 390.645C170.504 389.791 170.452 388.927 170.242 388.089C170.129 387.638 168.986 384.776 168.643 384.834C169.438 384.7 169.099 383.59 168.308 383.724L168.287 383.709Z" fill="white"/>
<path d="M165.855 386.287L162.426 390.423L163.511 391.001L166.022 387.68L164.875 387.236L163.624 391.602C163.59 391.734 163.608 391.873 163.676 391.995C163.744 392.116 163.856 392.211 163.993 392.264C164.13 392.317 164.283 392.325 164.425 392.285C164.568 392.244 164.69 392.16 164.771 392.045C165.34 391.183 165.98 390.361 166.684 389.585L165.637 389.027C165.356 390.015 164.814 390.925 164.059 391.678L165.11 392.237C165.174 391.708 165.328 391.192 165.566 390.706C165.888 390.044 164.867 389.459 164.482 390.125C164.128 390.731 163.723 391.312 163.272 391.862L164.419 391.999L164.674 390.909L163.527 390.771L163.712 391.728C163.742 391.824 163.799 391.911 163.877 391.981C163.956 392.051 164.052 392.102 164.158 392.127C164.264 392.153 164.376 392.152 164.482 392.127C164.587 392.101 164.684 392.051 164.762 391.98C165.824 390.976 166.675 389.803 167.274 388.518H166.194C166.478 388.996 166.677 389.513 166.784 390.048C166.935 390.737 167.935 390.481 168.015 389.895C168.195 388.614 168.287 387.323 168.291 386.031H167.035V388.438C167.035 389.061 168.153 389.245 168.27 388.591C168.353 388.01 168.562 387.451 168.886 386.946H167.785C168.05 387.337 168.195 387.786 168.203 388.246C168.203 388.399 168.269 388.544 168.387 388.652C168.505 388.76 168.665 388.82 168.831 388.82C168.998 388.82 169.157 388.76 169.275 388.652C169.393 388.544 169.459 388.399 169.459 388.246L169.618 387.481H168.408C168.53 388.158 168.99 391.973 167.353 391.525C167.077 391.464 166.998 391.479 167.115 391.567L167.487 390.84L168.362 389.145L167.19 388.855C167.266 389.643 167.345 390.768 166.826 391.441C166.407 391.988 165.118 392.206 164.461 391.885C164.027 391.602 163.656 391.246 163.368 390.836L162.51 391.602C163.205 392.065 164.331 393.201 165.227 393.266C165.909 393.316 166.483 392.799 166.931 392.386C167.618 391.737 168.153 390.967 168.505 390.124C168.857 389.28 169.018 388.38 168.978 387.477C168.978 387.325 168.912 387.179 168.794 387.072C168.676 386.964 168.516 386.903 168.35 386.903C168.183 386.903 168.024 386.964 167.906 387.072C167.788 387.179 167.722 387.325 167.722 387.477V388.786C167.722 388.938 167.788 389.084 167.906 389.192C168.024 389.299 168.183 389.36 168.35 389.36C168.516 389.36 168.676 389.299 168.794 389.192C168.912 389.084 168.978 388.938 168.978 388.786V385.576C168.978 385.424 168.912 385.278 168.794 385.17C168.676 385.062 168.516 385.002 168.35 385.002C168.183 385.002 168.024 385.062 167.906 385.17C167.788 385.278 167.722 385.424 167.722 385.576C167.72 386.345 167.647 387.113 167.504 387.871L168.739 388.024C168.641 387.11 168.595 386.192 168.601 385.274C168.599 385.136 168.543 385.004 168.443 384.901C168.344 384.798 168.207 384.731 168.058 384.712C167.909 384.694 167.757 384.725 167.631 384.8C167.505 384.875 167.412 384.989 167.37 385.121C167.182 385.851 166.952 386.571 166.73 387.286L167.877 387.148L167.789 386.842C167.73 386.111 166.474 386.108 166.533 386.842C166.547 387.152 166.635 387.455 166.793 387.73C167.035 388.197 167.793 388.032 167.94 387.592C168.178 386.873 168.392 386.154 168.58 385.427L167.345 385.274C167.339 386.192 167.385 387.11 167.483 388.024C167.546 388.614 168.584 388.866 168.714 388.177C168.881 387.313 168.969 386.438 168.978 385.561H167.722V388.77H168.978V387.462H167.722C167.796 388.905 167.247 390.317 166.194 391.395C166.031 391.564 165.855 391.723 165.666 391.869C165.369 392.13 165.097 392.091 164.859 391.751C164.264 391.525 163.649 390.944 163.13 390.603C162.611 390.263 161.899 390.936 162.267 391.387C163.23 392.558 164.666 393.863 166.453 393.3C168.333 392.692 168.588 390.366 168.446 388.835C168.4 388.327 167.567 387.982 167.278 388.549C166.86 389.356 166.441 390.159 166.022 390.97C165.876 391.253 165.604 391.644 165.646 391.98C165.784 392.841 166.927 392.7 167.63 392.65C170.355 392.462 169.924 388.931 169.61 387.156C169.505 386.567 168.567 386.659 168.4 387.156C168.267 387.505 168.198 387.872 168.195 388.242H169.451C169.405 387.585 169.204 386.944 168.861 386.364C168.804 386.278 168.725 386.208 168.63 386.158C168.535 386.109 168.428 386.083 168.318 386.083C168.209 386.083 168.102 386.109 168.007 386.158C167.912 386.208 167.832 386.278 167.776 386.364C167.402 386.955 167.149 387.603 167.031 388.277L168.287 388.43V386.023C168.287 385.871 168.221 385.725 168.103 385.618C167.985 385.51 167.826 385.45 167.659 385.45C167.493 385.45 167.333 385.51 167.215 385.618C167.097 385.725 167.031 385.871 167.031 386.023C167.027 387.316 166.935 388.606 166.755 389.888L167.99 389.735C167.848 389.109 167.607 388.506 167.274 387.944C167.218 387.858 167.138 387.788 167.043 387.738C166.948 387.689 166.841 387.663 166.732 387.663C166.623 387.663 166.515 387.689 166.42 387.738C166.325 387.788 166.246 387.858 166.19 387.944C165.644 389.142 164.859 390.237 163.875 391.173L164.926 391.426L164.741 390.469C164.645 389.96 163.858 389.945 163.594 390.331C163.386 390.619 163.245 390.943 163.18 391.282C163.114 391.622 163.126 391.97 163.213 392.306C163.318 392.849 164.072 392.791 164.36 392.443C164.812 391.895 165.216 391.315 165.57 390.71L164.486 390.129C164.197 390.7 163.999 391.307 163.9 391.931C163.825 392.436 164.482 392.964 164.951 392.489C165.851 391.589 166.502 390.506 166.851 389.329C167.006 388.809 166.219 388.315 165.8 388.77C165.03 389.614 164.331 390.509 163.707 391.449L164.854 391.892L166.131 387.542C166.165 387.41 166.146 387.271 166.079 387.149C166.011 387.028 165.899 386.933 165.762 386.88C165.625 386.826 165.472 386.819 165.329 386.859C165.187 386.899 165.065 386.984 164.984 387.099L162.472 390.423C162.004 391.039 163.079 391.571 163.557 391.001L166.973 386.869C167.458 386.28 166.37 385.721 165.888 386.287H165.855Z" fill="white"/>
<path d="M219.261 400.095C224.285 397.287 228.278 393.098 232.716 389.593C237.53 385.794 242.582 382.255 247.786 378.904C257.891 372.4 268.503 366.58 279.106 360.777C279.244 360.697 279.342 360.572 279.381 360.428C279.419 360.283 279.395 360.131 279.313 360.003C279.231 359.874 279.098 359.78 278.942 359.739C278.785 359.699 278.618 359.716 278.474 359.786C267.871 365.59 257.255 371.397 247.149 377.913C242.381 380.973 237.726 384.218 233.264 387.661C228.408 391.41 224.084 396.078 218.613 399.104C217.922 399.487 218.554 400.481 219.245 400.095H219.261Z" fill="white"/>
<path d="M295.319 342.956C289.877 343.461 284.017 344.727 280.668 349.077C277.775 352.819 277.838 359.346 280.555 363.187C283.64 367.552 289.944 367.709 294.842 366.297C299.74 364.886 304.809 362.41 304.763 357.062C304.738 354.192 303.604 351.204 302.352 348.603C301.272 346.357 299.359 344.394 296.462 344.643C295.663 344.712 295.654 345.86 296.462 345.791C300.343 345.462 301.59 349.674 302.511 352.333C303.348 354.816 304.123 357.754 302.808 360.222C301.494 362.69 298.325 363.948 295.616 364.851C292.686 365.823 289.467 366.416 286.407 365.616C280.345 364.067 278.671 357.046 280.417 352.065C282.426 346.326 289.542 344.639 295.34 344.104C296.136 344.031 296.144 342.883 295.34 342.956H295.319Z" fill="white"/>
<path d="M303.692 387.336C298.25 387.841 292.389 389.107 289.04 393.457C286.147 397.199 286.21 403.726 288.927 407.567C292.012 411.932 298.317 412.089 303.214 410.677C308.112 409.266 313.182 406.79 313.135 401.442C313.11 398.572 311.976 395.584 310.724 392.983C309.644 390.737 307.731 388.774 304.834 389.023C304.035 389.092 304.026 390.24 304.834 390.171C308.715 389.842 309.962 394.054 310.883 396.713C311.721 399.196 312.495 402.134 311.181 404.602C309.866 407.07 306.697 408.328 303.989 409.231C301.058 410.203 297.839 410.796 294.779 409.996C288.718 408.447 287.043 401.426 288.789 396.445C290.798 390.706 297.915 389.019 303.712 388.484C304.508 388.411 304.516 387.263 303.712 387.336H303.692Z" fill="white"/>
<path d="M287.11 354.131L291.075 358.263C291.153 358.332 291.25 358.382 291.355 358.407C291.461 358.432 291.572 358.431 291.677 358.405C291.782 358.38 291.879 358.329 291.957 358.259C292.034 358.19 292.091 358.103 292.121 358.007C292.958 355.994 292.799 353.909 292.996 351.794C293.213 349.607 293.814 347.466 294.775 345.454C296.706 341.373 299.981 337.943 304.144 335.641C304.834 335.258 304.202 334.263 303.512 334.65C299.407 336.909 296.114 340.215 294.038 344.161C293.022 346.081 292.317 348.127 291.945 350.233C291.527 352.716 291.908 355.317 290.903 357.701L291.954 357.444L288.01 353.32C287.474 352.765 286.591 353.58 287.123 354.131H287.11Z" fill="white"/>
<path d="M221.283 404.567C242.875 403.965 264.473 403.838 286.076 404.185C286.884 404.185 286.884 403.037 286.076 403.037C264.479 402.685 242.881 402.813 221.283 403.42C220.475 403.443 220.471 404.59 221.283 404.567Z" fill="white"/>
<path d="M290.589 393.251C297.97 395.898 305.07 399.159 311.8 402.991C312.487 403.374 313.119 402.391 312.432 402C305.614 398.12 298.42 394.821 290.941 392.145C290.191 391.873 289.865 392.983 290.61 393.251H290.589Z" fill="white"/>
<path d="M303.993 388.051C296.508 396.026 292.172 406.068 291.682 416.565C291.648 417.304 292.904 417.304 292.937 416.565C293.413 406.369 297.618 396.614 304.88 388.862C305.404 388.304 304.52 387.489 303.993 388.051Z" fill="white"/>
<path d="M136.569 400.401L183.357 399.842L188.736 399.777C189.703 399.777 190.67 399.747 191.637 399.743C192.998 399.743 193.914 400.776 193.889 402.039C193.827 404.717 191.985 404.621 189.573 404.717L183.759 404.958L160.082 405.91C155.842 406.082 151.597 406.293 147.356 406.427C143.53 406.534 136.255 405.394 137.954 400.305C138.189 399.598 136.979 399.295 136.74 399.999C135.903 402.501 137.385 405.042 139.771 406.354C143.158 408.213 147.62 407.582 151.358 407.429L180.427 406.224L187.485 405.937C189.293 405.861 191.809 406.197 193.471 405.428C195.421 404.529 195.765 400.96 194.534 399.456C193.902 398.691 193.014 398.622 192.022 398.588C189.419 398.496 186.769 398.653 184.161 398.683L169.668 398.859L136.552 399.242C135.744 399.242 135.744 400.39 136.552 400.39L136.569 400.401Z" fill="white"/>
<path d="M325.606 541.001C324.551 541.606 323.345 541.946 322.257 542.478C321.169 543.01 320.11 543.809 319.8 544.911C319.684 545.253 319.703 545.622 319.854 545.952C320.125 546.351 320.539 546.651 321.026 546.801C323.237 547.699 325.626 548.175 328.045 548.2C330.464 548.225 332.863 547.798 335.096 546.947C335.882 546.602 336.693 546.307 337.524 546.067C338.548 545.876 339.589 545.779 340.634 545.776C341.732 545.717 342.825 545.589 343.904 545.393C344.446 545.338 344.96 545.143 345.385 544.831C345.774 544.422 346.007 543.909 346.051 543.37C346.546 540.389 345.799 537.347 343.958 534.846C343.726 534.495 343.415 534.194 343.045 533.962C342.595 533.749 342.099 533.628 341.593 533.606C339.5 533.373 337.306 532.944 335.192 532.898C333.677 532.868 332.915 533.526 331.843 534.478C329.629 536.502 328.335 539.444 325.606 541.001Z" fill="white"/>
<path d="M356.454 540.718C356.454 542.593 356.701 544.579 357.944 546.074C358.512 546.721 359.201 547.272 359.978 547.7C362.607 549.231 366.09 549.793 368.861 548.496C369.309 548.313 369.692 548.018 369.966 547.647C370.385 546.981 370.163 546.151 369.929 545.416L365.918 532.715C363.327 533.078 359.518 533.334 357.215 534.536C355.545 535.404 356.454 539.043 356.454 540.718Z" fill="white"/>
<path d="M323.253 462.506C323.011 463.206 322.131 463.532 321.65 464.121C321.085 464.813 321.144 465.773 321.349 466.615C321.602 467.856 322.24 469.005 323.186 469.925C323.667 470.38 324.259 470.724 324.915 470.928C325.57 471.131 326.269 471.189 326.954 471.095C328.302 470.862 329.466 469.771 329.512 468.52C329.487 467.951 329.354 467.391 329.118 466.864L326.263 459.319C326.252 459.266 326.228 459.215 326.193 459.171C326.158 459.127 326.114 459.09 326.062 459.063C325.955 459.041 325.842 459.059 325.748 459.113C325.074 459.403 323.722 459.709 323.329 460.348C322.935 460.987 323.538 461.814 323.253 462.506Z" fill="#FBB3B2"/>
<path d="M321.918 462.127C322.96 461.978 323.873 461.42 324.848 461.052C325.824 460.685 327.046 460.544 327.866 461.156C328.101 461.332 328.327 461.573 328.632 461.569C328.217 459.698 327.588 457.872 326.757 456.121C326.728 456.037 326.671 455.963 326.594 455.91C326.48 455.868 326.352 455.868 326.238 455.91L323.421 456.584C322.378 456.832 322.257 456.756 322.337 457.693C322.358 458.11 322.592 462.127 321.918 462.127Z" fill="white"/>
<path d="M321.608 407.647C321.19 408.236 321.19 408.971 321.19 409.663C321.19 413.049 321.227 416.454 321.776 419.806C321.905 420.609 322.069 421.413 322.152 422.224C322.247 423.353 322.267 424.486 322.211 425.617L321.792 440.347C321.742 442.149 321.642 444.085 320.424 445.5C320.054 445.975 319.881 446.554 319.934 447.134C320.252 450.83 320.922 454.495 321.587 458.149C322.659 457.707 323.83 457.503 325.004 457.554C326.179 457.606 327.323 457.91 328.344 458.443C330.456 452.374 331.624 446.063 331.814 439.696C331.91 436.563 331.764 433.411 332.291 430.315C333.174 425.105 332.814 419.76 332.166 414.518C331.96 412.858 331.525 411.148 330.361 409.862C329.26 408.738 327.793 407.965 326.175 407.659C324.626 407.288 323.241 407.67 321.608 407.647Z" fill="#5B5583"/>
<path opacity="0.1" d="M321.608 407.647C321.19 408.236 321.19 408.971 321.19 409.663C321.19 413.049 321.227 416.454 321.776 419.806C321.905 420.609 322.069 421.413 322.152 422.224C322.247 423.353 322.267 424.486 322.211 425.617L321.792 440.347C321.742 442.149 321.642 444.085 320.424 445.5C320.054 445.975 319.881 446.554 319.934 447.134C320.252 450.83 320.922 454.495 321.587 458.149C322.659 457.707 323.83 457.503 325.004 457.554C326.179 457.606 327.323 457.91 328.344 458.443C330.456 452.374 331.624 446.063 331.814 439.696C331.91 436.563 331.764 433.411 332.291 430.315C333.174 425.105 332.814 419.76 332.166 414.518C331.96 412.858 331.525 411.148 330.361 409.862C329.26 408.738 327.793 407.965 326.175 407.659C324.626 407.288 323.241 407.67 321.608 407.647Z" fill="black"/>
<path d="M326.724 450.363C323.916 463.512 325.449 477.127 331.127 489.478C331.618 490.393 331.962 491.367 332.149 492.371C332.379 494.246 331.433 496.047 330.893 497.861C329.637 501.985 330.361 506.377 331.165 510.597C331.5 512.357 331.845 514.116 332.199 515.873C332.547 517.587 332.881 519.45 332.011 521.004C332.76 523.858 333.204 526.685 333.953 529.539C334.033 529.765 334.057 530.004 334.024 530.239C333.873 530.613 333.607 530.938 333.258 531.177C332.7 531.694 332.298 532.336 332.094 533.038C331.889 533.74 331.888 534.479 332.09 535.182C334.003 533.927 336.67 534.367 338.855 535.182C341.04 535.997 343.192 537.095 345.553 537.095C345.21 534.562 344.879 531.903 345.9 529.528C346.495 528.15 347.541 526.849 347.512 525.376C347.483 524.057 346.599 522.878 346.386 521.574C346.307 520.762 346.34 519.944 346.486 519.14C347.047 514.457 346.411 509.729 345.775 505.054C345.703 504.132 345.465 503.227 345.071 502.375C344.774 501.825 344.331 501.297 344.339 500.681C344.339 499.965 344.971 499.384 345.205 498.703C345.624 497.448 344.854 495.741 346.013 494.965C349.069 492.914 347.897 488.017 347.83 484.555C347.777 481.568 347.638 478.584 347.412 475.602C349.336 480.546 350.122 485.801 349.722 491.036C349.588 492.75 349.341 494.552 350.074 496.135C350.635 497.352 351.748 498.354 352.05 499.644C352.238 500.44 352.104 501.262 352.146 502.073C352.188 502.884 352.489 503.768 353.255 504.177C353.314 507.866 353.674 511.81 353.737 515.498C353.696 517.384 353.864 519.268 354.239 521.122C354.427 521.712 354.531 522.321 354.549 522.936C354.454 523.706 354.231 524.458 353.887 525.166C353.158 527.14 352.967 529.248 353.332 531.305C353.697 533.362 354.606 535.306 355.981 536.969C356.968 535.366 359.028 534.516 361.037 534.383C363.047 534.249 365.031 534.712 366.977 535.178C366.68 532.943 367.167 530.679 368.367 528.713C368.689 528.27 368.936 527.785 369.1 527.274C369.326 526.302 368.798 525.334 368.514 524.374C368.049 522.844 368.212 521.195 368.321 519.596C368.687 514.24 368.427 508.863 367.547 503.558C367.411 502.513 367.143 501.485 366.747 500.497C366.597 500.145 366.412 499.808 366.287 499.452C366.089 498.814 365.977 498.157 365.952 497.494L365.47 491.372C365.131 487.084 366.672 482.848 367.748 478.663C368.229 476.788 368.752 474.917 369.075 473.012C369.514 470.418 369.585 467.767 370.23 465.207C370.808 462.912 371.85 460.674 372.068 458.321C372.403 454.675 370.745 451.151 369.138 447.807C368.468 446.43 365.935 446.568 364.307 446.323C352.757 444.59 340.592 444.578 329.7 448.484C328.574 448.911 327.559 449.551 326.724 450.363V450.363Z" fill="#3C354C"/>
<path d="M335.05 382.458L336.331 387.011C336.679 388.055 336.872 389.137 336.904 390.228C336.918 390.626 336.821 391.021 336.624 391.376C336.413 391.667 336.143 391.919 335.828 392.118C334.954 392.726 334.347 394.146 333.346 394.567C333.861 395.385 334.573 394.854 335.502 395.263C337.139 395.99 338.637 397.034 340.412 397.394C342.087 397.731 343.845 397.413 345.507 397.011C347.864 396.426 350.208 395.619 352.104 394.207C354 392.795 355.08 391.548 355.072 389.318C352.979 389.543 351.116 387.611 350.191 385.874C349.87 385.214 349.634 384.522 349.488 383.812L348.366 379.301C347.144 379.546 346.147 380.346 344.979 380.763C343.811 381.18 342.43 381.218 341.132 381.272C338.829 381.368 336.538 381.639 334.284 382.083C333.974 382.14 333.585 382.32 333.66 382.596" fill="#FBB3B2"/>
<path opacity="0.1" d="M335.05 382.458L336.331 387.011C336.679 388.055 336.872 389.137 336.904 390.228C336.918 390.626 336.821 391.021 336.624 391.376C336.413 391.667 336.143 391.919 335.828 392.118C334.954 392.726 334.347 394.146 333.346 394.567C333.861 395.385 334.573 394.854 335.502 395.263C337.139 395.99 338.637 397.034 340.412 397.394C342.087 397.731 343.845 397.413 345.507 397.011C347.864 396.426 350.208 395.619 352.104 394.207C354 392.795 355.08 391.548 355.072 389.318C352.979 389.543 351.116 387.611 350.191 385.874C349.87 385.214 349.634 384.522 349.488 383.812L348.366 379.301C347.144 379.546 346.147 380.346 344.979 380.763C343.811 381.18 342.43 381.218 341.132 381.272C338.829 381.368 336.538 381.639 334.284 382.083C333.974 382.14 333.585 382.32 333.66 382.596" fill="black"/>
<path d="M340.55 384.968C346.672 384.968 351.635 380.432 351.635 374.837C351.635 369.242 346.672 364.706 340.55 364.706C334.428 364.706 329.466 369.242 329.466 374.837C329.466 380.432 334.428 384.968 340.55 384.968Z" fill="#FBB3B2"/>
<path d="M343.602 391.537C344.195 390.366 345.051 389.324 346.114 388.476C347.675 387.225 349.81 386.211 350.179 384.344L353.561 387.944C353.745 388.111 353.887 388.312 353.98 388.533C354.022 388.741 354.016 388.954 353.961 389.16C353.906 389.365 353.804 389.557 353.661 389.723C352.824 390.944 351.506 391.816 350.258 392.7C347.399 394.769 344.661 396.976 342.057 399.311C341.943 399.432 341.789 399.518 341.618 399.556C341.456 399.56 341.297 399.518 341.162 399.437C338.915 398.359 336.927 396.881 335.314 395.091C335.192 394.957 335.041 394.804 334.845 394.815C334.726 394.835 334.617 394.887 334.531 394.965C333.405 395.806 332.174 396.812 330.73 396.682C332.601 395.454 333.66 393.404 334.054 391.326C334.131 390.615 334.291 389.914 334.531 389.233C334.655 388.893 334.869 388.586 335.153 388.339C335.438 388.092 335.785 387.913 336.163 387.818C335.251 389.092 335.875 390.898 337.101 391.927C338.293 392.851 339.721 393.484 341.254 393.767C342.677 394.012 343.096 392.539 343.602 391.537Z" fill="white"/>
<path d="M329.181 451.404C330.759 451.759 332.254 452.364 333.786 452.811C336.578 453.611 339.517 453.893 342.43 453.642C343.327 453.624 344.199 453.37 344.942 452.911C345.138 452.766 345.318 452.593 345.528 452.46C345.878 452.267 346.257 452.124 346.654 452.035C350.493 450.937 353.707 448.569 356.826 446.25C356.927 446.174 357.04 446.078 357.031 445.956C357.017 445.872 356.973 445.796 356.906 445.737L355.265 444.016C350.961 444.685 346.553 444.433 342.187 444.333C341.291 444.297 340.393 444.319 339.5 444.398C338.637 444.49 337.788 444.689 336.938 444.858C333.71 445.5 330.412 445.745 327.142 446.166C326.914 446.181 326.692 446.244 326.493 446.35C326.356 446.447 326.238 446.566 326.146 446.702L324.999 448.175C324.554 448.67 324.226 449.245 324.036 449.862C323.768 451.01 324.329 451.392 325.397 451.243C326.658 451.074 327.942 451.129 329.181 451.404Z" fill="white"/>
<path d="M342.011 397.558C340.731 396.359 339.279 395.323 337.695 394.479C337.056 394.107 336.346 393.848 335.602 393.713C335.228 393.646 334.843 393.654 334.472 393.737C334.102 393.821 333.756 393.977 333.459 394.196C333.087 394.498 332.852 394.919 332.492 395.236C332.039 395.584 331.52 395.852 330.96 396.028C329.054 396.772 327.248 397.713 325.577 398.832C324.665 399.415 323.845 400.107 323.136 400.891C321.24 403.11 320.955 406.128 321.005 408.944C321.043 410.903 323.098 412.357 324.513 413.822C325.84 415.264 327.041 416.799 328.105 418.413C328.867 419.515 329.662 420.709 329.566 422.021C329.486 423.096 328.8 424.106 328.909 425.177C328.946 425.56 329.08 425.912 329.118 426.283C329.193 427.048 328.863 427.813 328.779 428.578C328.666 429.661 329.051 430.736 329.072 431.827C329.057 432.573 328.953 433.316 328.762 434.042C327.959 437.539 326.95 441.055 327.155 444.624L324.836 445.007C325.055 445.204 325.221 445.445 325.32 445.711C325.419 445.977 325.447 446.261 325.404 446.539C325.36 446.818 325.245 447.083 325.069 447.313C324.892 447.543 324.659 447.732 324.388 447.865C328.009 448.97 331.923 448.412 335.761 448.408C338.939 448.408 342.103 448.79 345.277 448.737C348.45 448.683 351.723 448.159 354.34 446.518C355.051 446.074 355.704 445.554 356.454 445.167C357.457 444.692 358.539 444.369 359.656 444.211C361.725 443.85 363.829 443.679 365.935 443.698C366.965 443.698 368.087 443.737 368.907 443.17C369.811 442.543 370.042 441.407 370.163 440.377C370.284 439.291 370.36 438.201 370.381 437.11C370.416 436.261 370.367 435.411 370.234 434.57C370.109 433.955 369.945 433.347 369.744 432.749L368.166 427.668C367.513 425.571 368.422 423.272 368.614 421.099C368.66 420.586 368.669 419.989 368.237 419.66C368.083 419.542 367.869 419.461 367.819 419.278C367.796 419.191 367.794 419.1 367.811 419.012C367.828 418.924 367.865 418.84 367.919 418.765C368.757 417.235 370.012 415.884 371.159 414.503C373.086 412.081 374.874 409.569 376.518 406.978C376.003 401.556 373.505 396.451 369.426 392.485C368.589 391.655 367.63 390.859 366.458 390.484C365.692 390.271 364.898 390.153 364.097 390.136C360.815 389.934 357.4 389.754 354.54 388.246C354.335 388.116 354.103 388.027 353.858 387.982C353.226 387.917 352.766 388.487 352.355 388.939C351.3 390.087 349.747 390.745 348.383 391.59C345.837 393.17 343.849 395.343 342.011 397.558Z" fill="#5B5583"/>
<path d="M376.802 408.542C377.455 410.432 377.393 412.453 377.606 414.423C377.733 415.612 377.961 416.79 378.288 417.946C378.438 418.582 378.707 419.189 379.084 419.741C379.461 420.246 380.001 420.655 380.239 421.225C380.37 421.611 380.428 422.015 380.411 422.419L380.461 425.059C380.568 426.458 380.335 427.861 379.779 429.168L377.974 434.183C376.999 436.9 375.999 439.658 374.24 442.023C373.993 442.423 373.617 442.744 373.165 442.945C372.81 443.03 372.447 443.082 372.08 443.098C371.442 443.202 370.864 443.506 370.444 443.958C370.025 444.409 369.791 444.981 369.782 445.573C369.363 445.014 368.841 444.525 368.238 444.131L364.566 441.453C363.31 440.519 362 439.57 360.476 439.031C362.526 438.446 364.345 437.33 365.714 435.818C367.083 434.306 367.942 432.464 368.187 430.514C368.186 429.934 368.329 429.361 368.606 428.839C368.912 428.387 369.477 428.043 369.519 427.511C369.569 426.842 368.74 426.337 368.74 425.667C368.74 425.223 369.1 424.856 369.259 424.439C369.408 423.924 369.408 423.382 369.259 422.867L368.752 420.296C368.723 420.038 368.637 419.788 368.501 419.561C368.312 419.343 368.102 419.141 367.873 418.956C367.003 418.065 367.388 416.661 367.873 415.563C368.988 413.126 370.425 410.822 372.152 408.703C372.766 407.992 373.335 407.248 373.855 406.477C374.299 405.773 374.4 404.797 374.868 404.181C375.471 405.627 376.287 407.054 376.802 408.542Z" fill="#5B5583"/>
<path d="M360.347 439.188C360.16 439.314 359.998 439.47 359.869 439.647C359.376 440.213 358.719 440.641 357.973 440.882C358.392 441.158 358.773 441.43 359.166 441.709C362.078 443.764 364.744 446.094 367.12 448.66C367.384 447.8 368.962 447.861 369.347 447.038C369.438 446.803 369.466 446.551 369.431 446.304C369.351 445.015 369.149 443.735 368.828 442.478C368.701 441.831 368.415 441.218 367.991 440.687C367.404 440.041 366.492 439.731 365.621 439.463C364.303 439.042 361.686 438.449 360.347 439.188Z" fill="white"/>
<path d="M355.114 442.195C353.858 443.044 352.757 444.108 351.346 444.689C350.35 445.102 349.216 445.282 348.345 445.898C348.818 446.851 350.049 447.344 351.192 447.306C352.335 447.203 353.432 446.836 354.377 446.239C355.127 445.818 356.006 445.328 356.822 445.623C356.947 446.204 356.403 446.751 356.403 447.341C356.403 447.93 356.939 448.358 357.467 448.668C359.978 450.149 363.21 450.026 366.203 449.854C366.375 449.86 366.544 449.814 366.684 449.724C366.749 449.655 366.799 449.575 366.83 449.488C366.86 449.401 366.872 449.31 366.864 449.219C366.902 448.615 366.919 448.014 366.923 447.409C367.008 446.922 366.938 446.423 366.723 445.97C366.508 445.517 366.156 445.13 365.709 444.854C364.085 443.578 362.333 442.444 360.476 441.468C358.634 440.492 356.767 441.07 355.114 442.195Z" fill="#FBB3B2"/>
<path d="M344.444 370.601C342.585 370.804 341.233 372.132 341.421 373.574C341.61 375.017 343.267 376.011 345.126 375.805C346.985 375.598 348.337 374.274 348.148 372.836C347.96 371.397 346.302 370.399 344.444 370.601ZM345.076 375.407C343.502 375.579 342.099 374.733 341.936 373.517C341.773 372.3 342.924 371.175 344.494 371.003C346.064 370.831 347.47 371.677 347.633 372.893C347.797 374.11 346.646 375.235 345.076 375.407V375.407Z" fill="#3C354C"/>
<path d="M335.385 371.596C333.526 371.799 332.174 373.127 332.362 374.565C332.551 376.004 334.208 377.002 336.067 376.799C337.926 376.597 339.278 375.269 339.09 373.827C338.901 372.384 337.243 371.393 335.385 371.596ZM336.017 376.398C334.443 376.57 333.041 375.724 332.881 374.511C332.722 373.299 333.865 372.17 335.439 371.994C337.013 371.818 338.416 372.667 338.575 373.884C338.734 375.101 337.587 376.225 336.017 376.398Z" fill="#3C354C"/>
<path d="M328.658 372.335L332.697 373.123L332.3 374.094L328.49 373.073L328.658 372.335Z" fill="#3C354C"/>
<path d="M351.175 369.863L347.449 371.504L348.09 372.361L351.526 370.544L351.175 369.863Z" fill="#3C354C"/>
<path d="M338.717 372.878L341.551 372.568L341.404 373.211L338.972 373.36L338.717 372.878Z" fill="#3C354C"/>
<path d="M333.221 372.009C333.487 371.485 333.63 370.915 333.639 370.337C333.649 369.992 333.714 369.649 333.832 369.32C334.037 368.902 334.351 368.536 334.744 368.252C336.05 367.242 337.922 366.722 339.768 366.649C341.781 366.565 343.783 366.96 345.578 367.797C346.126 368.032 346.617 368.365 347.022 368.777C347.608 369.431 347.734 370.276 348.324 370.923C348.727 371.315 349.234 371.606 349.795 371.767C350.357 371.928 350.955 371.953 351.531 371.841C351.736 371.175 351.468 370.471 351.573 369.79C351.737 369.207 351.96 368.638 352.238 368.092C352.887 366.343 351.941 364.316 349.99 363.271C349.308 362.889 348.5 362.64 347.989 362.123C347.479 361.607 347.357 361.071 347.005 360.555C346.072 359.189 343.657 358.55 341.819 359.181C341.241 359.38 340.73 359.682 340.144 359.897C339.056 360.306 337.817 360.379 336.62 360.517C335.44 360.616 334.286 360.893 333.204 361.335C332.17 361.802 331.303 362.552 331.065 363.447C330.952 363.86 330.977 364.289 330.864 364.698C330.286 366.776 326.556 367.786 326.347 369.905C326.272 370.67 326.728 371.405 327.297 372.028C327.691 372.453 328.633 373.589 329.298 373.754C329.964 373.918 330.47 373.341 331.107 373.142C332.111 372.855 332.718 372.794 333.221 372.009Z" fill="#CBCEDA"/>
<path d="M380.444 506.76C380.444 525.981 393.639 541.537 409.944 541.537Z" fill="#46455B"/>
<path d="M409.944 541.541C409.944 522.102 424.671 506.373 442.868 506.373Z" fill="white"/>
<path d="M391.136 508.504C391.136 526.765 399.55 541.541 409.944 541.541Z" fill="white"/>
<path d="M409.944 541.541C409.944 516.703 426.965 496.602 447.996 496.602Z" fill="#46455B"/>
<path opacity="0.1" d="M408.667 548.182C412.718 548.182 416.001 547.675 416.001 547.05C416.001 546.425 412.718 545.918 408.667 545.918C404.617 545.918 401.333 546.425 401.333 547.05C401.333 547.675 404.617 548.182 408.667 548.182Z" fill="white"/>
<path d="M403.74 541.786C403.74 541.786 407.926 541.667 409.182 540.848C410.438 540.03 415.616 539.046 415.93 540.362C416.244 541.679 422.209 546.908 417.491 546.943C412.774 546.977 406.515 546.269 405.26 545.569C404.004 544.869 403.74 541.786 403.74 541.786Z" fill="#A8A8A8"/>
<path opacity="0.2" d="M417.579 546.484C412.857 546.518 406.608 545.81 405.348 545.11C404.389 544.578 404.008 542.662 403.878 541.782H403.74C403.74 541.782 404.004 544.865 405.264 545.566C406.524 546.266 412.774 546.973 417.496 546.939C418.86 546.939 419.329 546.484 419.304 545.83C419.116 546.227 418.618 546.476 417.579 546.484Z" fill="black"/>
<path d="M60.4146 517.993C60.4146 533.296 70.9092 545.661 83.8821 545.661Z" fill="#46455B"/>
<path d="M83.882 545.661C83.882 530.197 95.6032 517.683 110.075 517.683Z" fill="white"/>
<path d="M68.9166 519.385C68.9166 533.923 75.6144 545.669 83.882 545.669Z" fill="white"/>
<path d="M83.882 545.661C83.882 525.901 97.4242 509.909 114.156 509.909Z" fill="#46455B"/>
<path opacity="0.1" d="M82.8648 550.949C86.0877 550.949 88.7003 550.544 88.7003 550.046C88.7003 549.547 86.0877 549.143 82.8648 549.143C79.642 549.143 77.0294 549.547 77.0294 550.046C77.0294 550.544 79.642 550.949 82.8648 550.949Z" fill="white"/>
<path d="M78.9466 545.856C78.9466 545.856 82.2746 545.761 83.2751 545.091C84.2755 544.422 88.3989 543.656 88.6459 544.709C88.8928 545.761 93.6483 549.916 89.9017 549.942C86.1551 549.969 81.1694 549.407 80.1689 548.852C79.1685 548.297 78.9466 545.856 78.9466 545.856Z" fill="#A8A8A8"/>
<path opacity="0.2" d="M89.9561 549.609C86.1886 549.636 81.2238 549.074 80.2234 548.515C79.4615 548.094 79.1601 546.568 79.0554 545.868H78.9466C78.9466 545.868 79.1559 548.32 80.1564 548.879C81.1569 549.437 86.1342 549.996 89.8891 549.969C90.9733 549.969 91.3501 549.609 91.3292 549.085C91.1785 549.391 90.764 549.587 89.9561 549.609Z" fill="black"/>
</g>
<defs>
<clipPath id="clip0">
<rect width="397" height="290" fill="white" transform="translate(51 273)"/>
</clipPath>
</defs>
</svg>
