<svg width="500" height="500" viewBox="0 0 500 500" fill="none" xmlns="http://www.w3.org/2000/svg">
<rect width="500" height="500" fill="#152742"/>
<path d="M236.121 154H102V310.195H236.121V154Z" fill="url(#paint0_linear)"/>
<path d="M233.902 258.285H104.216V306.793H233.902V258.285Z" fill="#D37676"/>
<path d="M119.886 269.791H114.861V294.647H119.886V269.791Z" fill="#64FFDA"/>
<g opacity="0.7">
<path opacity="0.7" d="M129.806 269.791H124.781V294.647H129.806V269.791Z" fill="#64FFDA"/>
</g>
<g opacity="0.6">
<path opacity="0.6" d="M139.73 269.791H134.705V294.647H139.73V269.791Z" fill="#64FFDA"/>
</g>
<g opacity="0.5">
<path opacity="0.5" d="M149.65 269.791H144.625V294.647H149.65V269.791Z" fill="#64FFDA"/>
</g>
<g opacity="0.5">
<path opacity="0.5" d="M159.571 269.791H154.545V294.647H159.571V269.791Z" fill="#64FFDA"/>
</g>
<g opacity="0.4">
<path opacity="0.4" d="M169.491 269.791H164.466V294.647H169.491V269.791Z" fill="#64FFDA"/>
</g>
<g opacity="0.3">
<path opacity="0.3" d="M179.415 269.791H174.389V294.647H179.415V269.791Z" fill="#64FFDA"/>
</g>
<path d="M215.542 294.712C222.24 294.712 227.669 289.047 227.669 282.059C227.669 275.071 222.24 269.406 215.542 269.406C208.845 269.406 203.416 275.071 203.416 282.059C203.416 289.047 208.845 294.712 215.542 294.712Z" fill="#6C63FF"/>
<path d="M233.902 207.888H104.216V256.395H233.902V207.888Z" fill="#D37676"/>
<path d="M119.886 219.393H114.861V244.25H119.886V219.393Z" fill="#64FFDA"/>
<g opacity="0.7">
<path opacity="0.7" d="M129.806 219.393H124.781V244.25H129.806V219.393Z" fill="#64FFDA"/>
</g>
<g opacity="0.6">
<path opacity="0.6" d="M139.73 219.393H134.705V244.25H139.73V219.393Z" fill="#64FFDA"/>
</g>
<g opacity="0.5">
<path opacity="0.5" d="M149.65 219.393H144.625V244.25H149.65V219.393Z" fill="#64FFDA"/>
</g>
<g opacity="0.5">
<path opacity="0.5" d="M159.571 219.393H154.545V244.25H159.571V219.393Z" fill="#64FFDA"/>
</g>
<g opacity="0.4">
<path opacity="0.4" d="M169.491 219.393H164.466V244.25H169.491V219.393Z" fill="#64FFDA"/>
</g>
<g opacity="0.3">
<path opacity="0.3" d="M179.415 219.393H174.389V244.25H179.415V219.393Z" fill="#64FFDA"/>
</g>
<path d="M215.542 244.318C222.24 244.318 227.669 238.653 227.669 231.665C227.669 224.677 222.24 219.012 215.542 219.012C208.845 219.012 203.416 224.677 203.416 231.665C203.416 238.653 208.845 244.318 215.542 244.318Z" fill="#6C63FF"/>
<path d="M233.902 157.49H104.216V205.998H233.902V157.49Z" fill="#D37676"/>
<path d="M119.886 168.999H114.861V193.856H119.886V168.999Z" fill="#64FFDA"/>
<g opacity="0.7">
<path opacity="0.7" d="M129.806 168.999H124.781V193.856H129.806V168.999Z" fill="#64FFDA"/>
</g>
<g opacity="0.6">
<path opacity="0.6" d="M139.73 168.999H134.705V193.856H139.73V168.999Z" fill="#64FFDA"/>
</g>
<g opacity="0.5">
<path opacity="0.5" d="M149.65 168.999H144.625V193.856H149.65V168.999Z" fill="#64FFDA"/>
</g>
<g opacity="0.5">
<path opacity="0.5" d="M159.571 168.999H154.545V193.856H159.571V168.999Z" fill="#64FFDA"/>
</g>
<g opacity="0.4">
<path opacity="0.4" d="M169.491 168.999H164.466V193.856H169.491V168.999Z" fill="#64FFDA"/>
</g>
<g opacity="0.3">
<path opacity="0.3" d="M179.415 168.999H174.389V193.856H179.415V168.999Z" fill="#64FFDA"/>
</g>
<path d="M215.542 194.908C222.762 194.908 228.615 188.801 228.615 181.267C228.615 173.734 222.762 167.627 215.542 167.627C208.323 167.627 202.47 173.734 202.47 181.267C202.47 188.801 208.323 194.908 215.542 194.908Z" fill="url(#paint1_linear)"/>
<path d="M215.542 245.642C222.762 245.642 228.615 239.535 228.615 232.002C228.615 224.469 222.762 218.362 215.542 218.362C208.323 218.362 202.47 224.469 202.47 232.002C202.47 239.535 208.323 245.642 215.542 245.642Z" fill="white"/>
<path d="M215.542 296.037C222.762 296.037 228.615 289.93 228.615 282.396C228.615 274.863 222.762 268.756 215.542 268.756C208.323 268.756 202.47 274.863 202.47 282.396C202.47 289.93 208.323 296.037 215.542 296.037Z" fill="white"/>
<path d="M215.542 193.92C222.24 193.92 227.669 188.255 227.669 181.267C227.669 174.279 222.24 168.614 215.542 168.614C208.845 168.614 203.416 174.279 203.416 181.267C203.416 188.255 208.845 193.92 215.542 193.92Z" fill="white"/>
<path opacity="0.7" d="M252.437 208.027H254.395" stroke="#FFBBBB" stroke-width="4" stroke-linecap="round" stroke-linejoin="round"/>
<path opacity="0.7" d="M265.288 208.027H319.762" stroke="#FFBBBB" stroke-width="4" stroke-linecap="round" stroke-linejoin="round" stroke-dasharray="12.52 33.38"/>
<path opacity="0.7" d="M325.208 208.027H327.166V210.07" stroke="#FFBBBB" stroke-width="4" stroke-linecap="round" stroke-linejoin="round"/>
<path opacity="0.7" d="M327.166 220.902V260.158" stroke="#FFBBBB" stroke-width="4" stroke-linecap="round" stroke-linejoin="round" stroke-dasharray="11.93 31.8"/>
<path opacity="0.7" d="M327.166 265.572V267.615" stroke="#FFBBBB" stroke-width="4" stroke-linecap="round" stroke-linejoin="round"/>
<path opacity="0.7" d="M221.951 362.274L219.993 362.264" stroke="#FFBBBB" stroke-width="4" stroke-linecap="round" stroke-linejoin="round"/>
<path opacity="0.7" d="M209.1 362.21L154.63 361.937" stroke="#FFBBBB" stroke-width="4" stroke-linecap="round" stroke-linejoin="round" stroke-dasharray="12.52 33.38"/>
<path opacity="0.7" d="M149.18 361.913L147.222 361.903L147.235 359.86" stroke="#FFBBBB" stroke-width="4" stroke-linecap="round" stroke-linejoin="round"/>
<path opacity="0.7" d="M147.3 349.376L147.45 325.79" stroke="#FFBBBB" stroke-width="4" stroke-linecap="round" stroke-linejoin="round" stroke-dasharray="11.55 30.79"/>
<path opacity="0.7" d="M147.483 320.546L147.497 318.503" stroke="#FFBBBB" stroke-width="4" stroke-linecap="round" stroke-linejoin="round"/>
<path d="M337.351 368.672C337.351 368.672 341.241 396.076 364.198 405.211H271.194C294.151 396.076 298.041 368.672 298.041 368.672H337.351Z" fill="#E0E0E0"/>
<path d="M364.609 405.211H270.741V411H364.609V405.211Z" fill="url(#paint2_linear)"/>
<path d="M364.198 405.211H271.208V409.679H364.198V405.211Z" fill="#F5F5F5"/>
<path d="M393.492 271.262H242.566C241.635 271.262 240.743 271.647 240.085 272.334C239.427 273.02 239.058 273.951 239.058 274.922V374.141C239.058 375.302 239.5 376.416 240.287 377.237C241.074 378.058 242.141 378.52 243.254 378.52H392.804C393.355 378.52 393.9 378.406 394.409 378.186C394.919 377.966 395.381 377.644 395.771 377.237C396.161 376.83 396.47 376.348 396.681 375.816C396.892 375.285 397 374.716 397 374.141V274.922C397 273.951 396.631 273.02 395.973 272.334C395.315 271.647 394.422 271.262 393.492 271.262V271.262Z" fill="url(#paint3_linear)"/>
<path d="M244.465 272.76H390.94C391.871 272.76 392.763 273.146 393.421 273.832C394.079 274.519 394.448 275.45 394.448 276.42V361.365H240.957V276.424C240.957 275.943 241.047 275.466 241.223 275.022C241.399 274.577 241.658 274.174 241.983 273.833C242.309 273.493 242.696 273.223 243.122 273.039C243.548 272.855 244.004 272.76 244.465 272.76V272.76Z" fill="white"/>
<path d="M390.252 375.979H245.154C244.041 375.979 242.973 375.518 242.186 374.697C241.399 373.876 240.957 372.762 240.957 371.601V361.365H394.448V371.601C394.448 372.762 394.006 373.876 393.219 374.697C392.432 375.518 391.365 375.979 390.252 375.979Z" fill="#F5F5F5"/>
<path d="M387.445 279.938H248.544V351.463H387.445V279.938Z" fill="#D37676"/>
<path opacity="0.2" d="M254.039 284.684H387.533V279.914H248.632V351.44H254.039V284.684Z" fill="white"/>
<defs>
<linearGradient id="paint0_linear" x1="169.06" y1="310.195" x2="169.06" y2="154" gradientUnits="userSpaceOnUse">
<stop stop-color="#808080" stop-opacity="0.25"/>
<stop offset="0.54" stop-color="#808080" stop-opacity="0.12"/>
<stop offset="1" stop-color="#808080" stop-opacity="0.1"/>
</linearGradient>
<linearGradient id="paint1_linear" x1="9299.48" y1="3445.16" x2="9299.48" y2="1259.41" gradientUnits="userSpaceOnUse">
<stop stop-color="#808080" stop-opacity="0.25"/>
<stop offset="0.54" stop-color="#808080" stop-opacity="0.12"/>
<stop offset="1" stop-color="#808080" stop-opacity="0.1"/>
</linearGradient>
<linearGradient id="paint2_linear" x1="62309.1" y1="4774.21" x2="62309.1" y2="4675.8" gradientUnits="userSpaceOnUse">
<stop stop-color="#808080" stop-opacity="0.25"/>
<stop offset="0.54" stop-color="#808080" stop-opacity="0.12"/>
<stop offset="1" stop-color="#808080" stop-opacity="0.1"/>
</linearGradient>
<linearGradient id="paint3_linear" x1="128172" y1="78784" x2="128172" y2="44997.8" gradientUnits="userSpaceOnUse">
<stop stop-color="#808080" stop-opacity="0.25"/>
<stop offset="0.54" stop-color="#808080" stop-opacity="0.12"/>
<stop offset="1" stop-color="#808080" stop-opacity="0.1"/>
</linearGradient>
</defs>
</svg>
