<svg width="500" height="500" viewBox="0 0 500 500" fill="none" xmlns="http://www.w3.org/2000/svg">
<rect width="500" height="500" fill="#6C7B8F"/>
<g clip-path="url(#clip0)">
<path d="M356.166 347.84C375.329 347.84 390.864 332.245 390.864 313.008C390.864 293.772 375.329 278.177 356.166 278.177C337.003 278.177 321.468 293.772 321.468 313.008C321.468 332.245 337.003 347.84 356.166 347.84Z" fill="#FF6584"/>
<path d="M420 160H79V170.89H420V160Z" fill="#F2F2F2"/>
<path d="M88.1251 168.103C89.6757 168.103 90.9328 166.841 90.9328 165.285C90.9328 163.728 89.6757 162.466 88.1251 162.466C86.5744 162.466 85.3174 163.728 85.3174 165.285C85.3174 166.841 86.5744 168.103 88.1251 168.103Z" fill="white"/>
<path d="M97.2501 168.103C98.8007 168.103 100.058 166.841 100.058 165.285C100.058 163.728 98.8007 162.466 97.2501 162.466C95.6994 162.466 94.4424 163.728 94.4424 165.285C94.4424 166.841 95.6994 168.103 97.2501 168.103Z" fill="white"/>
<path d="M106.375 168.103C107.926 168.103 109.183 166.841 109.183 165.285C109.183 163.728 107.926 162.466 106.375 162.466C104.824 162.466 103.567 163.728 103.567 165.285C103.567 166.841 104.824 168.103 106.375 168.103Z" fill="white"/>
<path d="M79.2413 368.327L79 368.535V442H420V312.957L415.936 313.266L79.2413 368.327Z" fill="#F2F2F2"/>
<path d="M198.834 268.934H103.609V272.789H198.834V268.934Z" fill="#3F3D56"/>
<path d="M198.834 277.414H103.609V281.268H198.834V277.414Z" fill="#3F3D56"/>
<path d="M135.863 285.894H103.609V289.748H135.863V285.894Z" fill="#3F3D56"/>
<path d="M238.637 438.446C240.706 438.446 242.383 436.763 242.383 434.686C242.383 432.609 240.706 430.926 238.637 430.926C236.569 430.926 234.892 432.609 234.892 434.686C234.892 436.763 236.569 438.446 238.637 438.446Z" fill="white"/>
<path d="M249.5 438.822C251.569 438.822 253.246 437.139 253.246 435.062C253.246 432.985 251.569 431.302 249.5 431.302C247.431 431.302 245.754 432.985 245.754 435.062C245.754 437.139 247.431 438.822 249.5 438.822Z" fill="#F2F2F2"/>
<path d="M260.363 439.198C262.432 439.198 264.109 437.515 264.109 435.438C264.109 433.361 262.432 431.678 260.363 431.678C258.294 431.678 256.617 433.361 256.617 435.438C256.617 437.515 258.294 439.198 260.363 439.198Z" fill="white"/>
<path d="M249.534 438.07C251.189 438.07 252.531 436.723 252.531 435.062C252.531 433.401 251.189 432.054 249.534 432.054C247.879 432.054 246.538 433.401 246.538 435.062C246.538 436.723 247.879 438.07 249.534 438.07Z" fill="#3F3D56"/>
<path d="M356.571 349.587C356.571 374.128 329.817 365.14 296.814 365.14C263.811 365.14 237.056 374.128 237.056 349.587C237.056 325.047 263.811 276.269 296.814 276.269C329.817 276.269 356.571 325.047 356.571 349.587Z" fill="white"/>
<path d="M416.163 370.167C409.242 368.99 402.585 367.979 396.194 367.134L398.721 362.216C397.869 361.919 394.125 364.736 394.125 364.736L397.441 350.461C393.156 350.979 390.977 365.555 390.977 365.555L386.19 360.627L388.508 366.167C371.694 364.127 354.778 363.058 337.842 362.967L340.005 358.757C339.153 358.46 335.41 361.277 335.41 361.277L338.726 347.002C334.441 347.52 332.262 362.096 332.262 362.096L327.474 357.168L329.929 363.036C324.372 363.148 319.3 363.386 314.701 363.702L315.464 362.216C314.924 362.028 313.221 363.092 312.047 363.895C311.709 363.922 311.378 363.949 311.045 363.977L314.185 350.461C310.689 350.884 308.596 360.66 307.943 364.249C307.483 364.292 307.027 364.335 306.579 364.38L302.967 360.662C305.993 355.948 310.422 352.229 310.422 352.229C304.747 353.923 301.771 356.762 300.215 359.409C300.076 345.88 302.317 332.432 306.835 319.685C306.835 319.685 295.106 345.307 296.602 362.506L296.762 365.239C280.763 363.623 266.696 362.993 254.586 362.967L256.749 358.757C255.897 358.46 252.153 361.277 252.153 361.277L255.469 347.002C251.184 347.52 249.005 362.096 249.005 362.096L244.218 357.168L246.673 363.036C236.937 363.198 227.216 363.86 217.548 365.022C219.735 358.465 227.165 352.229 227.165 352.229C221.491 353.923 218.514 356.762 216.959 359.409C216.82 345.88 219.061 332.432 223.579 319.685C223.579 319.685 211.849 345.307 213.346 362.506L213.525 365.56C203.581 366.99 198.582 368.477 198.582 368.477L332.907 370.167C330.564 369.769 328.253 369.39 325.973 369.032L416.163 370.167ZM302.955 360.679L304.59 364.586C303.273 364.727 302.007 364.873 300.804 365.022C301.341 363.492 302.064 362.033 302.955 360.679V360.679Z" fill="#3F3D56"/>
<path d="M375.588 366.575C375.516 366.456 373.805 363.588 373.212 357.633C372.668 352.17 373.017 342.961 377.775 330.116C386.788 305.781 375.698 286.146 375.584 285.95L376.132 285.632C376.16 285.681 379.022 290.687 380.712 298.659C382.946 309.227 382.133 320.216 378.368 330.337C369.37 354.63 376.059 366.131 376.128 366.244L375.588 366.575Z" fill="#3F3D56"/>
<path d="M372.064 284.522C374.334 284.522 376.174 282.674 376.174 280.395C376.174 278.117 374.334 276.269 372.064 276.269C369.794 276.269 367.954 278.117 367.954 280.395C367.954 282.674 369.794 284.522 372.064 284.522Z" fill="white"/>
<path d="M385.027 299.756C387.297 299.756 389.138 297.909 389.138 295.63C389.138 293.352 387.297 291.504 385.027 291.504C382.757 291.504 380.917 293.352 380.917 295.63C380.917 297.909 382.757 299.756 385.027 299.756Z" fill="#3F3D56"/>
<path d="M376.174 309.913C378.444 309.913 380.285 308.066 380.285 305.787C380.285 303.508 378.444 301.661 376.174 301.661C373.904 301.661 372.064 303.508 372.064 305.787C372.064 308.066 373.904 309.913 376.174 309.913Z" fill="white"/>
<path d="M386.924 318.483C389.194 318.483 391.035 316.635 391.035 314.357C391.035 312.078 389.194 310.23 386.924 310.23C384.654 310.23 382.814 312.078 382.814 314.357C382.814 316.635 384.654 318.483 386.924 318.483Z" fill="white"/>
<path d="M373.013 331.813C375.283 331.813 377.123 329.966 377.123 327.687C377.123 325.408 375.283 323.561 373.013 323.561C370.743 323.561 368.902 325.408 368.902 327.687C368.902 329.966 370.743 331.813 373.013 331.813Z" fill="#3F3D56"/>
<path d="M378.071 366.727C378.071 366.727 373.961 356.57 386.292 348.953L378.071 366.727Z" fill="#3F3D56"/>
<path d="M373.016 366.543C373.016 366.543 371.145 355.742 356.667 355.834L373.016 366.543Z" fill="#3F3D56"/>
<path d="M306.546 190.425C302.037 182.777 293.117 182.421 293.117 182.421C293.117 182.421 284.425 181.305 278.849 192.952C273.652 203.808 266.48 214.29 277.695 216.832L279.721 210.502L280.975 217.303C282.572 217.418 284.174 217.446 285.774 217.385C297.784 216.996 309.222 217.499 308.854 213.173C308.364 207.421 310.884 197.783 306.546 190.425Z" fill="#2F2E41"/>
<path d="M274.049 252.147L273.1 269.286L300.924 272.143L301.872 254.369L292.387 248.339L274.049 252.147Z" fill="#A0616A"/>
<path d="M348.825 289.759C347.99 281.662 314.865 277.986 306.904 277.219L303.927 275.476L302.979 265.319C302.979 265.319 273.574 262.78 271.361 262.463C269.148 262.145 267.251 266.271 267.251 267.223C267.251 267.912 266.837 272.826 265.176 275.739C261.589 278.632 250.651 287.737 250.651 291.187C250.651 295.313 259.346 347.207 259.346 347.207L260.295 357.998L269.148 359.585L268.515 325.942C268.515 325.942 271.677 306.58 267.251 301.185V298.963C267.251 298.963 280.234 295.567 284.809 291.87C286.135 291.584 289.861 290.88 291.919 291.493C292.201 291.659 292.527 291.831 292.888 292.005C292.935 292.047 292.978 292.092 293.019 292.139C293.019 292.139 293.032 292.119 293.055 292.084C298.974 294.865 314.159 298.373 320.369 297.376C325.158 296.642 330.055 297.536 334.28 299.915C330.802 304.359 333.332 317.054 333.332 317.054L333.648 344.35L338.075 349.746H344.082V334.829C344.082 334.829 349.773 298.963 348.825 289.759Z" fill="#2F2E41"/>
<path d="M290.332 211.362C296.094 211.362 300.766 206.673 300.766 200.888C300.766 195.103 296.094 190.414 290.332 190.414C284.569 190.414 279.898 195.103 279.898 200.888C279.898 206.673 284.569 211.362 290.332 211.362Z" fill="#A0616A"/>
<path d="M284.009 207.553C284.009 207.553 285.59 214.536 283.376 215.171C281.625 215.753 279.932 216.497 278.317 217.392L275.788 225.645V233.897L306.457 237.388L307.406 234.532V230.406L303.928 224.058L302.347 222.471C302.347 222.471 295.391 214.853 296.972 207.553H284.009Z" fill="#A0616A"/>
<path d="M311.358 232.786C311.358 232.786 312.306 243.895 311.358 248.973C310.409 254.052 310.725 261.669 310.725 261.669L303.77 260.399V243.26L305.35 234.056L311.358 232.786Z" fill="#A0616A"/>
<path d="M294.209 188.934C297.771 188.934 300.659 186.035 300.659 182.459C300.659 178.884 297.771 175.985 294.209 175.985C290.647 175.985 287.76 178.884 287.76 182.459C287.76 186.035 290.647 188.934 294.209 188.934Z" fill="#2F2E41"/>
<path d="M287.081 180.756C287.081 179.157 287.67 177.614 288.736 176.425C289.801 175.237 291.267 174.486 292.851 174.318C291.952 174.221 291.042 174.316 290.182 174.596C289.321 174.876 288.529 175.334 287.856 175.941C287.183 176.548 286.645 177.291 286.277 178.12C285.909 178.95 285.719 179.848 285.719 180.756C285.719 181.664 285.909 182.562 286.277 183.391C286.645 184.221 287.183 184.963 287.856 185.57C288.529 186.177 289.321 186.636 290.182 186.915C291.042 187.195 291.952 187.29 292.851 187.194C291.267 187.025 289.801 186.274 288.736 185.086C287.67 183.897 287.081 182.355 287.081 180.756V180.756Z" fill="#2F2E41"/>
<path d="M304.553 189.688L295.741 185.053L283.571 186.949L281.053 198.113L287.321 197.871L289.072 193.769V197.803L291.964 197.691L293.643 191.162L294.692 198.113L304.973 197.902L304.553 189.688Z" fill="#2F2E41"/>
<path d="M311.041 272.143H272.468V310.865H311.041V272.143Z" fill="#F2F2F2"/>
<path d="M266.144 227.39L260.453 250.878C260.453 250.878 258.24 255.956 263.299 259.13C268.358 262.304 279.74 266.43 279.74 266.43C279.74 266.43 289.858 280.395 291.122 274.682C292.387 268.969 283.534 261.669 283.534 261.669L268.041 251.83L274.049 235.325L266.144 227.39Z" fill="#A0616A"/>
<path d="M307.247 256.908C307.247 256.908 311.99 256.273 311.674 261.669C311.358 267.065 305.034 267.7 305.034 267.7C305.034 267.7 302.188 279.761 298.078 277.539C293.968 275.317 300.291 263.256 300.291 263.256L305.666 259.13L307.247 256.908Z" fill="#A0616A"/>
<path d="M276.736 225.327L281.795 214.853L271.678 218.345C271.678 218.345 265.986 221.201 265.67 227.867C265.354 234.532 272.942 238.023 272.942 238.023C272.942 238.023 274.207 247.545 273.575 248.815C272.942 250.084 273.575 255.162 273.575 255.162C273.575 255.162 285.748 251.83 291.755 255.956C297.762 260.082 302.663 257.702 302.663 257.702C302.663 257.702 302.347 249.767 304.876 248.497C307.406 247.228 309.619 241.197 307.406 237.388C307.406 237.388 312.465 238.023 312.148 233.262C311.832 228.501 309.303 224.375 305.193 222.471C301.082 220.566 300.628 220.262 300.628 220.262L306.457 231.04V233.897C306.457 233.897 296.138 227.285 285.928 226.734C282.597 226.581 279.326 227.661 276.737 229.771L276.736 229.771V225.327Z" fill="#2F2E41"/>
<path d="M268.656 347.34C268.656 347.34 273.143 349.459 274.463 350.254C275.782 351.049 281.061 349.459 280.005 354.228C278.949 358.997 274.463 363.501 274.463 363.501C274.463 363.501 272.351 365.885 272.351 367.475C272.351 369.064 267.073 381.251 260.739 380.721C254.405 380.192 255.461 373.833 255.461 373.833L256.78 366.945C256.78 366.945 259.419 355.288 259.947 355.553C260.475 355.818 261.795 357.672 261.795 357.672C261.795 357.672 268.392 355.023 268.656 347.34Z" fill="#D0CDE1"/>
<path d="M334.456 339.405C334.456 339.405 329.97 341.524 328.65 342.319C327.331 343.114 322.052 341.524 323.108 346.293C324.164 351.062 328.65 355.566 328.65 355.566C328.65 355.566 330.761 357.95 330.761 359.54C330.761 361.129 336.04 373.316 342.374 372.787C348.708 372.257 347.652 365.898 347.652 365.898L346.333 359.01C346.333 359.01 343.693 347.353 343.166 347.618C342.638 347.883 341.318 349.737 341.318 349.737C341.318 349.737 334.72 347.088 334.456 339.405Z" fill="#D0CDE1"/>
</g>
<defs>
<clipPath id="clip0">
<rect width="341" height="282" fill="white" transform="translate(79 160)"/>
</clipPath>
</defs>
</svg>
