<svg width="972" height="662" viewBox="0 0 972 662" fill="none" xmlns="http://www.w3.org/2000/svg">
<g clip-path="url(#clip0)">
<path d="M145.834 537.809C138.85 564.407 114.375 581.029 114.375 581.029C114.375 581.029 101.225 554.527 108.209 527.929C115.194 501.331 139.668 484.709 139.668 484.709C139.668 484.709 152.819 511.211 145.834 537.809Z" fill="#E1D87B"/>
<path d="M135.24 532.183C115.678 551.51 113.489 581.014 113.489 581.014C113.489 581.014 143.017 579.183 162.58 559.855C182.143 540.528 184.331 511.024 184.331 511.024C184.331 511.024 154.803 512.856 135.24 532.183Z" fill="#2B6CB0"/>
<path d="M159.772 573.241H83.251C74.8576 573.241 68.0535 580.045 68.0535 588.439V603.54C68.0535 611.933 74.8576 618.737 83.251 618.737H159.772C168.165 618.737 174.97 611.933 174.97 603.54V588.439C174.97 580.045 168.165 573.241 159.772 573.241Z" fill="#2B6CB0"/>
<g opacity="0.7">
<path opacity="0.7" d="M895.494 544.178V527.785H813.525V603.606C813.525 605.705 813.939 607.784 814.742 609.723C815.545 611.662 816.723 613.424 818.207 614.908C819.691 616.393 821.453 617.57 823.392 618.373C825.332 619.177 827.41 619.59 829.509 619.59H879.51C883.75 619.59 887.815 617.906 890.813 614.908C893.81 611.911 895.494 607.845 895.494 603.606V586.802C901.139 586.791 906.55 584.541 910.537 580.546C914.525 576.55 916.765 571.135 916.765 565.49C916.765 559.845 914.525 554.431 910.537 550.435C906.55 546.439 901.139 544.189 895.494 544.178V544.178ZM895.494 578.605V552.375C898.973 552.375 902.308 553.757 904.768 556.217C907.228 558.676 908.609 562.012 908.609 565.49C908.609 568.969 907.228 572.304 904.768 574.764C902.308 577.224 898.973 578.605 895.494 578.605V578.605Z" fill="url(#paint0_linear)"/>
</g>
<path d="M892.857 546.744C889.008 546.744 885.246 547.886 882.046 550.024C878.846 552.162 876.352 555.201 874.879 558.757C873.407 562.312 873.021 566.225 873.772 569.999C874.523 573.774 876.376 577.241 879.098 579.963C881.819 582.684 885.286 584.537 889.061 585.288C892.835 586.039 896.748 585.653 900.304 584.181C903.859 582.708 906.898 580.214 909.036 577.014C911.175 573.814 912.316 570.052 912.316 566.203C912.316 561.042 910.266 556.093 906.616 552.444C902.967 548.795 898.018 546.744 892.857 546.744ZM892.857 578.178C890.489 578.178 888.174 577.475 886.204 576.16C884.235 574.844 882.7 572.974 881.794 570.786C880.888 568.598 880.65 566.19 881.112 563.867C881.575 561.544 882.715 559.41 884.39 557.736C886.064 556.061 888.198 554.921 890.521 554.459C892.844 553.997 895.251 554.234 897.44 555.14C899.628 556.046 901.498 557.581 902.814 559.55C904.129 561.52 904.832 563.835 904.832 566.203C904.832 569.379 903.57 572.425 901.324 574.67C899.079 576.916 896.033 578.178 892.857 578.178V578.178Z" fill="#2B6CB0"/>
<path opacity="0.1" d="M892.857 546.744C889.008 546.744 885.246 547.886 882.046 550.024C878.846 552.162 876.352 555.201 874.879 558.757C873.407 562.312 873.021 566.225 873.772 569.999C874.523 573.774 876.376 577.241 879.098 579.963C881.819 582.684 885.286 584.537 889.061 585.288C892.835 586.039 896.748 585.653 900.304 584.181C903.859 582.708 906.898 580.214 909.036 577.014C911.175 573.814 912.316 570.052 912.316 566.203C912.316 561.042 910.266 556.093 906.616 552.444C902.967 548.795 898.018 546.744 892.857 546.744ZM892.857 578.178C890.489 578.178 888.174 577.475 886.204 576.16C884.235 574.844 882.7 572.974 881.794 570.786C880.888 568.598 880.65 566.19 881.112 563.867C881.575 561.544 882.715 559.41 884.39 557.736C886.064 556.061 888.198 554.921 890.521 554.459C892.844 553.997 895.251 554.234 897.44 555.14C899.628 556.046 901.498 557.581 902.814 559.55C904.129 561.52 904.832 563.835 904.832 566.203C904.832 569.379 903.57 572.425 901.324 574.67C899.079 576.916 896.033 578.178 892.857 578.178V578.178Z" fill="#2B6CB0"/>
<path d="M818.016 531.776H892.857V605.848C892.857 608.434 891.83 610.914 890.001 612.743C888.173 614.571 885.693 615.598 883.107 615.598H827.766C825.18 615.598 822.7 614.571 820.871 612.743C819.043 610.914 818.016 608.434 818.016 605.848V531.776Z" fill="#2B6CB0"/>
<path d="M971.44 615.598H0V648.529H971.44V615.598Z" fill="#E0E0E0"/>
<path d="M489.331 521.722C538.226 521.722 618.145 507.148 656.127 482.109C652.013 459.625 642.548 423.242 633.577 390.681C622.153 349.213 550.05 320.465 507.037 320.465H465.588C422.442 320.465 350.235 349.38 338.955 391.025C330.358 422.761 321.182 457.614 316.616 478.077C355.751 505.575 437.868 521.722 489.331 521.722Z" fill="#2B6CB0"/>
<path d="M486.806 280.733C551.002 280.733 603.042 228.692 603.042 164.497C603.042 100.302 551.002 48.261 486.806 48.261C422.611 48.261 370.571 100.302 370.571 164.497C370.571 228.692 422.611 280.733 486.806 280.733Z" fill="black"/>
<path opacity="0.1" d="M449.291 261.311H523.77V320.894C523.77 330.771 519.847 340.243 512.863 347.226C505.879 354.21 496.407 358.133 486.531 358.133H486.531C476.654 358.133 467.182 354.21 460.199 347.226C453.215 340.243 449.291 330.771 449.291 320.894V261.311H449.291Z" fill="black"/>
<path d="M459.974 258.553H513.087C515.92 258.553 518.638 259.678 520.641 261.682C522.645 263.685 523.77 266.402 523.77 269.236V318.136C523.77 328.012 519.847 337.484 512.863 344.468C505.879 351.452 496.407 355.375 486.531 355.375H486.531C476.654 355.375 467.182 351.452 460.199 344.468C453.215 337.484 449.291 328.012 449.291 318.136V269.236C449.291 266.402 450.417 263.685 452.42 261.682C454.424 259.678 457.141 258.553 459.974 258.553V258.553Z" fill="#DE8D68"/>
<path opacity="0.1" d="M449.429 289.434C473.433 298.402 499.855 298.475 523.908 289.639V280.49H449.429V289.434Z" fill="black"/>
<path d="M486.307 294.421C544.988 294.421 592.559 246.626 592.559 187.668C592.559 128.71 544.988 80.9153 486.307 80.9153C427.625 80.9153 380.054 128.71 380.054 187.668C380.054 246.626 427.625 294.421 486.307 294.421Z" fill="#DE8D68"/>
<path opacity="0.1" d="M410.766 90.5649C410.766 90.5649 455.756 181.888 582.668 128.84L553.122 82.507L500.746 63.7053L410.766 90.5649Z" fill="black"/>
<path d="M410.766 89.2219C410.766 89.2219 455.756 180.545 582.668 127.497L553.122 81.164L500.746 62.3623L410.766 89.2219Z" fill="black"/>
<path d="M410.367 83.0522C413.399 73.661 418.641 65.1347 425.652 58.1896C446.654 37.4331 481.074 33.0507 498.731 9.38367C502.971 15.9512 499.69 26.0519 492.401 28.875C509.295 28.7654 528.924 27.2848 538.484 13.3557C540.849 18.8591 541.602 24.9204 540.658 30.8352C539.713 36.75 537.109 42.2751 533.148 46.7684C548.143 47.449 564.141 57.625 565.11 72.6034C565.756 82.5821 559.499 92.0299 551.299 97.7526C543.099 103.475 533.178 106.102 523.413 108.255C494.908 114.54 391.766 140.882 410.367 83.0522Z" fill="black"/>
<path d="M593.556 188.602H590.726L535.663 237.621C482.616 212.776 443.669 237.621 443.669 237.621L385.921 190.617L380.098 191.349C380.888 219.366 392.665 245.95 412.887 265.358C433.109 284.767 460.153 295.444 488.179 295.083C516.206 294.723 542.966 283.354 562.682 263.431C582.398 243.509 593.487 216.631 593.556 188.602V188.602ZM486.645 256.423C465.877 256.423 449.041 252.214 449.041 247.022C449.041 241.83 465.877 237.621 486.645 237.621C507.412 237.621 524.248 241.83 524.248 247.022C524.248 252.214 507.412 256.423 486.645 256.423Z" fill="black"/>
<path d="M380.011 206.186C385.496 206.186 389.942 197.85 389.942 187.566C389.942 177.283 385.496 168.947 380.011 168.947C374.527 168.947 370.081 177.283 370.081 187.566C370.081 197.85 374.527 206.186 380.011 206.186Z" fill="#FDA57D"/>
<path d="M593.545 206.186C599.03 206.186 603.476 197.85 603.476 187.566C603.476 177.283 599.03 168.947 593.545 168.947C588.061 168.947 583.615 177.283 583.615 187.566C583.615 197.85 588.061 206.186 593.545 206.186Z" fill="#FDA57D"/>
<g opacity="0.7">
<path opacity="0.7" d="M677.782 377.704H293.658C285.65 377.704 279.158 384.196 279.158 392.204V601.098C279.158 609.106 285.65 615.598 293.658 615.598H677.782C685.79 615.598 692.282 609.106 692.282 601.098V392.204C692.282 384.196 685.79 377.704 677.782 377.704Z" fill="url(#paint1_linear)"/>
</g>
<path d="M657.963 382.094H313.477C298.657 382.094 286.642 394.108 286.642 408.929V588.763C286.642 603.584 298.657 615.598 313.477 615.598H657.963C672.784 615.598 684.798 603.584 684.798 588.763V408.929C684.798 394.108 672.784 382.094 657.963 382.094Z" fill="#E53E3E"/>
<path d="M485.72 512.317C493.16 512.317 499.192 506.286 499.192 498.846C499.192 491.406 493.16 485.375 485.72 485.375C478.28 485.375 472.249 491.406 472.249 498.846C472.249 506.286 478.28 512.317 485.72 512.317Z" fill="white"/>
<path d="M930.278 648.529H41.1627V662H930.278V648.529Z" fill="#E0E0E0"/>
<path opacity="0.1" d="M930.278 648.529H41.1627V653.019H930.278V648.529Z" fill="black"/>
<path opacity="0.1" d="M879.386 531.776V601.004C879.386 604.875 877.848 608.587 875.111 611.324C872.374 614.061 868.662 615.598 864.792 615.598H872.276C876.146 615.598 879.858 614.061 882.595 611.324C885.332 608.587 886.87 604.875 886.87 601.004V531.776H879.386Z" fill="black"/>
<path d="M832.785 475.979C831.522 476.195 830.098 476.536 829.48 477.657C828.498 479.437 830.277 481.444 831.9 482.667C834.9 484.926 838.061 487.145 840.099 490.298C842.138 493.452 842.779 497.852 840.55 500.874C837.64 504.82 830.698 505.669 830.026 510.526C829.594 513.644 832.29 516.304 835.021 517.869C841.763 521.731 850.453 522.761 855.336 528.804C857.356 524.65 861.875 522.249 866.378 521.223C870.882 520.198 875.561 520.275 880.127 519.579C881.601 519.354 883.262 518.904 883.921 517.567C885.197 514.976 881.56 511.869 882.815 509.269C883.771 507.289 886.578 507.443 888.628 506.65C891.966 505.36 893.343 501.064 892.395 497.612C891.448 494.161 888.772 491.464 885.958 489.253C878.374 483.293 869.254 479.788 860.03 477.267C855.741 476.095 850.705 474.256 846.249 474.079C841.948 473.907 837.042 475.251 832.785 475.979Z" fill="#EEEEEE"/>
<path d="M438.971 192.416C445.346 192.416 450.514 187.248 450.514 180.873C450.514 174.497 445.346 169.329 438.971 169.329C432.595 169.329 427.427 174.497 427.427 180.873C427.427 187.248 432.595 192.416 438.971 192.416Z" fill="#383F4D"/>
<path d="M534.889 192.416C541.264 192.416 546.433 187.248 546.433 180.873C546.433 174.497 541.264 169.329 534.889 169.329C528.514 169.329 523.346 174.497 523.346 180.873C523.346 187.248 528.514 192.416 534.889 192.416Z" fill="#383F4D"/>
<path d="M442.523 180.866C444.485 180.866 446.075 179.276 446.075 177.314C446.075 175.352 444.485 173.761 442.523 173.761C440.561 173.761 438.971 175.352 438.971 177.314C438.971 179.276 440.561 180.866 442.523 180.866Z" fill="white"/>
<path d="M538.442 180.866C540.403 180.866 541.994 179.276 541.994 177.314C541.994 175.352 540.403 173.761 538.442 173.761C536.48 173.761 534.889 175.352 534.889 177.314C534.889 179.276 536.48 180.866 538.442 180.866Z" fill="white"/>
<path d="M556.203 156H514.488C511.664 156.009 508.959 157.134 506.962 159.131C504.965 161.128 503.84 163.833 503.831 166.657V195.075C503.84 197.899 504.965 200.605 506.962 202.601C508.959 204.598 511.664 205.724 514.488 205.732H556.203C559.027 205.724 561.732 204.598 563.729 202.601C565.726 200.605 566.851 197.899 566.86 195.075V166.657C566.851 163.833 565.726 161.128 563.729 159.131C561.732 157.134 559.027 156.009 556.203 156V156ZM557.976 187.977C557.967 190.801 556.842 193.507 554.845 195.503C552.848 197.5 550.143 198.626 547.319 198.634H523.346C520.522 198.626 517.817 197.5 515.82 195.503C513.823 193.507 512.698 190.801 512.689 187.977V173.768C512.698 170.944 513.823 168.239 515.82 166.242C517.817 164.245 520.522 163.12 523.346 163.111H547.326C550.147 163.121 552.85 164.247 554.845 166.242C556.84 168.237 557.966 170.94 557.976 173.761V187.977Z" fill="#212121"/>
<path d="M407 166.657V195.075C407.009 197.899 408.134 200.605 410.131 202.601C412.128 204.598 414.833 205.724 417.657 205.732H459.372C462.196 205.724 464.901 204.598 466.898 202.601C468.895 200.605 470.02 197.899 470.029 195.075V166.657C470.02 163.833 468.895 161.128 466.898 159.131C464.901 157.134 462.196 156.009 459.372 156H417.657C414.833 156.009 412.128 157.134 410.131 159.131C408.134 161.128 407.009 163.833 407 166.657V166.657ZM415.884 173.761C415.893 170.938 417.018 168.232 419.015 166.235C421.012 164.239 423.717 163.113 426.541 163.105H450.521C453.344 163.113 456.05 164.239 458.047 166.235C460.043 168.232 461.169 170.938 461.177 173.761V187.971C461.169 190.794 460.043 193.5 458.047 195.497C456.05 197.493 453.344 198.619 450.521 198.628H426.534C423.713 198.617 421.01 197.492 419.015 195.497C417.02 193.502 415.894 190.799 415.884 187.977V173.761Z" fill="#212121"/>
<path d="M502.123 184.444C497.734 181.587 492.61 180.066 487.373 180.066C482.136 180.066 477.012 181.587 472.623 184.444C470.159 186.022 466.802 186.354 464.801 184.516L462.292 182.007C460.337 180.195 461.438 175.808 465.323 173.279C471.879 169.017 479.531 166.748 487.35 166.748C495.17 166.748 502.822 169.017 509.378 173.279C513.289 175.808 514.384 180.201 512.409 182.007L509.925 184.497C507.95 186.348 504.594 186.022 502.123 184.444Z" fill="#212121"/>
</g>
<defs>
<linearGradient id="paint0_linear" x1="865.166" y1="619.59" x2="865.166" y2="527.785" gradientUnits="userSpaceOnUse">
<stop stop-color="#808080" stop-opacity="0.25"/>
<stop offset="0.53514" stop-color="#808080" stop-opacity="0.12"/>
<stop offset="1" stop-color="#808080" stop-opacity="0.1"/>
</linearGradient>
<linearGradient id="paint1_linear" x1="200942" y1="146825" x2="200942" y2="90231.3" gradientUnits="userSpaceOnUse">
<stop stop-color="#808080" stop-opacity="0.25"/>
<stop offset="0.53514" stop-color="#808080" stop-opacity="0.12"/>
<stop offset="1" stop-color="#808080" stop-opacity="0.1"/>
</linearGradient>
<clipPath id="clip0">
<rect width="971.44" height="662" fill="white"/>
</clipPath>
</defs>
</svg>
