<svg width="500" height="700" viewBox="0 0 500 700" fill="none" xmlns="http://www.w3.org/2000/svg">
<rect width="500" height="700" fill="#D37676"/>
<path d="M215.86 563C232.347 563 245.713 559.896 245.713 556.067C245.713 552.237 232.347 549.133 215.86 549.133C199.372 549.133 186.007 552.237 186.007 556.067C186.007 559.896 199.372 563 215.86 563Z" fill="#F2F2F2"/>
<path d="M218.088 486.325C234.575 486.325 247.941 483.22 247.941 479.391C247.941 475.562 234.575 472.458 218.088 472.458C201.6 472.458 188.235 475.562 188.235 479.391C188.235 483.22 201.6 486.325 218.088 486.325Z" fill="#F2F2F2"/>
<path d="M80.853 489.587C97.3403 489.587 110.706 486.483 110.706 482.654C110.706 478.825 97.3403 475.721 80.853 475.721C64.3656 475.721 51 478.825 51 482.654C51 486.483 64.3656 489.587 80.853 489.587Z" fill="#F2F2F2"/>
<path d="M231.731 274.631H61.0787V280.545H231.731V274.631Z" fill="#777777"/>
<path d="M234.404 273H57.9597V471.214H234.404V273Z" fill="url(#paint0_linear)"/>
<path d="M231.731 280.545H61.0787V467.951H231.731V280.545Z" fill="white"/>
<path d="M64.5898 279.118C65.451 279.118 66.1492 278.479 66.1492 277.69C66.1492 276.902 65.451 276.263 64.5898 276.263C63.7285 276.263 63.0303 276.902 63.0303 277.69C63.0303 278.479 63.7285 279.118 64.5898 279.118Z" fill="#FF5252"/>
<path d="M68.8761 279.118C69.7374 279.118 70.4356 278.479 70.4356 277.69C70.4356 276.902 69.7374 276.263 68.8761 276.263C68.0149 276.263 67.3167 276.902 67.3167 277.69C67.3167 278.479 68.0149 279.118 68.8761 279.118Z" fill="#FFFF00"/>
<path d="M73.1669 279.118C74.0282 279.118 74.7264 278.479 74.7264 277.69C74.7264 276.902 74.0282 276.263 73.1669 276.263C72.3056 276.263 71.6074 276.902 71.6074 277.69C71.6074 278.479 72.3056 279.118 73.1669 279.118Z" fill="#69F0AE"/>
<g opacity="0.2">
<path opacity="0.2" d="M132.369 287.683H65.98V291.353H132.369V287.683Z" fill="#00B0FF"/>
</g>
<path d="M179.6 302.773H113.21V306.444H179.6V302.773Z" fill="#777777"/>
<path opacity="0.5" d="M132.369 421.049H65.98V424.719H132.369V421.049Z" fill="#00B0FF"/>
<path d="M163.559 420.641H141.281V425.127H163.559V420.641Z" fill="url(#paint1_linear)"/>
<path d="M163.559 443.48H141.281V447.967H163.559V443.48Z" fill="url(#paint2_linear)"/>
<path d="M209.007 443.48H186.729V447.967H209.007V443.48Z" fill="url(#paint3_linear)"/>
<path d="M163.114 421.049H142.172V424.719H163.114V421.049Z" fill="#00B0FF"/>
<path d="M163.114 443.888H142.172V447.559H163.114V443.888Z" fill="#00B0FF"/>
<path d="M208.116 443.888H187.174V447.559H208.116V443.888Z" fill="#00B0FF"/>
<path d="M132.369 432.468H65.98V436.139H132.369V432.468Z" fill="#777777"/>
<path opacity="0.5" d="M208.561 432.468H142.172V436.139H208.561V432.468Z" fill="#00B0FF"/>
<path d="M208.561 455.308H142.172V458.978H208.561V455.308Z" fill="#777777"/>
<path opacity="0.5" d="M132.369 443.888H65.98V447.559H132.369V443.888Z" fill="#00B0FF"/>
<path d="M132.369 455.308H65.98V458.978H132.369V455.308Z" fill="#777777"/>
<path d="M150.638 308.891H113.21V312.561H150.638V308.891Z" fill="#777777"/>
<path d="M170.243 308.891H157.321V312.561H170.243V308.891Z" fill="#777777"/>
<path d="M150.638 321.126H113.21V324.797H150.638V321.126Z" fill="#777777"/>
<path d="M170.243 321.126H157.321V324.797H170.243V321.126Z" fill="#777777"/>
<path d="M179.6 315.008H113.21V318.679H179.6V315.008Z" fill="#777777"/>
<g opacity="0.2">
<path opacity="0.2" d="M225.938 287.683H159.549V291.353H225.938V287.683Z" fill="#00B0FF"/>
</g>
<path d="M204.997 302.365H196.977V306.851H204.997V302.365Z" fill="url(#paint4_linear)"/>
<path d="M204.997 308.483H196.977V312.969H204.997V308.483Z" fill="url(#paint5_linear)"/>
<path d="M204.997 314.6H196.977V319.087H204.997V314.6Z" fill="url(#paint6_linear)"/>
<path d="M204.551 302.773H197.422V306.444H204.551V302.773Z" fill="#FF5252"/>
<path d="M204.551 308.891H197.422V312.561H204.551V308.891Z" fill="#FF9800"/>
<path d="M204.551 315.008H197.422V318.679H204.551V315.008Z" fill="#69F0AE"/>
<path d="M204.997 320.718H196.977V325.204H204.997V320.718Z" fill="url(#paint7_linear)"/>
<path d="M204.551 321.126H197.422V324.797H204.551V321.126Z" fill="#00B0FF"/>
<path d="M228.166 347.228H64.6433V408.405H228.166V347.228Z" fill="url(#paint8_linear)"/>
<path opacity="0.5" d="M225.938 348.452H65.98V406.366H225.938V348.452Z" fill="#00B0FF"/>
<path opacity="0.5" d="M70.8812 352.938H225.938V348.452H65.98V406.366H70.8812V352.938Z" fill="white"/>
<path d="M229.652 343.385L65.4711 357.062L71.6093 418.799L235.79 405.123L229.652 343.385Z" fill="url(#paint9_linear)"/>
<path d="M227.593 345.19L68.2931 358.46L74.0275 416.136L233.328 402.866L227.593 345.19Z" fill="white"/>
<path opacity="0.5" d="M80.1846 405.791L77.4221 373.665C77.4221 373.665 91.6803 359.798 120.464 370.076C149.247 380.354 162.819 373.098 167.498 366.156C172.176 359.215 196.46 351.474 204.328 363.085C212.197 374.697 221.634 361.642 221.634 361.642L224.825 393.727L80.1846 405.791Z" fill="#00B0FF"/>
<path d="M94.679 366.666L94.9196 369.105" stroke="#00B0FF" stroke-miterlimit="10"/>
<path d="M95.3873 373.779L97.9449 399.498" stroke="#00B0FF" stroke-miterlimit="10" stroke-dasharray="11.51 11.51"/>
<path d="M98.1766 401.835L98.4217 404.27" stroke="#00B0FF" stroke-miterlimit="10"/>
<path d="M122.077 370.647L122.322 373.082" stroke="#00B0FF" stroke-miterlimit="10"/>
<path d="M122.848 378.388L124.697 396.949" stroke="#00B0FF" stroke-miterlimit="10" stroke-dasharray="13.06 13.06"/>
<path d="M124.96 399.6L125.2 402.039" stroke="#00B0FF" stroke-miterlimit="10"/>
<path d="M150.032 375.003L150.299 377.438" stroke="#00B0FF" stroke-miterlimit="10"/>
<path d="M150.731 381.414L152.237 395.322" stroke="#00B0FF" stroke-miterlimit="10" stroke-dasharray="9.79 9.79"/>
<path d="M152.456 397.308L152.718 399.747" stroke="#00B0FF" stroke-miterlimit="10"/>
<path d="M175.157 360.622L175.398 363.061" stroke="#00B0FF" stroke-miterlimit="10"/>
<path d="M175.852 367.641L178.361 392.842" stroke="#00B0FF" stroke-miterlimit="10" stroke-dasharray="11.28 11.28"/>
<path d="M178.588 395.13L178.833 397.569" stroke="#00B0FF" stroke-miterlimit="10"/>
<path d="M193.292 357.257L193.532 359.692" stroke="#00B0FF" stroke-miterlimit="10"/>
<path d="M194.014 364.537L196.665 391.182" stroke="#00B0FF" stroke-miterlimit="10" stroke-dasharray="11.93 11.93"/>
<path d="M196.905 393.605L197.15 396.039" stroke="#00B0FF" stroke-miterlimit="10"/>
<path d="M94.7971 368.54C96.0224 368.438 96.9253 367.446 96.8138 366.325C96.7023 365.203 95.6186 364.377 94.3932 364.479C93.1679 364.581 92.265 365.573 92.3765 366.694C92.488 367.816 93.5717 368.642 94.7971 368.54Z" fill="#FF9800"/>
<path d="M122.066 372.823C123.291 372.721 124.194 371.729 124.082 370.607C123.971 369.486 122.887 368.659 121.662 368.761C120.436 368.863 119.534 369.855 119.645 370.977C119.757 372.098 120.84 372.925 122.066 372.823Z" fill="#FF5252"/>
<path d="M150.227 377.028C151.453 376.925 152.356 375.933 152.244 374.812C152.133 373.69 151.049 372.864 149.824 372.966C148.598 373.068 147.695 374.06 147.807 375.181C147.918 376.303 149.002 377.13 150.227 377.028Z" fill="#69F0AE"/>
<path d="M175.276 363.474C176.991 363.331 178.256 361.942 178.099 360.372C177.943 358.802 176.426 357.645 174.711 357.787C172.995 357.93 171.731 359.319 171.887 360.889C172.043 362.46 173.561 363.617 175.276 363.474Z" fill="url(#paint10_linear)"/>
<path d="M193.751 360.298C195.466 360.156 196.73 358.767 196.574 357.197C196.418 355.626 194.901 354.469 193.185 354.612C191.47 354.755 190.206 356.144 190.362 357.714C190.518 359.284 192.035 360.441 193.751 360.298Z" fill="url(#paint11_linear)"/>
<path d="M175.195 362.661C176.421 362.559 177.324 361.567 177.212 360.446C177.1 359.324 176.017 358.498 174.791 358.6C173.566 358.702 172.663 359.694 172.775 360.815C172.886 361.937 173.97 362.764 175.195 362.661Z" fill="#00B0FF"/>
<path d="M193.67 359.486C194.895 359.384 195.798 358.392 195.687 357.27C195.575 356.149 194.491 355.322 193.266 355.424C192.041 355.527 191.138 356.519 191.249 357.64C191.361 358.762 192.445 359.588 193.67 359.486Z" fill="#00B0FF"/>
<path d="M221.907 364.505C223.133 364.403 224.036 363.411 223.924 362.289C223.813 361.167 222.729 360.341 221.503 360.443C220.278 360.545 219.375 361.537 219.487 362.659C219.598 363.78 220.682 364.607 221.907 364.505Z" fill="#69F0AE"/>
<g opacity="0.2">
<path opacity="0.2" d="M226.224 402.989L226.255 403.083C226.598 402.908 226.224 402.989 226.224 402.989Z" fill="url(#paint12_linear)"/>
</g>
<g opacity="0.2">
<path opacity="0.2" d="M222.534 471.499L229.788 470.427L228.79 466.348V466.291H228.763L223.621 444.675V428.912C223.621 428.712 223.609 428.512 223.586 428.312C231.267 418.989 226.705 404.36 226.259 403.083C226.179 403.12 226.059 403.169 225.889 403.23C225.834 402.659 225.716 402.095 225.537 401.545C225.537 401.545 223.31 400.248 222.093 401.917C221.033 403.373 221.821 404.262 222.04 404.47L221.888 404.515C222.23 405.006 222.468 405.551 222.592 406.121C222.522 405.981 222.441 405.845 222.352 405.714C222.071 405.669 221.906 405.628 221.906 405.628L221.853 405.583L221.701 405.628C222.472 406.66 222.744 408.483 222.708 410.644C222.442 410.307 222.144 409.992 221.817 409.702C220.408 408.471 218.551 407.762 216.604 407.712H216.234C216.032 407.712 215.83 407.724 215.628 407.749H215.476L215.223 407.781L214.933 407.83L214.723 407.871L214.363 407.961L214.229 407.998C214.077 408.042 213.93 408.087 213.783 408.14C213.295 408.358 212.783 408.527 212.255 408.646C212.184 408.646 212.112 408.646 212.037 408.666C211.441 408.705 210.85 408.55 210.366 408.23L210.205 408.116C210.145 408.068 210.087 408.018 210.032 407.965C209.971 408.106 209.945 408.258 209.956 408.409C209.989 408.769 210.177 409.102 210.477 409.335C210.562 409.402 210.654 409.46 210.753 409.507C210.9 409.577 211.061 409.619 211.226 409.629H211.395H211.355C211.253 409.674 211.15 409.715 211.043 409.751H211.021C210.905 409.788 210.794 409.821 210.673 409.849C210.089 409.984 209.479 409.993 208.891 409.874L208.699 409.833C208.606 409.808 208.508 409.784 208.419 409.755C208.448 409.817 208.481 409.877 208.517 409.935L208.552 409.988L208.633 410.102L208.682 410.159L208.771 410.261L208.824 410.314L208.936 410.416L208.98 410.453L209.145 410.579L209.203 410.616L209.323 410.693L209.403 410.738L209.51 410.795L209.599 410.836L209.711 410.881L209.804 410.918L209.929 410.959L210.085 410.999L210.201 411.028H210.312H210.415H210.531H210.976C211.206 411.01 211.432 410.959 211.645 410.877L211.235 411.032L211.03 411.097L210.82 411.167L210.611 411.224L210.397 411.281L210.188 411.33L209.965 411.379L209.76 411.415L209.524 411.452L209.328 411.481L209.074 411.509H208.891H208.601H208.45H208.004C208.251 411.575 208.48 411.686 208.677 411.835C208.805 411.92 208.944 411.988 209.092 412.039C209.157 412.057 209.224 412.07 209.292 412.08H209.35H209.493H210.094H210.29C210.696 412.118 211.09 412.233 211.444 412.419C211.632 412.529 211.799 412.667 211.939 412.826C211.876 412.92 211.814 413.01 211.76 413.108C211.707 413.206 211.667 413.271 211.622 413.357C211.533 413.525 211.455 413.698 211.386 413.875C211.132 414.508 211.003 415.178 211.003 415.853C211.003 415.979 211.003 416.101 211.003 416.224C211.003 416.256 211.003 416.293 211.003 416.326C211.003 416.424 211.015 416.522 211.039 416.619V416.697C211.056 416.817 211.08 416.935 211.11 417.052V417.121C211.134 417.219 211.16 417.315 211.19 417.411L211.217 417.496C211.292 417.727 211.383 417.953 211.489 418.173L211.52 418.239C211.57 418.339 211.622 418.437 211.676 418.532V418.561C211.741 418.67 211.809 418.777 211.881 418.883V418.907C211.946 419.005 212.016 419.101 212.09 419.193L212.117 419.226C212.277 419.427 212.451 419.619 212.638 419.801V419.801C213.124 420.269 213.691 420.659 214.318 420.955C214.297 421.042 214.28 421.131 214.269 421.22V421.22C214.264 421.312 214.264 421.405 214.269 421.497V423.651C214.135 423.716 214.005 423.785 213.877 423.859C208.294 421.538 199.98 405.098 199.98 405.098H199.779C200.59 404.543 199.779 402.129 199.779 402.129C199.303 401.869 198.771 401.707 198.22 401.656H197.774H197.694H197.636H197.556H197.502L197.413 401.68H197.369L197.235 401.725L197.11 401.778L197.066 401.798L196.981 401.843L196.923 402.092L196.843 402.141L196.794 402.178L196.718 402.235L196.669 402.275L196.593 402.341L196.549 402.386L196.473 402.467L196.437 402.508L196.326 402.647C195.11 404.315 196.326 405.245 196.326 405.245C196.248 405.888 196.211 406.535 196.215 407.182C196.126 419.197 210.174 428.508 210.892 428.973C210.575 429.724 207.964 436.372 210.923 444.671C210.932 444.692 210.944 444.711 210.958 444.728C207.59 447.57 205.089 451.167 203.705 455.164C202.32 459.161 202.099 463.42 203.063 467.519L203.121 467.768H203.25C203.237 467.823 203.221 467.877 203.201 467.931C203.167 468.029 203.123 468.124 203.072 468.216C202.983 468.373 202.874 468.52 202.747 468.653V468.653C202.609 468.799 202.448 468.946 202.279 469.097L202.101 469.252C201.392 469.872 200.675 470.476 201.209 470.72H208.878V467.657H209.011C209.011 467.657 208.958 467.564 208.878 467.38V467.348H208.851C208.45 466.401 207.514 463.473 209.011 458.962C210.834 453.395 217.923 450.614 217.923 450.614L218.052 451.021H218.025L223.586 467.743C223.586 467.808 223.586 467.874 223.564 467.943C223.538 468.101 223.498 468.256 223.443 468.408C223.401 468.525 223.35 468.639 223.292 468.751C222.949 469.399 222.356 470.162 222.098 470.733C222.061 470.811 222.029 470.891 222.004 470.973C221.973 471.066 221.963 471.163 221.973 471.259C221.98 471.32 222.007 471.378 222.048 471.426C222.09 471.475 222.146 471.511 222.209 471.532V471.532H222.311L222.525 471.499H222.534ZM220.387 423.891C220.247 423.821 220.098 423.754 219.941 423.692V421.669C219.94 421.514 219.923 421.36 219.892 421.208C220.372 420.998 220.821 420.734 221.229 420.421C220.961 421.669 220.663 422.864 220.391 423.891H220.387Z" fill="url(#paint13_linear)"/>
</g>
<path d="M196.201 407.023C196.201 407.023 194.865 405.995 196.201 404.143C197.538 402.292 200.02 403.736 200.02 403.736C200.02 403.736 200.911 406.407 200.02 407.023C199.129 407.639 196.201 407.023 196.201 407.023Z" fill="#CA7070"/>
<path d="M210.085 475.81H203.896C203.919 476.077 203.879 476.345 203.778 476.597C203.677 476.848 203.519 477.076 203.313 477.266C202.479 478.147 200.804 479.212 201.593 479.575H210.085V475.81Z" fill="#00695C"/>
<path opacity="0.2" d="M203.763 477.266C203.969 477.076 204.127 476.848 204.228 476.597C204.329 476.345 204.369 476.077 204.346 475.81H203.901C203.924 476.077 203.883 476.345 203.783 476.597C203.682 476.848 203.523 477.076 203.317 477.266C202.484 478.147 200.809 479.212 201.597 479.575H202.043C201.254 479.212 202.929 478.151 203.763 477.266Z" fill="white"/>
<path d="M232.123 474.644L226.331 475.504C226.491 476.136 226.397 476.799 226.068 477.372C225.435 478.596 224.014 480.121 224.869 480.452L233.255 479.228L232.123 474.644Z" fill="#00695C"/>
<path d="M229.298 404.515C229.298 404.515 235.924 423.647 224.811 434.238L221.603 431.991C221.603 431.991 228.171 411.109 224.495 406.207C230.982 404.229 229.298 404.515 229.298 404.515Z" fill="#00695C"/>
<path d="M224.718 406.203C224.718 406.203 223.381 405.175 224.718 403.324C226.054 401.472 228.536 402.916 228.536 402.916C228.536 402.916 229.427 405.587 228.536 406.203C227.645 406.819 224.718 406.203 224.718 406.203Z" fill="#CA7070"/>
<path opacity="0.2" d="M226.513 477.376C226.844 476.802 226.937 476.137 226.776 475.504L232.123 474.689V474.624L226.331 475.504C226.491 476.136 226.397 476.799 226.068 477.372C225.435 478.596 224.014 480.121 224.869 480.452L225.221 480.399C224.584 479.991 225.907 478.527 226.513 477.376Z" fill="white"/>
<path d="M222.361 425.217C222.361 423.627 220.953 422.337 219.217 422.337C217.481 422.337 216.074 423.627 216.074 425.217V427.986C216.074 429.576 217.481 430.866 219.217 430.866C220.953 430.866 222.361 429.576 222.361 427.986V425.217Z" fill="#CA7070"/>
<path opacity="0.2" d="M222.053 433.223C222.053 433.223 228.541 412.598 225.007 407.528C224.695 407.475 224.495 407.435 224.495 407.435L224.437 407.386L224.272 407.435C227.948 412.329 221.38 433.219 221.38 433.219L224.588 435.466L224.869 435.189L222.053 433.223Z" fill="white"/>
<path d="M219.331 425.319C223.174 425.319 226.29 422.467 226.29 418.948C226.29 415.43 223.174 412.578 219.331 412.578C215.487 412.578 212.371 415.43 212.371 418.948C212.371 422.467 215.487 425.319 219.331 425.319Z" fill="#CA7070"/>
<path opacity="0.2" d="M216.858 427.99V425.217C216.858 425.014 216.882 424.812 216.929 424.613C215.57 423.974 214.478 422.944 213.823 421.68C213.167 420.417 212.983 418.992 213.301 417.624C213.618 416.255 214.418 415.021 215.578 414.11C216.738 413.2 218.193 412.664 219.718 412.586H219.326C217.765 412.585 216.249 413.065 215.022 413.949C213.795 414.832 212.928 416.067 212.56 417.456C212.192 418.845 212.346 420.307 212.995 421.606C213.644 422.906 214.752 423.968 216.14 424.621C216.093 424.82 216.069 425.022 216.069 425.225V427.998C216.065 428.408 216.157 428.813 216.34 429.187C216.522 429.561 216.79 429.895 217.125 430.166C217.461 430.437 217.856 430.638 218.284 430.757C218.713 430.875 219.164 430.908 219.607 430.853C218.847 430.763 218.149 430.423 217.643 429.896C217.137 429.369 216.858 428.692 216.858 427.99V427.99Z" fill="white"/>
<path d="M226.402 450.699C226.402 450.699 212.977 452.086 212.482 450.699C209.002 440.935 212.482 433.231 212.482 433.231C212.482 431.541 213.216 429.921 214.521 428.726C215.826 427.532 217.596 426.86 219.442 426.86V426.86C221.288 426.86 223.058 427.532 224.363 428.726C225.669 429.921 226.402 431.541 226.402 433.231V450.699Z" fill="#00695C"/>
<path d="M226.402 450.699L232.466 476.186H226.402L220.115 457.278C220.115 457.278 212.255 460.361 210.237 466.528C208.218 472.694 210.237 476.186 210.237 476.186H203.722L203.656 475.908C202.584 471.367 202.835 466.648 204.383 462.224C205.932 457.799 208.723 453.825 212.478 450.699" fill="#263238"/>
<path opacity="0.2" d="M213.267 450.699C209.787 440.935 213.267 433.231 213.267 433.231C213.266 431.613 213.939 430.055 215.148 428.874C216.357 427.693 218.012 426.977 219.776 426.873C219.629 426.873 219.478 426.873 219.331 426.873C217.485 426.873 215.715 427.544 214.409 428.739C213.104 429.933 212.371 431.554 212.371 433.243C212.371 433.243 208.891 440.952 212.371 450.711C212.549 451.209 214.385 451.348 216.666 451.327C214.813 451.291 213.409 451.127 213.267 450.699Z" fill="white"/>
<path d="M212.371 433.125C212.371 433.125 194.41 421.616 196.206 407.023H200.247C200.247 407.023 209.898 426.155 216.083 427.99C222.267 429.826 212.371 433.125 212.371 433.125Z" fill="#00695C"/>
<g opacity="0.2">
<path opacity="0.2" d="M220.231 457.726L226.402 476.288H227.293L221.006 457.38C221.006 457.38 220.716 457.494 220.231 457.726Z" fill="white"/>
<path opacity="0.2" d="M213.378 450.801H212.487C208.732 453.927 205.941 457.901 204.392 462.326C202.844 466.75 202.593 471.469 203.664 476.01L203.731 476.288H204.622L204.556 476.01C203.484 471.469 203.735 466.75 205.283 462.326C206.832 457.901 209.623 453.927 213.378 450.801V450.801Z" fill="white"/>
</g>
<path opacity="0.2" d="M196.879 407.231H196.206C194.424 421.824 212.371 433.333 212.371 433.333L212.816 433.178C210.736 431.771 195.199 420.853 196.879 407.231Z" fill="white"/>
<path d="M213.779 416.101C214.167 416.922 214.439 417.784 214.59 418.667C215.035 420.453 216.042 422.236 217.776 423.153C218.736 423.63 219.803 423.896 220.895 423.932C222.552 424.026 224.348 423.732 225.52 422.656C226.249 421.926 226.739 421.023 226.932 420.049C227.283 418.612 227.234 417.116 226.791 415.7C226.349 414.284 225.525 412.992 224.397 411.941C223.238 410.917 221.787 410.213 220.21 409.911C218.634 409.609 216.996 409.72 215.485 410.233C214.946 410.474 214.38 410.663 213.797 410.795C213.35 410.861 212.893 410.827 212.464 410.696C212.035 410.566 211.647 410.342 211.333 410.045C211.26 410.259 211.244 410.486 211.286 410.707C211.328 410.927 211.425 411.136 211.572 411.316C211.718 411.496 211.909 411.641 212.128 411.741C212.348 411.84 212.59 411.891 212.834 411.888C212.319 412.115 211.761 412.246 211.19 412.274C210.62 412.302 210.049 412.226 209.51 412.052C209.816 412.64 210.353 413.101 211.014 413.342C211.675 413.584 212.411 413.587 213.075 413.353C211.814 413.866 210.445 414.123 209.065 414.103C209.354 414.103 209.92 414.592 210.272 414.69C210.714 414.755 211.162 414.783 211.609 414.776C212.066 414.802 212.508 414.938 212.889 415.171C213.27 415.404 213.577 415.725 213.779 416.101V416.101Z" fill="#263238"/>
<g opacity="0.2">
<path opacity="0.2" d="M212.852 411.88C212.336 412.109 211.776 412.241 211.203 412.268C211.927 412.302 212.649 412.168 213.302 411.88C213.084 411.881 212.869 411.841 212.669 411.762C212.469 411.683 212.289 411.567 212.14 411.421C211.992 411.274 211.879 411.102 211.807 410.913C211.736 410.725 211.708 410.525 211.725 410.326C211.591 410.241 211.465 410.144 211.351 410.037C211.278 410.251 211.262 410.478 211.304 410.698C211.345 410.919 211.443 411.128 211.59 411.308C211.736 411.487 211.927 411.633 212.146 411.732C212.365 411.832 212.607 411.883 212.852 411.88Z" fill="white"/>
<path opacity="0.2" d="M214.26 410.799C214.843 410.667 215.409 410.478 215.949 410.237C216.801 409.929 217.706 409.762 218.622 409.743C217.557 409.711 216.495 409.879 215.503 410.237C214.964 410.478 214.398 410.667 213.815 410.799C213.734 410.799 213.654 410.799 213.574 410.824C213.803 410.843 214.034 410.835 214.26 410.799V410.799Z" fill="white"/>
<path opacity="0.2" d="M210.7 414.694C210.348 414.601 209.782 414.115 209.493 414.107C210.873 414.127 212.241 413.871 213.503 413.357C213.22 413.463 212.918 413.522 212.612 413.528C211.475 413.928 210.265 414.125 209.047 414.107C209.337 414.107 209.902 414.597 210.254 414.694C210.56 414.762 210.876 414.786 211.19 414.764C211.024 414.76 210.86 414.736 210.7 414.694Z" fill="white"/>
<path opacity="0.2" d="M221.354 423.936C220.262 423.901 219.195 423.634 218.235 423.157C216.501 422.231 215.512 420.449 215.049 418.671C214.898 417.788 214.626 416.926 214.238 416.106C214.033 415.727 213.721 415.405 213.335 415.174C212.949 414.942 212.502 414.809 212.041 414.788C211.819 414.773 211.595 414.773 211.373 414.788H211.591C212.052 414.809 212.499 414.942 212.885 415.174C213.271 415.405 213.583 415.727 213.788 416.106C214.176 416.926 214.448 417.788 214.599 418.671C215.044 420.457 216.051 422.24 217.785 423.157C218.745 423.634 219.812 423.901 220.904 423.936C221.162 423.936 221.42 423.936 221.683 423.936H221.354Z" fill="white"/>
<path opacity="0.2" d="M212.331 413.512C211.859 413.48 211.404 413.342 211.006 413.109C210.607 412.876 210.279 412.556 210.05 412.178C209.873 412.144 209.699 412.099 209.528 412.043C209.777 412.519 210.179 412.915 210.68 413.177C211.18 413.439 211.756 413.556 212.331 413.512V413.512Z" fill="white"/>
</g>
<path opacity="0.2" d="M196.651 407.023C196.651 407.023 195.315 405.995 196.651 404.143C196.829 403.878 197.072 403.656 197.362 403.493C197.652 403.331 197.979 403.234 198.318 403.209C197.905 403.165 197.487 403.229 197.113 403.395C196.739 403.56 196.424 403.82 196.206 404.143C194.869 405.995 196.206 407.023 196.206 407.023C197.073 407.201 197.959 407.291 198.848 407.292C198.109 407.258 197.374 407.168 196.651 407.023V407.023Z" fill="white"/>
<g opacity="0.2">
<path opacity="0.2" d="M67.4726 407.121L67.5083 407.011C67.5083 407.011 67.0538 406.929 67.4726 407.121Z" fill="url(#paint14_linear)"/>
</g>
<g opacity="0.2">
<path opacity="0.2" d="M109.458 413.956C109.415 413.826 109.362 413.699 109.298 413.577C109.298 413.536 109.253 413.503 109.231 413.467C109.191 413.394 109.146 413.323 109.097 413.255L109.008 413.149C108.962 413.093 108.913 413.04 108.861 412.99L108.759 412.896C108.705 412.851 108.652 412.81 108.598 412.773L108.487 412.7L108.309 412.602L108.197 412.549L107.997 412.472L107.894 412.435C107.799 412.405 107.703 412.381 107.605 412.361C106.956 412.249 106.289 412.266 105.649 412.41C105.649 412.41 103.782 414.931 104.499 415.836L104.263 415.771C104.263 415.771 90.3925 429.94 82.5684 432.57C82.3693 432.445 82.1629 432.328 81.949 432.22V429.569C81.9555 429.457 81.9555 429.346 81.949 429.234V429.234C81.9356 429.129 81.9163 429.024 81.8911 428.92L81.949 428.892L82.1807 428.773L82.5149 428.586L82.7288 428.459C82.8892 428.359 83.0377 428.253 83.1743 428.141L83.3481 428.002C83.455 427.921 83.5575 427.835 83.6555 427.746L83.8338 427.586C83.9585 427.47 84.0774 427.35 84.1902 427.228L84.315 427.089C84.4219 426.967 84.5244 426.841 84.6224 426.714L84.7472 426.542C84.8363 426.417 84.921 426.289 85.0012 426.159L85.0814 426.033C85.1794 425.865 85.273 425.69 85.3532 425.511L85.4244 425.351C85.4868 425.207 85.5447 425.062 85.5982 424.915C85.5982 424.862 85.6383 424.813 85.6517 424.76C85.7141 424.568 85.772 424.377 85.8165 424.177C85.8165 424.136 85.8165 424.099 85.8388 424.059C85.8745 423.893 85.9027 423.724 85.9235 423.553C85.9235 423.496 85.9235 423.439 85.9235 423.382C85.9235 423.174 85.9591 422.974 85.9591 422.749C85.9593 421.162 85.3648 419.624 84.2749 418.389C84.8675 417.541 85.2551 417.04 85.2551 417.04C84.8987 416.815 84.5467 416.611 84.1991 416.411L83.8605 416.228C83.6288 416.101 83.4149 415.975 83.1654 415.861L82.7778 415.673C82.5684 415.571 82.3634 415.473 82.1584 415.384L81.7619 415.216L81.1693 414.98L80.7816 414.837C80.5856 414.768 80.3895 414.703 80.1979 414.641L79.8326 414.527C79.6321 414.47 79.4316 414.417 79.2355 414.368L78.9103 414.287C78.6875 414.238 78.4647 414.197 78.2464 414.156L78.0102 414.111C77.7117 414.062 77.4176 414.026 77.1191 414.001C75.2959 413.822 73.4532 414.081 71.7723 414.751C71.8614 412.802 72.2179 411.195 72.9664 410.2L72.7837 410.143L72.7213 410.2C72.7213 410.2 72.503 410.245 72.1599 410.302C72.0517 410.46 71.9549 410.625 71.8703 410.795C72.0201 410.106 72.3087 409.447 72.7213 408.854L72.5387 408.797C72.8015 408.548 73.7551 407.475 72.4763 405.718C71.0059 403.703 68.3147 405.269 68.3147 405.269C68.1013 405.934 67.961 406.617 67.8959 407.308C67.6909 407.231 67.5439 407.174 67.4503 407.129C66.161 411.293 65.4587 415.591 65.3606 419.919C60.5084 426.224 58.5033 435.531 58.1112 437.538L58.08 437.697C58.0533 437.844 58.0399 437.921 58.0399 437.921L70.6539 438.19C70.6539 438.231 70.6539 438.268 70.6539 438.309V456.593L61.4708 474.371C61.4708 474.371 64.964 474.473 70.2217 475.088L68.7692 484.595L68.2835 487.263H77.0255C77.9969 485.485 73.1402 484.595 73.1402 484.595H73.0332L74.9269 475.725C75.7646 475.852 76.626 475.988 77.5112 476.133C78.809 476.362 80.1245 476.499 81.4455 476.54C82.5392 476.575 83.6342 476.532 84.7204 476.41C85.3621 481.218 84.5199 484.09 84.3595 484.567H84.3105L83.8249 487.234H92.5669C93.4135 485.684 89.8311 484.807 88.8999 484.612L88.94 484.351C89.3896 481.351 89.5046 478.317 89.2831 475.296C90.4111 474.878 91.4629 474.304 92.402 473.596V473.596L92.5223 473.498L92.558 473.465L86.0482 456.743C87.2646 452.012 83.0318 447.045 85.2908 444.561C87.5498 442.077 86.1819 438.908 85.9146 438.366C92.0277 435.919 104.383 429.801 107.85 419.197C108.104 418.451 108.311 417.693 108.469 416.925C108.469 416.925 110.216 416.277 109.458 413.956Z" fill="url(#paint15_linear)"/>
</g>
<path d="M68.8583 410.224C68.8583 410.224 62.2327 429.357 73.3451 439.948L76.5532 437.701C76.5532 437.701 69.9856 416.819 73.6615 411.917C67.174 409.939 68.8583 410.224 68.8583 410.224Z" fill="#FF5252"/>
<path d="M73.4387 411.913C73.4387 411.913 74.7754 410.885 73.4387 409.033C72.102 407.182 69.6202 408.626 69.6202 408.626C69.6202 408.626 68.729 411.297 69.6202 411.913C70.5113 412.529 73.4387 411.913 73.4387 411.913Z" fill="#F6B9AD"/>
<path d="M75.7958 433.696C75.7958 435.286 77.2032 436.575 78.9393 436.575C80.6754 436.575 82.0828 435.286 82.0828 433.696V430.927C82.0828 429.336 80.6754 428.047 78.9393 428.047C77.2032 428.047 75.7958 429.336 75.7958 430.927V433.696Z" fill="#F6B9AD"/>
<path opacity="0.2" d="M76.1033 438.933C76.1033 438.933 69.6158 418.308 73.1492 413.238C73.4611 413.185 73.6616 413.145 73.6616 413.145L73.7195 413.096L73.8843 413.145C70.2084 418.039 76.7761 438.929 76.7761 438.929L73.568 441.176L73.2873 440.899L76.1033 438.933Z" fill="white"/>
<path d="M78.8256 431.029C82.6694 431.029 85.7854 428.176 85.7854 424.658C85.7854 421.14 82.6694 418.288 78.8256 418.288C74.9818 418.288 71.8658 421.14 71.8658 424.658C71.8658 428.176 74.9818 431.029 78.8256 431.029Z" fill="#F6B9AD"/>
<path opacity="0.2" d="M81.2985 433.7V430.927C81.2983 430.724 81.2744 430.521 81.2272 430.323C82.5864 429.684 83.678 428.654 84.3338 427.39C84.9895 426.127 85.1729 424.701 84.8557 423.333C84.5384 421.965 83.7381 420.731 82.5783 419.82C81.4184 418.91 79.9635 418.374 78.438 418.296H78.8301C80.3913 418.295 81.9073 418.775 83.1344 419.659C84.3616 420.542 85.2287 421.777 85.5963 423.166C85.9639 424.555 85.8108 426.017 85.1614 427.316C84.512 428.616 83.4042 429.678 82.0159 430.331C82.063 430.53 82.0869 430.732 82.0872 430.935V433.708C82.0912 434.118 81.999 434.523 81.8168 434.897C81.6345 435.271 81.3665 435.605 81.0309 435.876C80.6954 436.146 80.3001 436.348 79.8719 436.467C79.4437 436.585 78.9927 436.618 78.5494 436.563C79.3094 436.473 80.0075 436.133 80.5134 435.606C81.0193 435.079 81.2984 434.402 81.2985 433.7V433.7Z" fill="white"/>
<path d="M71.7545 456.409C71.7545 456.409 85.1794 457.796 85.674 456.409C87.2781 451.923 83.0006 447.073 85.1393 444.704C87.3672 442.257 85.674 438.941 85.674 438.941C85.674 437.251 84.9408 435.631 83.6356 434.436C82.3303 433.242 80.5601 432.57 78.7143 432.57C76.8684 432.57 75.0982 433.242 73.793 434.436C72.4878 435.631 71.7545 437.251 71.7545 438.941V456.409Z" fill="#FF5252"/>
<path opacity="0.2" d="M85.1571 444.704C87.385 442.257 85.6918 438.941 85.6918 438.941C85.6918 437.251 84.9586 435.631 83.6534 434.436C82.3481 433.242 80.5779 432.57 78.7321 432.57C78.5806 432.57 78.4335 432.57 78.2865 432.591C80.0506 432.693 81.7058 433.407 82.9158 434.586C84.1258 435.766 84.7997 437.323 84.8007 438.941C84.8007 438.941 86.4938 442.257 84.266 444.704C82.1095 447.073 86.4047 451.919 84.8007 456.409C84.6492 456.837 83.2635 457 81.4233 457.025C83.6912 457.045 85.518 456.907 85.6918 456.409C87.3137 451.915 83.0006 447.073 85.1571 444.704Z" fill="white"/>
<path d="M82.8268 456.001C87.7281 462.36 89.898 471.968 88.4944 481.21L88.4543 481.488H84.2705C84.2705 481.488 85.5671 477.992 84.2705 471.83C83.4757 468.135 81.2157 464.84 77.9256 462.58L73.8888 481.488H69.9945L73.8888 456.001H82.8268Z" fill="#F6B9AD"/>
<path d="M106.424 419.348C106.424 419.348 108.042 418.728 107.346 416.595C106.651 414.462 103.826 415.18 103.826 415.18C103.826 415.18 102.111 417.492 102.775 418.324C103.439 419.156 106.424 419.348 106.424 419.348Z" fill="#F6B9AD"/>
<path d="M82.6085 439.969C82.6085 439.969 103.465 433.782 106.42 419.348L102.557 418.263C102.557 418.263 87.2068 433.949 80.7238 434.059C74.2408 434.169 82.6085 439.969 82.6085 439.969Z" fill="#FF5252"/>
<path opacity="0.2" d="M105.711 419.364L106.357 419.544C103.403 433.977 82.5461 440.164 82.5461 440.164L82.1763 439.899C84.6403 439.116 102.958 432.827 105.711 419.364Z" fill="white"/>
<g opacity="0.2">
<path opacity="0.2" d="M77.03 462.58L72.9932 481.488H73.8843L77.8053 463.134C77.5573 462.938 77.2986 462.752 77.03 462.58V462.58Z" fill="white"/>
<path opacity="0.2" d="M82.8268 456.001H81.9357C86.8369 462.36 89.0068 471.968 87.6033 481.21L87.5632 481.488H88.4543L88.4944 481.21C89.898 471.968 87.737 462.36 82.8268 456.001Z" fill="white"/>
</g>
<path opacity="0.2" d="M105.992 419.221C105.992 419.221 107.609 418.602 106.914 416.469C106.83 416.167 106.669 415.889 106.444 415.656C106.22 415.422 105.938 415.241 105.622 415.127C106.031 415.195 106.41 415.369 106.714 415.627C107.019 415.886 107.237 416.219 107.342 416.587C108.037 418.716 106.42 419.34 106.42 419.34C105.534 419.278 104.658 419.127 103.809 418.891C104.525 419.057 105.255 419.167 105.992 419.221V419.221Z" fill="white"/>
<path d="M71.7545 455.716L63.2887 472.03C68.2259 472.255 73.1394 472.8 77.9924 473.661C87.3493 475.292 91.805 471.214 91.805 471.214L85.7675 455.716H71.7545Z" fill="#263238"/>
<path d="M74.0001 481.41C74.0001 481.41 78.4558 482.226 77.5646 483.857H69.5444L69.99 481.41H74.0001Z" fill="#FF5252"/>
<path d="M88.2583 481.41C88.2583 481.41 92.7139 482.226 91.8228 483.857H83.8026L84.2482 481.41H88.2583Z" fill="#FF5252"/>
<path d="M85.1394 419.417C85.1394 419.417 74.4458 433.284 79.347 438.994L60.1876 438.586C60.1876 438.586 65.5344 407.182 85.1394 419.417Z" fill="#FCCC63"/>
<path opacity="0.2" d="M85.1394 419.417C82.3768 417.692 79.8995 416.836 77.6761 416.636C79.5454 417.173 81.3117 417.974 82.9115 419.009C82.9115 419.009 72.2179 432.876 77.1192 438.586L60.2545 438.227C60.2099 438.46 60.1876 438.586 60.1876 438.586L79.347 438.994C74.4458 433.284 85.1394 419.417 85.1394 419.417Z" fill="white"/>
<path opacity="0.2" d="M85.7898 455.716H84.4531L90.4906 471.214C90.4906 471.214 87.6122 473.845 81.6238 474.032C88.5167 474.236 91.8273 471.214 91.8273 471.214L85.7898 455.716Z" fill="white"/>
<path opacity="0.2" d="M74.0001 481.41H73.109C73.109 481.41 77.5647 482.226 76.6735 483.857H77.5647C78.4558 482.226 74.0001 481.41 74.0001 481.41Z" fill="white"/>
<path opacity="0.2" d="M88.2583 481.41H87.3672C87.3672 481.41 91.8229 482.226 90.9317 483.857H91.8229C92.714 482.226 88.2583 481.41 88.2583 481.41Z" fill="white"/>
<path d="M444.712 341.388H274.06V347.302H444.712V341.388Z" fill="#777777"/>
<path d="M448 339.5H270.664V541.792H448V339.5Z" fill="url(#paint16_linear)"/>
<path d="M444.712 347.302H274.06V534.708H444.712V347.302Z" fill="white"/>
<path d="M278.016 345.874C278.878 345.874 279.576 345.235 279.576 344.447C279.576 343.658 278.878 343.019 278.016 343.019C277.155 343.019 276.457 343.658 276.457 344.447C276.457 345.235 277.155 345.874 278.016 345.874Z" fill="#FF5252"/>
<path d="M282.303 345.874C283.164 345.874 283.862 345.235 283.862 344.447C283.862 343.658 283.164 343.019 282.303 343.019C281.441 343.019 280.743 343.658 280.743 344.447C280.743 345.235 281.441 345.874 282.303 345.874Z" fill="#FFFF00"/>
<path d="M286.593 345.874C287.455 345.874 288.153 345.235 288.153 344.447C288.153 343.658 287.455 343.019 286.593 343.019C285.732 343.019 285.034 343.658 285.034 344.447C285.034 345.235 285.732 345.874 286.593 345.874Z" fill="#69F0AE"/>
<g opacity="0.2">
<path opacity="0.2" d="M434.464 355.663H284.753V359.333H434.464V355.663Z" fill="#00B0FF"/>
</g>
<path d="M348.469 371.569H283.862V434.377H348.469V371.569Z" fill="url(#paint17_linear)"/>
<path d="M347.133 373.608H285.199V432.338H347.133V373.608Z" fill="white"/>
<path d="M434.464 402.973H369.856V465.781H434.464V402.973Z" fill="url(#paint18_linear)"/>
<path d="M433.127 405.012H371.193V463.742H433.127V405.012Z" fill="white"/>
<path d="M437.137 480.464H285.199V523.696H437.137V480.464Z" fill="url(#paint19_linear)"/>
<path opacity="0.5" d="M434.464 483.319H288.318V522.064H434.464V483.319Z" fill="#00B0FF"/>
<path opacity="0.5" d="M291.882 486.989H434.464V483.319H288.318V522.064H291.882V486.989Z" fill="white"/>
<path d="M336.871 386.475C332.645 381.979 326.827 378.986 320.434 378.019C314.041 377.052 307.48 378.172 301.898 381.185C296.316 384.198 292.069 388.911 289.899 394.499C287.729 400.088 287.775 406.197 290.028 411.759C292.281 417.32 296.598 421.979 302.224 424.922C307.85 427.865 314.427 428.903 320.806 427.856C327.184 426.809 332.957 423.744 337.115 419.195C341.274 414.646 343.553 408.904 343.555 402.973C343.563 396.918 341.19 391.062 336.871 386.475V386.475ZM325.732 418.071C322.096 420.044 317.849 420.86 313.653 420.393C309.457 419.926 305.548 418.202 302.533 415.49C299.519 412.777 297.57 409.229 296.988 405.397C296.407 401.565 297.226 397.664 299.318 394.302C301.41 390.941 304.659 388.307 308.557 386.81C312.455 385.314 316.784 385.04 320.87 386.031C324.956 387.021 328.569 389.22 331.147 392.286C333.726 395.352 335.124 399.112 335.125 402.981C335.135 406.027 334.275 409.022 332.629 411.669C330.984 414.316 328.611 416.523 325.745 418.071H325.732Z" fill="url(#paint20_linear)"/>
<path d="M329.778 392.067L335.86 387.275C333.395 384.648 330.34 382.541 326.902 381.097C323.464 379.653 319.725 378.907 315.943 378.91V386.251C318.571 386.25 321.167 386.77 323.555 387.774C325.943 388.778 328.066 390.242 329.778 392.067V392.067Z" fill="#FF5252"/>
<path d="M315.943 419.691C313.342 419.692 310.771 419.181 308.404 418.194L305.093 424.887C308.949 426.487 313.17 427.212 317.397 426.999C321.624 426.786 325.732 425.641 329.372 423.663L325.273 417.345C322.452 418.885 319.227 419.696 315.943 419.691V419.691Z" fill="#69F0AE"/>
<path d="M342.231 402.969C342.239 397.205 339.977 391.632 335.86 387.271L329.778 392.063C331.524 393.911 332.806 396.088 333.533 398.439C334.26 400.79 334.414 403.259 333.984 405.67C333.554 408.082 332.552 410.378 331.046 412.396C329.541 414.414 327.57 416.105 325.273 417.349L329.372 423.667C333.293 421.534 336.54 418.505 338.795 414.876C341.049 411.247 342.234 407.143 342.231 402.969V402.969Z" fill="#FF9800"/>
<path d="M297.675 402.969C297.675 398.534 299.599 394.281 303.025 391.145C306.451 388.009 311.098 386.247 315.943 386.247V378.906C309.935 378.906 304.108 380.79 299.433 384.244C294.758 387.698 291.516 392.513 290.248 397.889C288.979 403.264 289.761 408.875 292.462 413.787C295.163 418.7 299.621 422.617 305.093 424.887L308.404 418.194C305.207 416.868 302.494 414.727 300.591 412.027C298.689 409.327 297.676 406.182 297.675 402.969V402.969Z" fill="#00B0FF"/>
<path d="M426.889 413.577H379.659V420.918H426.889V413.577Z" fill="url(#paint21_linear)"/>
<path d="M426.443 413.985H380.104V420.51H426.443V413.985Z" fill="#00B0FF"/>
<path d="M413.968 424.997H380.104V431.522H413.968V424.997Z" fill="#FF5252"/>
<path d="M403.274 436.009H380.104V442.534H403.274V436.009Z" fill="#69F0AE"/>
<path d="M421.988 447.02H380.104V453.546H421.988V447.02Z" fill="#FF9800"/>
<path d="M351.588 444.165H285.199V447.836H351.588V444.165Z" fill="#777777"/>
<path d="M322.626 450.283H285.199V453.954H322.626V450.283Z" fill="#777777"/>
<path d="M342.231 450.283H329.31V453.954H342.231V450.283Z" fill="#777777"/>
<path d="M342.231 463.742H329.31V467.413H342.231V463.742Z" fill="#777777"/>
<path d="M322.626 462.519H285.199V466.189H322.626V462.519Z" fill="#777777"/>
<path d="M351.588 456.401H285.199V460.072H351.588V456.401Z" fill="#777777"/>
<path d="M435.355 371.976H368.965V375.647H435.355V371.976Z" fill="#777777"/>
<path d="M406.393 378.094H368.965V381.765H406.393V378.094Z" fill="#777777"/>
<path d="M425.998 378.094H413.076V381.765H425.998V378.094Z" fill="#777777"/>
<path d="M425.998 391.553H413.076V395.224H425.998V391.553Z" fill="#777777"/>
<path d="M406.393 390.33H368.965V394H406.393V390.33Z" fill="#777777"/>
<path d="M435.355 384.212H368.965V387.882H435.355V384.212Z" fill="#777777"/>
<path d="M389.907 558.363C392.614 558.363 394.808 556.354 394.808 553.876C394.808 551.399 392.614 549.39 389.907 549.39C387.2 549.39 385.006 551.399 385.006 553.876C385.006 556.354 387.2 558.363 389.907 558.363Z" fill="url(#paint22_linear)"/>
<path d="M389.907 557.139C391.876 557.139 393.472 555.678 393.472 553.876C393.472 552.074 391.876 550.614 389.907 550.614C387.938 550.614 386.343 552.074 386.343 553.876C386.343 555.678 387.938 557.139 389.907 557.139Z" fill="#FF5252"/>
<path d="M398.373 504.119H245.098V553.469H398.373V504.119Z" fill="url(#paint23_linear)"/>
<path d="M395.699 506.158H249.553V544.904H395.699V506.158Z" fill="white"/>
<path d="M254.455 537.563H389.907" stroke="#00B0FF" stroke-width="3" stroke-miterlimit="10"/>
<path d="M275.842 513.907H255.791V536.339H275.842V513.907Z" fill="url(#paint24_linear)"/>
<path d="M274.728 514.927H256.905V535.727H274.728V514.927Z" fill="#00B0FF"/>
<path d="M386.342 529.813H368.52V536.339H386.342V529.813Z" fill="#69F0AE"/>
<path d="M352.925 521.249H335.102V535.931H352.925V521.249Z" fill="#FF9800"/>
<path d="M313.715 523.696H295.892V535.931H313.715V523.696Z" fill="#FF5252"/>
<path d="M395.699 544.904H249.553V550.614H395.699V544.904Z" fill="#FF5252"/>
<path d="M255.791 558.363C258.498 558.363 260.693 556.354 260.693 553.876C260.693 551.399 258.498 549.39 255.791 549.39C253.084 549.39 250.89 551.399 250.89 553.876C250.89 556.354 253.084 558.363 255.791 558.363Z" fill="url(#paint25_linear)"/>
<path d="M255.791 557.139C257.76 557.139 259.356 555.678 259.356 553.876C259.356 552.074 257.76 550.614 255.791 550.614C253.823 550.614 252.227 552.074 252.227 553.876C252.227 555.678 253.823 557.139 255.791 557.139Z" fill="#FF5252"/>
<path d="M249.554 507.79H245.989V550.614H249.554V507.79Z" fill="#FF5252"/>
<path opacity="0.2" d="M249.554 507.79H245.989V550.614H249.554V507.79Z" fill="black"/>
<path d="M249.79 512.341C249.79 512.296 249.79 512.256 249.79 512.211C249.79 512.166 249.79 512.076 249.79 512.011C249.79 511.946 249.79 511.925 249.763 511.884C249.736 511.844 249.732 511.762 249.709 511.705C249.687 511.648 249.683 511.628 249.665 511.587C249.647 511.546 249.611 511.473 249.585 511.415L249.531 511.313C249.496 511.256 249.455 511.199 249.415 511.146L249.357 511.069C249.299 510.995 249.237 510.924 249.17 510.857C248.815 510.51 248.394 510.225 247.927 510.017C248.292 509.658 248.565 509.228 248.725 508.76C248.771 508.635 248.807 508.507 248.832 508.377C248.832 508.336 248.832 508.295 248.832 508.259C248.844 508.18 248.851 508.101 248.854 508.022C248.854 507.977 248.854 507.936 248.854 507.892C248.854 507.847 248.854 507.757 248.854 507.692C248.854 507.627 248.854 507.606 248.827 507.565C248.8 507.525 248.796 507.443 248.774 507.386C248.751 507.329 248.747 507.308 248.729 507.268C248.711 507.227 248.676 507.153 248.649 507.096L248.595 506.994C248.56 506.937 248.52 506.88 248.48 506.827L248.422 506.75C248.363 506.676 248.301 506.605 248.235 506.538V506.538C247.79 506.111 247.251 505.777 246.653 505.559C246.653 505.559 243.823 506.517 243.636 507.569C241.56 507.977 229.458 510.282 221.149 510.098L221.086 509.947C221.087 508.717 220.721 507.509 220.027 506.455C219.334 505.401 218.34 504.54 217.152 503.964V501.403C217.158 501.294 217.158 501.185 217.152 501.077V501.077C217.14 500.972 217.122 500.869 217.098 500.767L217.152 500.738L217.379 500.624L217.709 500.44L217.918 500.314C218.073 500.216 218.221 500.113 218.364 500.004L218.533 499.869C218.636 499.788 218.734 499.706 218.832 499.621L219.005 499.466C219.127 499.351 219.243 499.234 219.353 499.115L219.473 498.976C219.577 498.856 219.677 498.734 219.772 498.609L219.892 498.442C219.978 498.319 220.061 498.194 220.142 498.067L220.217 497.944C220.315 497.781 220.404 497.61 220.485 497.439L220.552 497.284C220.614 497.145 220.67 497.009 220.721 496.876L220.774 496.725C220.837 496.537 220.89 496.35 220.935 496.158C220.935 496.121 220.935 496.08 220.957 496.044C220.99 495.881 221.016 495.716 221.037 495.55C221.037 495.493 221.037 495.44 221.037 495.383C221.037 495.179 221.073 494.975 221.073 494.767C221.073 493.608 220.746 492.469 220.124 491.459C220.601 491.353 220.89 491.268 220.855 491.227C220.672 491.003 220.489 490.791 220.298 490.587L220.115 490.395C219.981 490.256 219.852 490.126 219.718 489.987L219.504 489.787C219.371 489.665 219.237 489.551 219.103 489.441L218.894 489.269C218.725 489.139 218.555 489.012 218.386 488.89L218.275 488.808C218.07 488.67 217.865 488.539 217.655 488.401L217.424 488.27C217.29 488.193 217.152 488.119 217.014 488.054L216.737 487.923L216.354 487.756L216.074 487.642C215.94 487.589 215.802 487.544 215.664 487.499L215.41 487.414C215.205 487.352 215 487.295 214.795 487.246L214.478 487.181L214.135 487.116L213.792 487.067L213.476 487.034L213.124 487.006H212.821H212.469C212.276 487.006 212.083 487.014 211.89 487.03C207.332 487.373 203.339 491.015 203.339 496.819V501.607H210.468V503.785C209.187 504.326 208.102 505.191 207.341 506.279C206.579 507.367 206.174 508.631 206.173 509.923V528.484L200.122 553.929H200.042L198.852 558.787L207.389 560.051L207.759 560.104C208.65 559.754 207.158 558.11 206.485 556.841C206.416 556.709 206.357 556.573 206.307 556.434C206.213 556.178 206.156 555.912 206.137 555.642L212.696 535.947H212.665L212.821 535.487C212.821 535.487 221.171 538.749 223.318 545.312C225.061 550.614 223.978 554.064 223.506 555.182H223.474V555.247C223.381 555.459 223.314 555.577 223.314 555.577H223.474V559.178H232.502C233.339 558.791 231.561 557.661 230.675 556.731C230.385 556.437 230.182 556.078 230.087 555.691H230.238L230.309 555.398C231.444 550.573 231.184 545.56 229.554 540.856C227.924 536.151 224.98 531.918 221.015 528.574C221.031 528.552 221.045 528.529 221.055 528.504C221.907 526.118 222.432 523.644 222.619 521.139C229.521 521.742 238.704 521.31 245.57 516.44C246.225 515.987 246.852 515.499 247.446 514.98C248.039 514.939 249.077 514.637 249.652 513.104C249.698 512.979 249.733 512.851 249.758 512.721C249.758 512.68 249.758 512.639 249.758 512.602C249.774 512.516 249.785 512.429 249.79 512.341V512.341Z" fill="url(#paint26_linear)"/>
<path d="M213.627 519.528C213.627 519.528 234.524 525.609 246.1 515.449L243.645 512.508C243.645 512.508 221.189 517.089 215.837 513.732C210.486 510.375 213.627 519.528 213.627 519.528Z" fill="#00B0FF"/>
<path opacity="0.2" d="M245.512 515.066L245.922 515.555C234.337 525.719 213.449 519.634 213.449 519.634C213.449 519.634 213.396 519.479 213.316 519.226C215.806 519.907 234.712 524.56 245.512 515.066Z" fill="white"/>
<path d="M245.655 515.445C245.655 515.445 247.366 515.8 248.154 513.699C248.943 511.599 246.194 510.673 246.194 510.673C246.194 510.673 243.329 511.64 243.338 512.668C243.347 513.695 245.655 515.445 245.655 515.445Z" fill="#985454"/>
<path opacity="0.2" d="M245.383 515.115C245.383 515.115 247.094 515.469 247.883 513.369C248.005 513.079 248.05 512.767 248.015 512.458C247.981 512.149 247.866 511.852 247.682 511.591C247.972 511.864 248.17 512.207 248.254 512.58C248.337 512.953 248.303 513.34 248.154 513.695C247.366 515.8 245.655 515.441 245.655 515.441C244.975 514.918 244.359 514.329 243.819 513.683C244.296 514.199 244.819 514.678 245.383 515.115V515.115Z" fill="white"/>
<path d="M223.523 553.301H229.712C229.689 553.568 229.73 553.836 229.83 554.088C229.931 554.339 230.09 554.567 230.296 554.757C231.129 555.638 232.805 556.703 232.016 557.066H223.523V553.301Z" fill="#00B0FF"/>
<path opacity="0.2" d="M229.846 554.757C229.64 554.567 229.481 554.339 229.38 554.088C229.28 553.836 229.239 553.568 229.262 553.301H229.708C229.685 553.568 229.725 553.836 229.826 554.088C229.927 554.339 230.086 554.567 230.292 554.757C231.125 555.638 232.8 556.703 232.011 557.066H231.566C232.355 556.703 230.679 555.642 229.846 554.757Z" fill="white"/>
<path d="M201.481 552.135L207.274 553.004C207.114 553.635 207.207 554.298 207.537 554.872C208.169 556.095 209.591 557.621 208.735 557.951L200.35 556.727L201.481 552.135Z" fill="#00B0FF"/>
<path opacity="0.2" d="M207.095 554.868C206.766 554.294 206.672 553.631 206.833 553L201.464 552.184V552.119L207.256 552.987C207.096 553.619 207.189 554.282 207.519 554.855C208.151 556.079 209.573 557.604 208.717 557.935L208.365 557.882C209.025 557.482 207.701 556.018 207.095 554.868Z" fill="white"/>
<path d="M211.248 505.477C211.248 507.067 212.655 508.357 214.392 508.357C216.128 508.357 217.535 507.067 217.535 505.477V502.708C217.535 501.118 216.128 499.829 214.392 499.829C212.655 499.829 211.248 501.118 211.248 502.708V505.477Z" fill="#985454"/>
<path d="M214.278 502.81C218.122 502.81 221.238 499.958 221.238 496.439C221.238 492.921 218.122 490.069 214.278 490.069C210.434 490.069 207.318 492.921 207.318 496.439C207.318 499.958 210.434 502.81 214.278 502.81Z" fill="#985454"/>
<path opacity="0.2" d="M216.751 505.481V502.708C216.751 502.505 216.727 502.303 216.68 502.104C218.039 501.465 219.13 500.435 219.786 499.172C220.442 497.908 220.625 496.483 220.308 495.115C219.991 493.746 219.19 492.512 218.031 491.602C216.871 490.691 215.416 490.155 213.89 490.077H214.282C215.844 490.076 217.36 490.556 218.587 491.44C219.814 492.323 220.681 493.558 221.049 494.947C221.416 496.336 221.263 497.798 220.614 499.097C219.964 500.397 218.856 501.459 217.468 502.112C217.515 502.311 217.539 502.513 217.539 502.716V505.489C217.544 505.899 217.451 506.304 217.269 506.678C217.087 507.052 216.819 507.386 216.483 507.657C216.148 507.928 215.752 508.129 215.324 508.248C214.896 508.366 214.445 508.399 214.002 508.344C214.762 508.254 215.46 507.914 215.966 507.387C216.472 506.86 216.751 506.183 216.751 505.481Z" fill="white"/>
<path d="M207.207 528.19C207.207 528.19 220.632 529.577 221.126 528.19C224.606 518.426 221.126 510.722 221.126 510.722C221.126 509.033 220.393 507.412 219.088 506.217C217.783 505.023 216.012 504.352 214.167 504.352V504.352C212.321 504.352 210.55 505.023 209.245 506.217C207.94 507.412 207.207 509.033 207.207 510.722V528.19Z" fill="#00B0FF"/>
<path d="M207.207 528.19L201.143 553.677H207.207L213.494 534.769C213.494 534.769 221.353 537.852 223.372 544.019C225.39 550.185 223.372 553.677 223.372 553.677H229.895L229.962 553.399C231.033 548.858 230.783 544.139 229.234 539.715C227.686 535.29 224.894 531.316 221.14 528.19" fill="#263238"/>
<path opacity="0.2" d="M220.342 528.19C223.822 518.426 220.342 510.722 220.342 510.722C220.342 509.104 219.67 507.546 218.461 506.365C217.252 505.184 215.597 504.468 213.832 504.364C213.979 504.364 214.131 504.364 214.278 504.364C216.124 504.364 217.894 505.035 219.199 506.23C220.504 507.424 221.238 509.045 221.238 510.734C221.238 510.734 224.718 518.443 221.238 528.202C221.06 528.7 219.224 528.839 216.942 528.818C218.796 528.782 220.191 528.618 220.342 528.19Z" fill="white"/>
<g opacity="0.2">
<path opacity="0.2" d="M213.378 535.217L207.207 553.779H206.316L212.603 534.871C212.603 534.871 212.892 534.985 213.378 535.217Z" fill="white"/>
<path opacity="0.2" d="M220.231 528.292H221.122C224.877 531.418 227.668 535.392 229.216 539.817C230.765 544.241 231.016 548.96 229.944 553.501L229.877 553.779H228.986L229.053 553.501C230.125 548.96 229.874 544.241 228.325 539.817C226.777 535.392 223.985 531.418 220.231 528.292V528.292Z" fill="white"/>
</g>
<path d="M212.736 515.449C212.736 515.449 233.633 521.53 245.209 511.371L242.754 508.43C242.754 508.43 220.298 513.01 214.946 509.654C209.595 506.297 212.736 515.449 212.736 515.449Z" fill="#00B0FF"/>
<path opacity="0.2" d="M244.621 510.987L245.031 511.477C233.446 521.64 212.558 515.555 212.558 515.555C212.558 515.555 212.505 515.4 212.424 515.147C214.915 515.828 233.82 520.482 244.621 510.987Z" fill="white"/>
<path d="M244.764 511.366C244.764 511.366 246.475 511.721 247.263 509.621C248.052 507.521 245.303 506.595 245.303 506.595C245.303 506.595 242.438 507.561 242.447 508.589C242.456 509.617 244.764 511.366 244.764 511.366Z" fill="#985454"/>
<path opacity="0.2" d="M244.492 511.036C244.492 511.036 246.203 511.391 246.991 509.291C247.114 509.001 247.159 508.688 247.124 508.379C247.089 508.07 246.975 507.773 246.791 507.512C247.08 507.786 247.279 508.129 247.362 508.502C247.446 508.874 247.412 509.261 247.263 509.617C246.475 511.721 244.764 511.362 244.764 511.362C244.083 510.84 243.468 510.25 242.928 509.605C243.405 510.121 243.928 510.6 244.492 511.036V511.036Z" fill="white"/>
<path d="M214.799 494.327L214.354 502.891H204.551V498.344C204.551 489.212 215.098 485.746 221.037 493.083C221.184 493.283 214.799 494.327 214.799 494.327Z" fill="#263238"/>
<path opacity="0.2" d="M212.598 489.163C215.098 489.351 217.669 490.599 219.7 493.107C219.848 493.287 213.463 494.331 213.463 494.331L213.017 502.896H214.354L214.799 494.331C214.799 494.331 221.184 493.287 221.037 493.107C218.644 490.146 215.499 488.963 212.598 489.163Z" fill="white"/>
<defs>
<linearGradient id="paint0_linear" x1="146.182" y1="471.214" x2="146.182" y2="273" gradientUnits="userSpaceOnUse">
<stop stop-color="#808080" stop-opacity="0.25"/>
<stop offset="0.54" stop-color="#808080" stop-opacity="0.12"/>
<stop offset="1" stop-color="#808080" stop-opacity="0.1"/>
</linearGradient>
<linearGradient id="paint1_linear" x1="5212.28" y1="2094.04" x2="5212.28" y2="2044.69" gradientUnits="userSpaceOnUse">
<stop stop-color="#808080" stop-opacity="0.25"/>
<stop offset="0.54" stop-color="#808080" stop-opacity="0.12"/>
<stop offset="1" stop-color="#808080" stop-opacity="0.1"/>
</linearGradient>
<linearGradient id="paint2_linear" x1="5212.28" y1="2368.11" x2="5212.28" y2="2318.76" gradientUnits="userSpaceOnUse">
<stop stop-color="#808080" stop-opacity="0.25"/>
<stop offset="0.54" stop-color="#808080" stop-opacity="0.12"/>
<stop offset="1" stop-color="#808080" stop-opacity="0.1"/>
</linearGradient>
<linearGradient id="paint3_linear" x1="7530.11" y1="2368.11" x2="7530.11" y2="2318.76" gradientUnits="userSpaceOnUse">
<stop stop-color="#808080" stop-opacity="0.25"/>
<stop offset="0.54" stop-color="#808080" stop-opacity="0.12"/>
<stop offset="1" stop-color="#808080" stop-opacity="0.1"/>
</linearGradient>
<linearGradient id="paint4_linear" x1="2896.74" y1="674.73" x2="2896.74" y2="625.381" gradientUnits="userSpaceOnUse">
<stop stop-color="#808080" stop-opacity="0.25"/>
<stop offset="0.54" stop-color="#808080" stop-opacity="0.12"/>
<stop offset="1" stop-color="#808080" stop-opacity="0.1"/>
</linearGradient>
<linearGradient id="paint5_linear" x1="2896.74" y1="748.142" x2="2896.74" y2="698.793" gradientUnits="userSpaceOnUse">
<stop stop-color="#808080" stop-opacity="0.25"/>
<stop offset="0.54" stop-color="#808080" stop-opacity="0.12"/>
<stop offset="1" stop-color="#808080" stop-opacity="0.1"/>
</linearGradient>
<linearGradient id="paint6_linear" x1="2896.74" y1="821.555" x2="2896.74" y2="772.206" gradientUnits="userSpaceOnUse">
<stop stop-color="#808080" stop-opacity="0.25"/>
<stop offset="0.54" stop-color="#808080" stop-opacity="0.12"/>
<stop offset="1" stop-color="#808080" stop-opacity="0.1"/>
</linearGradient>
<linearGradient id="paint7_linear" x1="2896.74" y1="894.968" x2="2896.74" y2="845.618" gradientUnits="userSpaceOnUse">
<stop stop-color="#808080" stop-opacity="0.25"/>
<stop offset="0.54" stop-color="#808080" stop-opacity="0.12"/>
<stop offset="1" stop-color="#808080" stop-opacity="0.1"/>
</linearGradient>
<linearGradient id="paint8_linear" x1="35078.2" y1="20658" x2="35078.2" y2="11481.5" gradientUnits="userSpaceOnUse">
<stop stop-color="#808080" stop-opacity="0.25"/>
<stop offset="0.54" stop-color="#808080" stop-opacity="0.12"/>
<stop offset="1" stop-color="#808080" stop-opacity="0.1"/>
</linearGradient>
<linearGradient id="paint9_linear" x1="65764" y1="21981.3" x2="64981.3" y2="12584.6" gradientUnits="userSpaceOnUse">
<stop stop-color="#808080" stop-opacity="0.25"/>
<stop offset="0.54" stop-color="#808080" stop-opacity="0.12"/>
<stop offset="1" stop-color="#808080" stop-opacity="0.1"/>
</linearGradient>
<linearGradient id="paint10_linear" x1="3099.99" y1="1954.23" x2="3093.35" y2="1874.51" gradientUnits="userSpaceOnUse">
<stop stop-color="#808080" stop-opacity="0.25"/>
<stop offset="0.54" stop-color="#808080" stop-opacity="0.12"/>
<stop offset="1" stop-color="#808080" stop-opacity="0.1"/>
</linearGradient>
<linearGradient id="paint11_linear" x1="3376.73" y1="1905.05" x2="3370.09" y2="1825.33" gradientUnits="userSpaceOnUse">
<stop stop-color="#808080" stop-opacity="0.25"/>
<stop offset="0.54" stop-color="#808080" stop-opacity="0.12"/>
<stop offset="1" stop-color="#808080" stop-opacity="0.1"/>
</linearGradient>
<linearGradient id="paint12_linear" x1="322.653" y1="449.576" x2="322.653" y2="449.547" gradientUnits="userSpaceOnUse">
<stop stop-color="#808080" stop-opacity="0.25"/>
<stop offset="0.54" stop-color="#808080" stop-opacity="0.12"/>
<stop offset="1" stop-color="#808080" stop-opacity="0.1"/>
</linearGradient>
<linearGradient id="paint13_linear" x1="17796.6" y1="41362.9" x2="17796.6" y2="29185.4" gradientUnits="userSpaceOnUse">
<stop stop-color="#808080" stop-opacity="0.25"/>
<stop offset="0.54" stop-color="#808080" stop-opacity="0.12"/>
<stop offset="1" stop-color="#808080" stop-opacity="0.1"/>
</linearGradient>
<linearGradient id="paint14_linear" x1="108.041" y1="460.904" x2="108.041" y2="460.865" gradientUnits="userSpaceOnUse">
<stop stop-color="#808080" stop-opacity="0.25"/>
<stop offset="0.54" stop-color="#808080" stop-opacity="0.12"/>
<stop offset="1" stop-color="#808080" stop-opacity="0.1"/>
</linearGradient>
<linearGradient id="paint15_linear" x1="11836.7" y1="51586.3" x2="11836.7" y2="34867.6" gradientUnits="userSpaceOnUse">
<stop stop-color="#808080" stop-opacity="0.25"/>
<stop offset="0.54" stop-color="#808080" stop-opacity="0.12"/>
<stop offset="1" stop-color="#808080" stop-opacity="0.1"/>
</linearGradient>
<linearGradient id="paint16_linear" x1="122987" y1="133660" x2="122987" y2="33323.3" gradientUnits="userSpaceOnUse">
<stop stop-color="#808080" stop-opacity="0.25"/>
<stop offset="0.54" stop-color="#808080" stop-opacity="0.12"/>
<stop offset="1" stop-color="#808080" stop-opacity="0.1"/>
</linearGradient>
<linearGradient id="paint17_linear" x1="38732.9" y1="25223.6" x2="38732.9" y2="15551.1" gradientUnits="userSpaceOnUse">
<stop stop-color="#808080" stop-opacity="0.25"/>
<stop offset="0.54" stop-color="#808080" stop-opacity="0.12"/>
<stop offset="1" stop-color="#808080" stop-opacity="0.1"/>
</linearGradient>
<linearGradient id="paint18_linear" x1="51288.1" y1="30091.3" x2="51288.1" y2="20418.8" gradientUnits="userSpaceOnUse">
<stop stop-color="#808080" stop-opacity="0.25"/>
<stop offset="0.54" stop-color="#808080" stop-opacity="0.12"/>
<stop offset="1" stop-color="#808080" stop-opacity="0.1"/>
</linearGradient>
<linearGradient id="paint19_linear" x1="106052" y1="27054.2" x2="106052" y2="22471.6" gradientUnits="userSpaceOnUse">
<stop stop-color="#808080" stop-opacity="0.25"/>
<stop offset="0.54" stop-color="#808080" stop-opacity="0.12"/>
<stop offset="1" stop-color="#808080" stop-opacity="0.1"/>
</linearGradient>
<linearGradient id="paint20_linear" x1="41677.4" y1="24407.5" x2="41677.4" y2="18136.5" gradientUnits="userSpaceOnUse">
<stop stop-color="#808080" stop-opacity="0.25"/>
<stop offset="0.54" stop-color="#808080" stop-opacity="0.12"/>
<stop offset="1" stop-color="#808080" stop-opacity="0.1"/>
</linearGradient>
<linearGradient id="paint21_linear" x1="37720.7" y1="3076.11" x2="37720.7" y2="2943.96" gradientUnits="userSpaceOnUse">
<stop stop-color="#808080" stop-opacity="0.25"/>
<stop offset="0.54" stop-color="#808080" stop-opacity="0.12"/>
<stop offset="1" stop-color="#808080" stop-opacity="0.1"/>
</linearGradient>
<linearGradient id="paint22_linear" x1="7840.98" y1="6827.38" x2="7840.98" y2="6629.98" gradientUnits="userSpaceOnUse">
<stop stop-color="#808080" stop-opacity="0.25"/>
<stop offset="0.54" stop-color="#808080" stop-opacity="0.12"/>
<stop offset="1" stop-color="#808080" stop-opacity="0.1"/>
</linearGradient>
<linearGradient id="paint23_linear" x1="93378.1" y1="34440.8" x2="93378.1" y2="28469.5" gradientUnits="userSpaceOnUse">
<stop stop-color="#808080" stop-opacity="0.25"/>
<stop offset="0.54" stop-color="#808080" stop-opacity="0.12"/>
<stop offset="1" stop-color="#808080" stop-opacity="0.1"/>
</linearGradient>
<linearGradient id="paint24_linear" x1="9922.54" y1="14997.6" x2="9922.54" y2="13763.9" gradientUnits="userSpaceOnUse">
<stop stop-color="#808080" stop-opacity="0.25"/>
<stop offset="0.54" stop-color="#808080" stop-opacity="0.12"/>
<stop offset="1" stop-color="#808080" stop-opacity="0.1"/>
</linearGradient>
<linearGradient id="paint25_linear" x1="4756.29" y1="6827.38" x2="4756.29" y2="6629.98" gradientUnits="userSpaceOnUse">
<stop stop-color="#808080" stop-opacity="0.25"/>
<stop offset="0.54" stop-color="#808080" stop-opacity="0.12"/>
<stop offset="1" stop-color="#808080" stop-opacity="0.1"/>
</linearGradient>
<linearGradient id="paint26_linear" x1="24972.2" y1="52298.5" x2="30794.3" y2="52298.5" gradientUnits="userSpaceOnUse">
<stop stop-color="#808080" stop-opacity="0.25"/>
<stop offset="0.54" stop-color="#808080" stop-opacity="0.12"/>
<stop offset="1" stop-color="#808080" stop-opacity="0.1"/>
</linearGradient>
</defs>
</svg>
