<svg width="500" height="500" viewBox="0 0 500 500" fill="none" xmlns="http://www.w3.org/2000/svg">
<rect width="500" height="500" fill="#48001E"/>
<g clip-path="url(#clip0)">
<path d="M310.154 403.913H268.886L198.594 410.759L127.759 403.913V236.162L198.301 241.297L270.366 236.162L340.864 245.862L339.054 374.683L310.154 403.913Z" fill="url(#paint0_linear)"/>
<path d="M308.809 401.581H268.443L199.69 408.243L130.404 401.581V238.364L199.402 243.361L269.891 238.364L338.846 247.802L337.076 373.142L308.809 401.581Z" fill="white"/>
<path d="M309.036 397.137H266.523L201.673 403.421L136.321 397.137V243.186L201.402 247.899L267.889 243.186L332.93 252.088V373.05L309.036 397.137Z" fill="#6C63FF"/>
<path d="M391 443.357L241.709 360.488L279.629 234.201L266.724 229.071L248.347 290.272L101.933 209L96 223.149L243.858 305.222L210.102 417.642L223.007 422.772L237.22 375.438L385.067 457.506L391 443.357Z" fill="white"/>
<path d="M306.026 401.326L306.526 369.548L337.076 370.783L306.026 401.326Z" fill="url(#paint1_linear)"/>
<path d="M136.321 309.717L230.022 351.302L236.249 364.24L230.049 370.713L136.321 326.157V309.717Z" fill="white"/>
<path d="M308.809 401.326L309.264 372.002L337.076 373.142L308.809 401.326Z" fill="white"/>
<path d="M263.629 376.668L302.726 247.954L318.279 250.083L274.478 383.4L263.629 376.668Z" fill="white"/>
<path opacity="0.1" d="M201.402 403.421L266.483 397.137V243.186L201.402 247.899" fill="black"/>
<path d="M261.007 299.216C261.007 311.652 238.543 346.867 238.543 346.867C238.543 346.867 216.08 311.652 216.08 299.216C216.079 296.258 216.659 293.33 217.787 290.597C218.916 287.864 220.57 285.381 222.656 283.289C224.742 281.198 227.219 279.538 229.945 278.406C232.671 277.274 235.593 276.692 238.543 276.692C241.494 276.692 244.416 277.274 247.142 278.406C249.867 279.538 252.344 281.198 254.43 283.289C256.516 285.381 258.171 287.864 259.299 290.597C260.428 293.33 261.008 296.258 261.007 299.216Z" fill="#FF5252"/>
<path d="M238.543 304.452C242.294 304.452 245.335 301.405 245.335 297.645C245.335 293.885 242.294 290.838 238.543 290.838C234.793 290.838 231.752 293.885 231.752 297.645C231.752 301.405 234.793 304.452 238.543 304.452Z" fill="white"/>
<path d="M298.687 309.717L332.93 318.524V334.964L291.01 319.966L298.687 309.717Z" fill="white"/>
<path d="M168.18 341.302L159.531 401.265L169.347 403.337L182.278 348.004L182.262 340.161L168.18 341.302Z" fill="white"/>
<path d="M167.832 263.021L158.127 319.395L165.641 323.461L183.554 263.004L167.832 263.021Z" fill="white"/>
<path d="M186.395 253.942C187.537 253.942 188.462 253.014 188.462 251.87C188.462 250.726 187.537 249.799 186.395 249.799C185.254 249.799 184.329 250.726 184.329 251.87C184.329 253.014 185.254 253.942 186.395 253.942Z" fill="#FF5252"/>
<path d="M161.598 361.133C162.739 361.133 163.664 360.206 163.664 359.062C163.664 357.918 162.739 356.991 161.598 356.991C160.456 356.991 159.531 357.918 159.531 359.062C159.531 360.206 160.456 361.133 161.598 361.133Z" fill="#FF5252"/>
<path d="M159.531 376.409C160.672 376.409 161.598 375.482 161.598 374.338C161.598 373.194 160.672 372.267 159.531 372.267C158.39 372.267 157.465 373.194 157.465 374.338C157.465 375.482 158.39 376.409 159.531 376.409Z" fill="#FF5252"/>
<path d="M181.487 372.784C182.629 372.784 183.554 371.857 183.554 370.713C183.554 369.569 182.629 368.642 181.487 368.642C180.346 368.642 179.421 369.569 179.421 370.713C179.421 371.857 180.346 372.784 181.487 372.784Z" fill="#FF5252"/>
<path d="M146.099 310.644C147.24 310.644 148.166 309.717 148.166 308.573C148.166 307.429 147.24 306.502 146.099 306.502C144.958 306.502 144.033 307.429 144.033 308.573C144.033 309.717 144.958 310.644 146.099 310.644Z" fill="#FF5252"/>
<path d="M308.833 308.573C309.975 308.573 310.9 307.646 310.9 306.502C310.9 305.358 309.975 304.43 308.833 304.43C307.692 304.43 306.767 305.358 306.767 306.502C306.767 307.646 307.692 308.573 308.833 308.573Z" fill="#FF5252"/>
<path d="M291.01 380.552C292.151 380.552 293.077 379.625 293.077 378.481C293.077 377.337 292.151 376.409 291.01 376.409C289.869 376.409 288.944 377.337 288.944 378.481C288.944 379.625 289.869 380.552 291.01 380.552Z" fill="#FF5252"/>
</g>
<defs>
<linearGradient id="paint0_linear" x1="234.311" y1="410.759" x2="234.311" y2="236.162" gradientUnits="userSpaceOnUse">
<stop stop-color="#808080" stop-opacity="0.25"/>
<stop offset="0.53514" stop-color="#808080" stop-opacity="0.12"/>
<stop offset="1" stop-color="#808080" stop-opacity="0.1"/>
</linearGradient>
<linearGradient id="paint1_linear" x1="321.551" y1="401.326" x2="321.551" y2="369.548" gradientUnits="userSpaceOnUse">
<stop stop-opacity="0.12"/>
<stop offset="0.55135" stop-opacity="0.09"/>
<stop offset="1" stop-opacity="0.02"/>
</linearGradient>
<clipPath id="clip0">
<rect width="295" height="248.505" fill="white" transform="translate(96 209)"/>
</clipPath>
</defs>
</svg>
