<svg width="500" height="500" viewBox="0 0 500 500" fill="none" xmlns="http://www.w3.org/2000/svg">
<rect width="500" height="500" fill="#2A2E34"/>
<g clip-path="url(#clip0)">
<g opacity="0.5">
<path opacity="0.5" d="M308.006 170.381L183.843 170.683C183.173 170.684 182.509 170.818 181.891 171.075C181.272 171.332 180.711 171.708 180.238 172.182C179.765 172.656 179.391 173.218 179.136 173.836C178.881 174.454 178.751 175.116 178.753 175.785L179.317 407.369C179.319 408.037 179.452 408.699 179.71 409.316C179.968 409.932 180.345 410.493 180.82 410.964C181.295 411.435 181.859 411.809 182.479 412.063C183.099 412.317 183.763 412.447 184.433 412.445L308.596 412.143C309.266 412.141 309.93 412.008 310.549 411.751C311.168 411.493 311.729 411.117 312.202 410.643C312.675 410.168 313.049 409.606 313.304 408.987C313.558 408.369 313.688 407.706 313.686 407.038L313.122 175.453C313.12 174.785 312.986 174.124 312.728 173.508C312.47 172.891 312.092 172.332 311.617 171.861C311.142 171.39 310.579 171.017 309.959 170.763C309.339 170.509 308.676 170.379 308.006 170.381Z" fill="url(#paint0_linear)"/>
</g>
<path d="M306.207 173.543L185.656 173.837C182.843 173.844 180.568 176.123 180.575 178.929L181.126 404.1C181.133 406.905 183.419 409.174 186.232 409.167L306.784 408.873C309.597 408.866 311.872 406.586 311.865 403.781L311.313 178.61C311.306 175.805 309.02 173.536 306.207 173.543Z" fill="white"/>
<path opacity="0.4" d="M278.789 179.509C278.418 182.005 277.163 184.286 275.251 185.939C273.339 187.593 270.898 188.51 268.367 188.524L223.209 188.632C220.681 188.628 218.237 187.722 216.32 186.078C214.402 184.434 213.137 182.161 212.753 179.669L188.836 179.728C188.183 179.73 187.538 179.859 186.936 180.11C186.334 180.36 185.787 180.726 185.327 181.187C184.867 181.648 184.502 182.195 184.254 182.796C184.006 183.397 183.879 184.042 183.88 184.692L184.399 398.32C184.401 398.971 184.531 399.615 184.782 400.215C185.033 400.816 185.401 401.361 185.863 401.82C186.326 402.279 186.875 402.642 187.478 402.89C188.082 403.137 188.728 403.263 189.381 403.261L303.648 402.986C304.3 402.984 304.946 402.855 305.548 402.605C306.15 402.354 306.697 401.988 307.157 401.527C307.617 401.066 307.982 400.52 308.23 399.918C308.478 399.317 308.605 398.672 308.604 398.022L308.084 184.394C308.083 183.744 307.953 183.1 307.702 182.5C307.451 181.899 307.084 181.354 306.622 180.895C306.16 180.437 305.611 180.073 305.008 179.825C304.405 179.578 303.759 179.451 303.107 179.453L278.789 179.509Z" fill="#9E98FF"/>
<path d="M258.577 182.216L230.94 182.63C230.527 182.636 230.198 182.974 230.204 183.386L230.209 183.713C230.215 184.125 230.555 184.453 230.967 184.447L258.605 184.033C259.017 184.027 259.346 183.689 259.34 183.277L259.335 182.95C259.329 182.538 258.99 182.21 258.577 182.216Z" fill="white"/>
<path d="M265.537 183.926C266.141 183.917 266.624 183.421 266.615 182.818C266.606 182.216 266.109 181.735 265.504 181.744C264.9 181.753 264.418 182.249 264.427 182.851C264.436 183.454 264.933 183.935 265.537 183.926Z" fill="white"/>
<g opacity="0.5">
<path opacity="0.5" d="M261.477 341.918C261.48 335.562 259.832 329.314 256.694 323.782C253.556 318.25 249.036 313.623 243.572 310.35C238.109 307.077 231.889 305.271 225.518 305.107C219.147 304.942 212.841 306.426 207.216 309.413C201.59 312.4 196.836 316.789 193.416 322.152C189.996 327.515 188.027 333.67 187.7 340.018C187.374 346.365 188.7 352.688 191.552 358.373C194.403 364.057 198.681 368.908 203.97 372.454L203.993 372.618C205.199 373.77 206.621 374.672 208.179 375.273L208.227 375.109C209.956 376.599 217.234 378.956 225.595 378.933H225.778C231.073 378.933 236.824 378.002 241.88 375.273C241.88 375.273 241.925 375.176 241.992 374.994C243.273 374.394 244.448 373.591 245.473 372.618C245.493 372.476 245.512 372.337 245.532 372.201C250.452 368.819 254.473 364.296 257.251 359.021C260.028 353.746 261.479 347.876 261.477 341.918Z" fill="url(#paint1_linear)"/>
</g>
<path d="M224.561 377.63C244.337 377.63 260.368 361.643 260.368 341.922C260.368 322.201 244.337 306.214 224.561 306.214C204.785 306.214 188.753 322.201 188.753 341.922C188.753 361.643 204.785 377.63 224.561 377.63Z" fill="#F5F5F5"/>
<path d="M210.883 356.605C210.883 356.605 202.35 357.301 204.609 372.8C205.777 373.921 207.157 374.799 208.668 375.385L213.467 359.189L210.883 356.605Z" fill="#8E786E"/>
<path d="M238.568 356.605C238.568 356.605 247.101 357.301 244.841 372.8C243.673 373.921 242.293 374.799 240.782 375.385L235.984 359.182L238.568 356.605Z" fill="#8E786E"/>
<path d="M211.252 331.204C211.252 331.204 207.193 342.987 204.979 341.87C204.979 341.87 226.346 360.277 245.215 341.87C245.215 341.87 241.892 335.978 237.093 331.193L211.252 331.204Z" fill="#333333"/>
<path d="M224.949 345.929C233.716 345.929 240.824 338.841 240.824 330.098C240.824 321.356 233.716 314.268 224.949 314.268C216.182 314.268 209.075 321.356 209.075 330.098C209.075 338.841 216.182 345.929 224.949 345.929Z" fill="#333333"/>
<path opacity="0.1" d="M238.404 356.605H210.722L208.138 367.65C208.138 367.65 206.622 372.763 208.511 375.012C210.401 377.261 228.034 382.374 240.999 375.385C242.13 372.441 242.261 369.208 241.373 366.183C239.879 361.029 240.999 365.81 240.999 365.81L238.404 356.605Z" fill="black"/>
<path opacity="0.1" d="M238.774 356.605H211.088L208.504 367.65C208.504 367.65 206.988 372.763 208.877 375.012C210.767 377.261 228.4 382.374 241.365 375.385C242.496 372.441 242.627 369.208 241.739 366.183C240.245 361.029 241.365 365.81 241.365 365.81L238.774 356.605Z" fill="black"/>
<path d="M238.568 356.605H210.883L208.299 367.65C208.299 367.65 206.782 372.763 208.672 375.012C210.562 377.261 228.195 382.374 241.16 375.385C242.291 372.441 242.422 369.208 241.533 366.183C240.039 361.029 241.16 365.81 241.16 365.81L238.568 356.605Z" fill="#9E98FF"/>
<path opacity="0.1" d="M219.374 347.441H230.457V358.128C230.457 358.61 230.362 359.087 230.177 359.532C229.993 359.977 229.722 360.381 229.38 360.722C229.038 361.062 228.633 361.333 228.187 361.517C227.74 361.701 227.262 361.796 226.779 361.796H223.045C222.069 361.796 221.134 361.41 220.444 360.722C219.754 360.034 219.367 359.101 219.367 358.128V347.441H219.374Z" fill="black"/>
<path d="M219.374 347.035H230.457V357.722C230.457 358.204 230.362 358.681 230.177 359.126C229.993 359.571 229.722 359.975 229.38 360.316C229.038 360.656 228.633 360.927 228.187 361.111C227.74 361.295 227.262 361.39 226.779 361.39H223.045C222.069 361.39 221.134 361.004 220.444 360.316C219.754 359.628 219.367 358.695 219.367 357.722V347.035H219.374Z" fill="#8E786E"/>
<path opacity="0.1" d="M219.397 348.625C222.966 349.955 226.896 349.965 230.472 348.655V347.299H219.397V348.625Z" fill="black"/>
<path d="M224.949 349.366C233.716 349.366 240.824 342.278 240.824 333.536C240.824 324.793 233.716 317.705 224.949 317.705C216.182 317.705 209.075 324.793 209.075 333.536C209.075 342.278 216.182 349.366 224.949 349.366Z" fill="#8E786E"/>
<path d="M209.777 327.521H240.047C240.047 327.521 237.463 315.333 226.021 316.112C214.579 316.89 209.777 327.521 209.777 327.521Z" fill="#333333"/>
<path d="M209.408 335.621C210.222 335.621 210.883 334.386 210.883 332.862C210.883 331.338 210.222 330.102 209.408 330.102C208.593 330.102 207.933 331.338 207.933 332.862C207.933 334.386 208.593 335.621 209.408 335.621Z" fill="#8E786E"/>
<path d="M240.413 335.621C241.227 335.621 241.888 334.386 241.888 332.862C241.888 331.338 241.227 330.102 240.413 330.102C239.598 330.102 238.938 331.338 238.938 332.862C238.938 334.386 239.598 335.621 240.413 335.621Z" fill="#8E786E"/>
<path opacity="0.1" d="M209.777 327.931H240.047C240.047 327.931 237.463 315.743 226.021 316.521C214.579 317.299 209.777 327.931 209.777 327.931Z" fill="black"/>
<g opacity="0.5">
<path opacity="0.5" d="M231.555 244.807C231.553 238.451 233.201 232.203 236.339 226.671C239.476 221.139 243.997 216.511 249.46 213.239C254.924 209.966 261.144 208.159 267.515 207.995C273.886 207.831 280.191 209.315 285.817 212.302C291.442 215.289 296.196 219.678 299.616 225.041C303.036 230.404 305.006 236.559 305.332 242.906C305.659 249.254 304.332 255.577 301.481 261.261C298.63 266.945 294.351 271.797 289.062 275.343L289.04 275.506C287.837 276.669 286.414 277.582 284.854 278.191L284.805 278.027C283.076 279.517 275.798 281.874 267.437 281.852H267.254C261.959 281.852 256.209 280.921 251.152 278.191C251.152 278.191 251.108 278.094 251.04 277.912C249.76 277.312 248.584 276.51 247.56 275.536C247.54 275.395 247.52 275.256 247.5 275.119C242.577 271.735 238.553 267.207 235.775 261.926C232.997 256.645 231.549 250.77 231.555 244.807Z" fill="url(#paint2_linear)"/>
</g>
<path d="M268.468 280.519C288.244 280.519 304.276 264.532 304.276 244.81C304.276 225.089 288.244 209.102 268.468 209.102C248.692 209.102 232.661 225.089 232.661 244.81C232.661 264.532 248.692 280.519 268.468 280.519Z" fill="#F5F5F5"/>
<path d="M254.431 258.41C254.431 258.41 245.898 259.106 248.158 274.605C249.327 275.723 250.706 276.599 252.217 277.182L257.015 260.987L254.431 258.41Z" fill="#BE7C5E"/>
<path d="M282.113 258.41C282.113 258.41 290.646 259.106 288.386 274.605C287.217 275.723 285.838 276.599 284.327 277.182L279.529 260.987L282.113 258.41Z" fill="#BE7C5E"/>
<path d="M254.797 233.01C254.797 233.01 254.14 234.916 253.21 237.106C251.179 241.947 253.498 260.458 258.356 262.428C263.808 264.662 270.977 266.063 278.427 263.355C284.899 261.002 286.896 239.895 282.318 234.775C281.781 234.171 281.22 233.572 280.634 232.991L254.797 233.01Z" fill="#333333"/>
<path d="M268.494 247.737C277.261 247.737 284.368 240.65 284.368 231.907C284.368 223.164 277.261 216.077 268.494 216.077C259.727 216.077 252.62 223.164 252.62 231.907C252.62 240.65 259.727 247.737 268.494 247.737Z" fill="#333333"/>
<path opacity="0.1" d="M281.952 258.41H254.267L251.683 269.455C251.683 269.455 250.167 274.568 252.056 276.817C253.946 279.066 271.579 284.179 284.544 277.19C285.675 274.246 285.806 271.013 284.917 267.988C283.424 262.834 284.544 267.616 284.544 267.616L281.952 258.41Z" fill="black"/>
<path opacity="0.1" d="M282.318 258.41H254.633L252.049 269.455C252.049 269.455 250.532 274.568 252.422 276.817C254.312 279.066 271.945 284.179 284.91 277.19C286.041 274.246 286.172 271.013 285.283 267.988C283.789 262.834 284.91 267.616 284.91 267.616L282.318 258.41Z" fill="black"/>
<path d="M282.113 258.41H254.431L251.847 269.455C251.847 269.455 250.331 274.568 252.22 276.817C254.11 279.066 271.743 284.179 284.708 277.19C285.839 274.246 285.97 271.013 285.082 267.988C283.588 262.834 284.708 267.616 284.708 267.616L282.113 258.41Z" fill="#F55F44"/>
<path opacity="0.1" d="M262.919 249.249H273.994V259.937C273.994 260.91 273.607 261.843 272.917 262.531C272.227 263.218 271.292 263.605 270.316 263.605H266.582C265.606 263.605 264.671 263.218 263.981 262.531C263.291 261.843 262.904 260.91 262.904 259.937V249.249H262.919Z" fill="black"/>
<path d="M262.919 248.84H273.994V259.527C273.994 260.5 273.607 261.433 272.917 262.121C272.227 262.809 271.292 263.195 270.316 263.195H266.582C265.606 263.195 264.671 262.809 263.981 262.121C263.291 261.433 262.904 260.5 262.904 259.527V248.84H262.919Z" fill="#BE7C5E"/>
<path opacity="0.1" d="M262.945 250.43C266.515 251.76 270.444 251.77 274.021 250.46V249.104H262.945V250.43Z" fill="black"/>
<path d="M268.494 251.171C277.261 251.171 284.368 244.083 284.368 235.341C284.368 226.598 277.261 219.51 268.494 219.51C259.727 219.51 252.62 226.598 252.62 235.341C252.62 244.083 259.727 251.171 268.494 251.171Z" fill="#BE7C5E"/>
<path d="M253.322 229.33H283.592C283.592 229.33 281.008 217.142 269.566 217.92C258.124 218.699 253.322 229.33 253.322 229.33Z" fill="#333333"/>
<path d="M252.952 237.426C253.767 237.426 254.427 236.191 254.427 234.667C254.427 233.143 253.767 231.907 252.952 231.907C252.138 231.907 251.477 233.143 251.477 234.667C251.477 236.191 252.138 237.426 252.952 237.426Z" fill="#BE7C5E"/>
<path d="M283.957 237.426C284.772 237.426 285.432 236.191 285.432 234.667C285.432 233.143 284.772 231.907 283.957 231.907C283.143 231.907 282.482 233.143 282.482 234.667C282.482 236.191 283.143 237.426 283.957 237.426Z" fill="#BE7C5E"/>
<path opacity="0.1" d="M253.322 229.74H283.592C283.592 229.74 281.008 217.552 269.566 218.33C258.124 219.108 253.322 229.74 253.322 229.74Z" fill="black"/>
<g opacity="0.5">
<path opacity="0.5" d="M103.867 212.878V266.025H187.835C187.835 266.025 194.034 278.191 204.691 281.729C204.691 281.729 201.289 273.112 204.841 266.025H228.217V212.878H103.867Z" fill="url(#paint3_linear)"/>
</g>
<path d="M107.228 214.699V264.972H191.248C191.248 264.972 191.248 275.026 201.33 278.378C201.33 278.378 197.97 271.675 201.33 264.972H224.856V214.699H107.228Z" fill="white"/>
<path d="M184.526 224.754H117.31V231.457H184.526V224.754Z" fill="#9E98FF"/>
<path d="M208.052 234.808H117.31V241.511H208.052V234.808Z" fill="#9E98FF"/>
<path d="M197.97 244.863H117.31V251.566H197.97V244.863Z" fill="#9E98FF"/>
<g opacity="0.5">
<path opacity="0.5" d="M389.535 315.285V368.432H305.571C305.571 368.432 299.372 380.598 288.711 384.136C288.711 384.136 292.113 375.519 288.562 368.432H265.186V315.285H389.535Z" fill="url(#paint4_linear)"/>
</g>
<path d="M386.174 317.106V367.378H302.154C302.154 367.378 302.154 377.433 292.072 380.784C292.072 380.784 295.433 374.081 292.072 367.378H268.546V317.106H386.174Z" fill="white"/>
<path d="M349.579 327.16H282.363V333.863H349.579V327.16Z" fill="#9E98FF"/>
<path d="M373.105 337.215H282.363V343.918H373.105V337.215Z" fill="#9E98FF"/>
<path d="M363.022 347.269H282.363V353.972H363.022V347.269Z" fill="#9E98FF"/>
<g opacity="0.5">
<path opacity="0.5" d="M134.488 419.885H133.367V426.215H134.488V419.885Z" fill="white"/>
<path opacity="0.5" d="M137.102 423.609V422.492H130.753V423.609H137.102Z" fill="white"/>
</g>
<g opacity="0.5">
<path opacity="0.5" d="M339.497 225.498H338.376V231.829H339.497V225.498Z" fill="white"/>
<path opacity="0.5" d="M342.111 229.222V228.105H335.762V229.222H342.111Z" fill="white"/>
</g>
<g opacity="0.5">
<path opacity="0.5" d="M363.396 381.901H362.275V388.232H363.396V381.901Z" fill="white"/>
<path opacity="0.5" d="M366.01 385.625V384.508H359.662V385.625H366.01Z" fill="white"/>
</g>
<g opacity="0.5">
<path opacity="0.5" d="M292.819 154H291.699V160.331H292.819V154Z" fill="white"/>
<path opacity="0.5" d="M295.433 157.724V156.607H289.085V157.724H295.433Z" fill="white"/>
</g>
<path opacity="0.5" d="M198.604 419.256C198.299 419.119 198.054 418.875 197.916 418.57C197.779 418.265 197.758 417.921 197.857 417.602C197.873 417.553 197.883 417.501 197.887 417.449C197.897 417.302 197.858 417.156 197.778 417.032C197.697 416.908 197.578 416.814 197.439 416.762C197.3 416.711 197.149 416.706 197.007 416.748C196.865 416.79 196.74 416.877 196.651 416.995C196.621 417.037 196.596 417.082 196.577 417.129C196.439 417.434 196.195 417.678 195.889 417.815C195.584 417.953 195.238 417.973 194.919 417.874C194.869 417.858 194.818 417.848 194.766 417.844C194.618 417.835 194.471 417.873 194.347 417.954C194.223 418.034 194.128 418.152 194.077 418.291C194.025 418.43 194.02 418.581 194.062 418.723C194.105 418.864 194.191 418.988 194.31 419.077C194.352 419.107 194.397 419.132 194.444 419.151C194.75 419.288 194.995 419.532 195.132 419.837C195.27 420.141 195.291 420.486 195.191 420.805C195.175 420.854 195.165 420.905 195.161 420.957C195.152 421.105 195.19 421.251 195.271 421.375C195.352 421.499 195.47 421.593 195.609 421.644C195.748 421.695 195.9 421.7 196.042 421.658C196.184 421.617 196.309 421.53 196.397 421.412C196.427 421.37 196.452 421.325 196.472 421.278C196.609 420.973 196.854 420.729 197.159 420.591C197.465 420.454 197.81 420.433 198.13 420.533C198.18 420.549 198.231 420.559 198.283 420.563C198.431 420.572 198.578 420.534 198.702 420.453C198.826 420.373 198.921 420.254 198.972 420.116C199.023 419.977 199.028 419.826 198.986 419.684C198.944 419.543 198.857 419.418 198.739 419.33C198.697 419.3 198.652 419.275 198.604 419.256Z" fill="#4D8AF0"/>
<path opacity="0.5" d="M123.621 301.078C123.315 300.941 123.071 300.698 122.933 300.393C122.795 300.088 122.775 299.744 122.874 299.425C122.89 299.375 122.9 299.324 122.904 299.272C122.914 299.125 122.875 298.978 122.794 298.855C122.714 298.731 122.595 298.636 122.456 298.585C122.317 298.534 122.165 298.529 122.023 298.571C121.881 298.613 121.757 298.7 121.668 298.818C121.638 298.86 121.613 298.905 121.593 298.952C121.456 299.257 121.212 299.501 120.906 299.638C120.601 299.775 120.255 299.796 119.935 299.697C119.886 299.681 119.834 299.671 119.782 299.667C119.635 299.657 119.488 299.696 119.364 299.776C119.239 299.857 119.145 299.975 119.093 300.114C119.042 300.252 119.037 300.404 119.079 300.545C119.121 300.687 119.208 300.811 119.327 300.9C119.369 300.929 119.414 300.954 119.461 300.974C119.767 301.111 120.012 301.355 120.149 301.659C120.287 301.964 120.308 302.308 120.208 302.627C120.192 302.677 120.182 302.728 120.178 302.78C120.163 302.93 120.197 303.081 120.276 303.21C120.355 303.338 120.475 303.437 120.616 303.491C120.757 303.545 120.913 303.551 121.058 303.508C121.202 303.465 121.329 303.375 121.418 303.253C121.448 303.211 121.473 303.166 121.493 303.119C121.63 302.814 121.874 302.57 122.18 302.433C122.485 302.296 122.831 302.275 123.151 302.374C123.2 302.39 123.252 302.4 123.304 302.404C123.451 302.413 123.598 302.375 123.723 302.295C123.847 302.214 123.941 302.096 123.993 301.957C124.044 301.819 124.049 301.667 124.007 301.526C123.965 301.384 123.878 301.26 123.759 301.171C123.717 301.135 123.671 301.103 123.621 301.078Z" fill="#4D8AF0"/>
<path opacity="0.5" d="M164.324 333.476C164.018 333.339 163.774 333.095 163.636 332.791C163.498 332.486 163.477 332.142 163.577 331.823C163.593 331.773 163.603 331.722 163.607 331.67C163.617 331.523 163.578 331.376 163.497 331.252C163.417 331.128 163.298 331.034 163.159 330.983C163.02 330.932 162.868 330.927 162.726 330.969C162.584 331.011 162.46 331.097 162.371 331.216C162.341 331.257 162.316 331.302 162.296 331.35C162.159 331.654 161.915 331.899 161.609 332.036C161.304 332.173 160.958 332.194 160.638 332.094C160.589 332.079 160.537 332.069 160.485 332.065C160.337 332.055 160.191 332.094 160.066 332.174C159.942 332.255 159.848 332.373 159.796 332.511C159.745 332.65 159.74 332.801 159.782 332.943C159.824 333.085 159.911 333.209 160.03 333.297C160.071 333.327 160.117 333.352 160.164 333.372C160.47 333.509 160.714 333.752 160.852 334.057C160.99 334.362 161.011 334.706 160.911 335.025C160.895 335.075 160.885 335.126 160.881 335.178C160.865 335.328 160.9 335.479 160.979 335.607C161.058 335.736 161.178 335.835 161.319 335.889C161.46 335.943 161.615 335.948 161.76 335.905C161.905 335.862 162.032 335.773 162.121 335.651C162.151 335.609 162.176 335.564 162.196 335.517C162.333 335.212 162.577 334.968 162.883 334.831C163.188 334.693 163.534 334.672 163.854 334.772C163.903 334.788 163.955 334.798 164.007 334.802C164.154 334.811 164.301 334.773 164.425 334.692C164.55 334.612 164.644 334.493 164.696 334.355C164.747 334.216 164.752 334.065 164.71 333.923C164.668 333.782 164.581 333.658 164.462 333.569C164.42 333.532 164.374 333.501 164.324 333.476Z" fill="#4D8AF0"/>
<path opacity="0.5" d="M396.593 421.36C396.287 421.223 396.043 420.979 395.905 420.674C395.767 420.369 395.747 420.025 395.846 419.706C395.862 419.657 395.872 419.605 395.876 419.553C395.886 419.406 395.847 419.26 395.766 419.136C395.686 419.012 395.567 418.917 395.428 418.866C395.289 418.815 395.137 418.81 394.995 418.852C394.853 418.894 394.729 418.981 394.64 419.099C394.61 419.141 394.585 419.186 394.565 419.233C394.428 419.538 394.184 419.782 393.878 419.919C393.573 420.057 393.227 420.077 392.907 419.978C392.858 419.962 392.806 419.952 392.754 419.948C392.606 419.939 392.46 419.977 392.335 420.058C392.211 420.138 392.117 420.256 392.065 420.395C392.014 420.534 392.009 420.685 392.051 420.826C392.093 420.968 392.18 421.092 392.299 421.181C392.34 421.211 392.386 421.236 392.433 421.255C392.739 421.392 392.984 421.636 393.121 421.941C393.259 422.245 393.28 422.59 393.18 422.909C393.164 422.958 393.154 423.009 393.15 423.061C393.134 423.211 393.169 423.362 393.248 423.491C393.327 423.619 393.447 423.718 393.588 423.772C393.729 423.826 393.884 423.832 394.029 423.789C394.174 423.746 394.301 423.656 394.39 423.534C394.42 423.493 394.445 423.448 394.465 423.4C394.602 423.095 394.846 422.851 395.152 422.714C395.457 422.577 395.803 422.556 396.123 422.655C396.172 422.671 396.224 422.681 396.276 422.685C396.423 422.695 396.57 422.656 396.695 422.576C396.819 422.495 396.913 422.377 396.965 422.238C397.016 422.1 397.021 421.948 396.979 421.807C396.937 421.665 396.85 421.541 396.731 421.453C396.689 421.416 396.643 421.385 396.593 421.36Z" fill="#4D8AF0"/>
<path opacity="0.5" d="M104.241 401.638C105.478 401.638 106.481 400.638 106.481 399.404C106.481 398.17 105.478 397.169 104.241 397.169C103.003 397.169 102 398.17 102 399.404C102 400.638 103.003 401.638 104.241 401.638Z" fill="#F55F44"/>
<path opacity="0.5" d="M357.048 180.067C358.285 180.067 359.288 179.067 359.288 177.833C359.288 176.599 358.285 175.598 357.048 175.598C355.81 175.598 354.807 176.599 354.807 177.833C354.807 179.067 355.81 180.067 357.048 180.067Z" fill="#4D8AF0"/>
<path opacity="0.5" d="M140.836 184.536C142.073 184.536 143.077 183.535 143.077 182.301C143.077 181.067 142.073 180.067 140.836 180.067C139.599 180.067 138.595 181.067 138.595 182.301C138.595 183.535 139.599 184.536 140.836 184.536Z" fill="white"/>
<path opacity="0.5" d="M359.288 285.08C360.526 285.08 361.529 284.08 361.529 282.846C361.529 281.612 360.526 280.612 359.288 280.612C358.051 280.612 357.048 281.612 357.048 282.846C357.048 284.08 358.051 285.08 359.288 285.08Z" fill="#F55F44"/>
</g>
<defs>
<linearGradient id="paint0_linear" x1="193.401" y1="416.638" x2="298.544" y2="165.971" gradientUnits="userSpaceOnUse">
<stop stop-color="#808080" stop-opacity="0.25"/>
<stop offset="0.54" stop-color="#808080" stop-opacity="0.12"/>
<stop offset="1" stop-color="#808080" stop-opacity="0.1"/>
</linearGradient>
<linearGradient id="paint1_linear" x1="39552.2" y1="51149.3" x2="39552.2" y2="36507" gradientUnits="userSpaceOnUse">
<stop stop-color="#808080" stop-opacity="0.25"/>
<stop offset="0.54" stop-color="#808080" stop-opacity="0.12"/>
<stop offset="1" stop-color="#808080" stop-opacity="0.1"/>
</linearGradient>
<linearGradient id="paint2_linear" x1="44338.6" y1="31809.1" x2="44338.6" y2="17160.9" gradientUnits="userSpaceOnUse">
<stop stop-color="#808080" stop-opacity="0.25"/>
<stop offset="0.54" stop-color="#808080" stop-opacity="0.12"/>
<stop offset="1" stop-color="#808080" stop-opacity="0.1"/>
</linearGradient>
<linearGradient id="paint3_linear" x1="46921.5" y1="29646.6" x2="46921.5" y2="16916.8" gradientUnits="userSpaceOnUse">
<stop stop-color="#808080" stop-opacity="0.25"/>
<stop offset="0.54" stop-color="#808080" stop-opacity="0.12"/>
<stop offset="1" stop-color="#808080" stop-opacity="0.1"/>
</linearGradient>
<linearGradient id="paint4_linear" x1="-410708" y1="48683" x2="-410708" y2="35953.2" gradientUnits="userSpaceOnUse">
<stop stop-color="#808080" stop-opacity="0.25"/>
<stop offset="0.54" stop-color="#808080" stop-opacity="0.12"/>
<stop offset="1" stop-color="#808080" stop-opacity="0.1"/>
</linearGradient>
<clipPath id="clip0">
<rect width="295" height="272.215" fill="white" transform="translate(102 154)"/>
</clipPath>
</defs>
</svg>
