<svg width="500" height="500" viewBox="0 0 500 500" fill="none" xmlns="http://www.w3.org/2000/svg">
<rect width="500" height="500" fill="#2B6CB0" fill-opacity="0.8"/>
<path d="M188.19 209L141.207 234.534C142.01 235.921 142.528 237.457 142.729 239.049C142.93 240.641 142.811 242.258 142.378 243.803C141.945 245.348 141.207 246.79 140.209 248.043C139.21 249.297 137.971 250.337 136.565 251.101C135.158 251.866 133.613 252.339 132.021 252.493C130.429 252.648 128.822 252.48 127.296 251.999C125.769 251.519 124.355 250.736 123.136 249.698C121.916 248.659 120.917 247.385 120.198 245.952L104.178 254.658L145.674 331.524L229.686 285.866L188.19 209Z" fill="#F2F2F2"/>
<path d="M130.158 250.288C135.514 250.288 139.857 245.931 139.857 240.556C139.857 235.181 135.514 230.824 130.158 230.824C124.801 230.824 120.458 235.181 120.458 240.556C120.458 245.931 124.801 250.288 130.158 250.288Z" fill="#6C63FF"/>
<path d="M306.166 414.777L356.964 398.152C356.423 396.641 356.189 395.038 356.277 393.435C356.365 391.833 356.773 390.264 357.476 388.823C358.179 387.381 359.164 386.096 360.371 385.043C361.578 383.991 362.984 383.192 364.505 382.694C366.025 382.196 367.63 382.01 369.224 382.146C370.818 382.282 372.368 382.738 373.783 383.486C375.198 384.234 376.449 385.26 377.462 386.502C378.475 387.744 379.229 389.178 379.679 390.717L397 385.049L369.981 301.94L279.147 331.668L306.166 414.777Z" fill="#F2F2F2"/>
<path d="M368.914 403.957C374.271 403.957 378.613 399.6 378.613 394.225C378.613 388.85 374.271 384.493 368.914 384.493C363.557 384.493 359.215 388.85 359.215 394.225C359.215 399.6 363.557 403.957 368.914 403.957Z" fill="#6C63FF"/>
<path d="M370.915 254.595H136.377V361.505H370.915V254.595Z" fill="#3F3D56"/>
<path d="M367.046 258.477H140.246V355.532H367.046V258.477Z" fill="white"/>
<path d="M343.979 350.903H321.954V358.369H343.979V350.903Z" fill="#3F3D56"/>
<path d="M320.763 356.577H304.691V358.668H320.763V356.577Z" fill="#6C63FF"/>
<path d="M158.7 295.209H245.312L258.74 301.772L280.136 312.231L294.125 285.951H333.71" stroke="#3F3D56" stroke-width="2" stroke-miterlimit="10"/>
<path d="M192.757 295.209L199.178 310.439H214.953" stroke="#3F3D56" stroke-width="2" stroke-miterlimit="10"/>
<path d="M216.83 295.209L238.764 283.263H254.241" stroke="#3F3D56" stroke-width="2" stroke-miterlimit="10"/>
<path d="M192.631 297.896C194.11 297.896 195.309 296.693 195.309 295.209C195.309 293.724 194.11 292.521 192.631 292.521C191.151 292.521 189.952 293.724 189.952 295.209C189.952 296.693 191.151 297.896 192.631 297.896Z" fill="#6C63FF"/>
<path d="M217.632 297.896C219.112 297.896 220.311 296.693 220.311 295.209C220.311 293.724 219.112 292.521 217.632 292.521C216.153 292.521 214.953 293.724 214.953 295.209C214.953 296.693 216.153 297.896 217.632 297.896Z" fill="#6C63FF"/>
<path d="M258.706 301.779L260.492 328.357H275.969" stroke="#3F3D56" stroke-width="2" stroke-miterlimit="10"/>
<path d="M288.514 296.491L271.504 283.263H287.577" stroke="#3F3D56" stroke-width="2" stroke-miterlimit="10"/>
<path d="M316.612 285.951L333.115 299.091H348.592" stroke="#3F3D56" stroke-width="2" stroke-miterlimit="10"/>
<path d="M258.706 304.466C260.185 304.466 261.385 303.263 261.385 301.778C261.385 300.294 260.185 299.091 258.706 299.091C257.226 299.091 256.027 300.294 256.027 301.778C256.027 303.263 257.226 304.466 258.706 304.466Z" fill="#6C63FF"/>
<path d="M316.448 288.639C317.927 288.639 319.126 287.435 319.126 285.951C319.126 284.467 317.927 283.263 316.448 283.263C314.968 283.263 313.769 284.467 313.769 285.951C313.769 287.435 314.968 288.639 316.448 288.639Z" fill="#6C63FF"/>
<path d="M288.47 299.091C289.949 299.091 291.148 297.887 291.148 296.403C291.148 294.919 289.949 293.715 288.47 293.715C286.99 293.715 285.791 294.919 285.791 296.403C285.791 297.887 286.99 299.091 288.47 299.091Z" fill="#6C63FF"/>
<path d="M199.476 312.828H214.953" stroke="#3F3D56" stroke-width="2" stroke-miterlimit="10"/>
<path d="M342.95 235.962C345.375 235.962 347.341 233.989 347.341 231.556C347.341 229.122 345.375 227.149 342.95 227.149C340.524 227.149 338.558 229.122 338.558 231.556C338.558 233.989 340.524 235.962 342.95 235.962Z" stroke="#3F3D56" stroke-width="2" stroke-miterlimit="10"/>
<path d="M147.241 439C172.227 439 192.482 435.256 192.482 430.638C192.482 426.02 172.227 422.277 147.241 422.277C122.255 422.277 102 426.02 102 430.638C102 435.256 122.255 439 147.241 439Z" fill="#F2F2F2"/>
<path d="M178.311 356.422L170.24 360.508L170.762 361.552L178.833 357.466L178.311 356.422Z" fill="#6C63FF"/>
<path d="M176.999 348.823L176.636 351.006C176.636 351.006 177.18 366.104 173.191 361.374C169.203 356.645 171.922 350.278 171.922 350.278L173.01 348.459L176.999 348.823Z" fill="#FBBEBE"/>
<path d="M153.793 278.973C153.793 278.973 153.068 286.613 152.705 286.976C152.342 287.34 158.144 294.252 158.144 294.252L163.22 289.523C163.22 289.523 162.858 282.611 163.945 281.155C165.033 279.7 153.793 278.973 153.793 278.973Z" fill="#FBBEBE"/>
<path opacity="0.1" d="M153.793 278.973C153.793 278.973 153.068 286.613 152.705 286.976C152.342 287.34 158.144 294.252 158.144 294.252L163.22 289.523C163.22 289.523 162.858 282.611 163.945 281.155C165.033 279.7 153.793 278.973 153.793 278.973Z" fill="black"/>
<path d="M140.377 418.31V424.858L137.839 425.222L134.213 424.131L135.301 417.218L140.377 418.31Z" fill="#3F3D56"/>
<path d="M137.114 421.584C137.114 421.584 136.026 418.673 134.213 419.037C132.4 419.401 132.037 421.584 132.037 421.584C132.037 421.584 130.587 427.041 128.411 428.86C126.236 430.679 124.06 435.408 128.411 436.136C132.763 436.864 136.388 435.045 136.388 434.681C136.388 434.317 137.476 432.134 139.289 431.77C141.102 431.407 142.552 431.043 142.552 429.588C142.552 428.132 141.465 426.677 141.465 426.677C141.465 426.677 141.102 419.776 140.377 420.68C139.875 421.394 139.507 422.193 139.289 423.039L137.114 421.584Z" fill="#2F2E41"/>
<path d="M155.968 415.035L154.518 420.492L158.144 421.22L159.957 419.401L160.319 414.672L155.968 415.035Z" fill="#3F3D56"/>
<path d="M155.606 419.765C155.606 419.765 157.056 418.673 157.781 418.673H158.869C158.869 418.673 158.869 416.127 160.682 416.127C162.495 416.127 162.132 417.946 162.132 417.946C162.132 417.946 166.121 424.131 167.209 425.222C168.296 426.313 174.098 429.588 169.384 431.043C164.671 432.498 161.407 432.498 159.232 429.951C159.232 429.951 157.056 428.86 155.606 428.86C154.155 428.86 152.342 428.132 152.342 427.041C152.342 425.95 153.43 423.767 153.43 423.767C153.43 423.767 154.155 417.218 154.518 417.946C154.881 418.673 155.606 419.765 155.606 419.765Z" fill="#2F2E41"/>
<path d="M140.014 331.36V343.366C140.014 343.366 136.026 366.649 136.026 374.289C136.026 381.929 129.862 418.31 132.762 419.037C135.663 419.765 142.552 420.856 142.915 419.765C143.278 418.673 145.816 384.112 146.178 383.748C146.541 383.384 154.155 354.644 154.155 354.644L155.606 355.008L156.331 387.75C156.331 387.75 152.705 417.218 154.518 417.218C156.331 417.218 163.945 416.854 163.945 414.672C163.945 412.489 167.934 372.107 167.934 372.107C167.934 372.107 172.648 340.092 170.835 336.818C169.022 333.543 169.022 331.724 169.022 331.724L140.014 331.36Z" fill="#2F2E41"/>
<path d="M159.776 284.612C163.781 284.612 167.027 281.354 167.027 277.336C167.027 273.317 163.781 270.059 159.776 270.059C155.77 270.059 152.524 273.317 152.524 277.336C152.524 281.354 155.77 284.612 159.776 284.612Z" fill="#FBBEBE"/>
<path d="M158.144 289.887C158.144 289.887 153.612 286.067 153.249 284.612C153.249 284.612 150.892 286.976 150.892 287.34C150.892 287.704 140.74 288.795 138.201 291.706C135.663 294.616 133.488 300.801 133.488 300.801L139.652 312.443C139.652 312.443 140.014 318.991 140.014 319.719C140.014 320.446 138.201 332.088 138.927 332.452C139.652 332.816 146.904 336.454 153.068 335.726C159.232 334.999 165.396 333.907 167.209 333.907C169.022 333.907 170.472 334.635 170.472 333.907C170.472 333.179 169.384 331.724 169.384 330.997C169.384 330.269 169.022 328.45 169.022 327.359C169.022 326.267 168.296 324.448 168.296 322.993C168.296 321.538 176.273 301.892 176.273 301.892C176.273 301.892 175.911 295.708 170.109 292.797C164.308 289.887 163.583 288.795 163.583 288.795C163.583 288.795 163.47 286.613 163.164 286.613C162.858 286.613 161.77 289.887 158.869 290.251L158.144 289.887Z" fill="#D0CDE1"/>
<path d="M138.564 338.273L141.102 342.275L147.629 340.819L142.915 335.362L138.564 338.273Z" fill="#FBBEBE"/>
<path d="M174.098 298.982L176.273 301.892C176.273 301.892 180.625 322.993 179.899 330.633C179.174 338.273 178.449 344.094 178.449 344.094C178.449 344.094 179.899 349.551 178.812 349.551C177.724 349.551 171.197 349.914 171.197 348.823C171.197 347.732 171.922 340.819 171.922 340.819L170.109 324.812L166.121 319.355L174.098 298.982Z" fill="#D0CDE1"/>
<path d="M154.85 273.803C155.295 273.614 155.808 273.767 156.285 273.687C156.844 273.592 157.344 273.177 157.908 273.229C158.176 273.279 158.436 273.363 158.681 273.481C158.805 273.539 158.938 273.571 159.074 273.576C159.211 273.581 159.346 273.558 159.473 273.509C159.534 273.481 159.587 273.44 159.63 273.388C159.673 273.337 159.703 273.276 159.72 273.211C159.736 273.146 159.738 273.078 159.725 273.013C159.713 272.947 159.685 272.885 159.646 272.831C160.123 272.789 160.575 272.594 160.933 272.275C161.005 272.2 161.088 272.138 161.179 272.09C161.286 272.062 161.397 272.056 161.505 272.073C161.614 272.09 161.718 272.129 161.811 272.188L162.641 272.572C162.828 272.638 162.992 272.756 163.115 272.913C163.214 273.067 163.233 273.275 163.373 273.393C163.551 273.544 163.818 273.47 164.05 273.485C164.262 273.505 164.458 273.603 164.602 273.759C164.747 273.916 164.829 274.12 164.833 274.333C164.83 274.577 164.741 274.877 164.934 275.026C165.046 275.113 165.204 275.099 165.335 275.152C165.674 275.29 165.675 275.764 165.625 276.128C165.575 276.492 165.6 276.972 165.949 277.084C166.194 277.162 166.445 276.994 166.7 276.957C167.085 276.9 167.441 277.142 167.783 277.326C168.125 277.511 168.58 277.636 168.877 277.384C169.153 277.149 169.136 276.72 169.06 276.365C168.951 275.857 168.772 275.365 168.528 274.906C168.438 274.771 168.384 274.614 168.374 274.452C168.394 274.338 168.439 274.229 168.504 274.133C168.57 274.038 168.655 273.957 168.754 273.896C169.174 273.564 169.656 273.228 169.792 272.709C169.892 272.328 169.78 271.927 169.788 271.533C169.799 271.054 169.989 270.577 169.9 270.106C169.738 269.252 168.791 268.841 168.18 268.226C167.34 267.38 167.068 266.028 166.077 265.367C165.284 264.839 164.247 264.902 163.344 264.6C162.352 264.267 161.554 263.504 160.575 263.134C160.041 262.937 159.47 262.86 158.903 262.91C158.336 262.96 157.787 263.135 157.296 263.423C157.004 263.64 156.678 263.807 156.331 263.917C156.04 263.951 155.745 263.948 155.454 263.907C154.876 263.877 154.299 263.996 153.78 264.253C153.581 264.333 153.416 264.479 153.311 264.666C153.136 265.056 153.391 265.667 153.007 265.853C152.828 265.94 152.616 265.857 152.417 265.861C152.031 265.87 151.733 266.207 151.549 266.549C151.406 266.91 151.2 267.242 150.941 267.531C150.468 267.947 149.609 268.015 149.486 268.634C149.483 268.895 149.498 269.157 149.53 269.417C149.494 269.964 148.91 270.381 148.94 270.929C148.976 271.561 149.776 271.87 149.99 272.466C150.153 272.92 149.939 273.41 149.791 273.869C149.644 274.328 149.599 274.916 149.98 275.21C150.13 275.325 150.322 275.372 150.474 275.483C150.868 275.771 150.863 276.352 150.82 276.839C150.794 276.94 150.794 277.046 150.819 277.147C150.844 277.249 150.894 277.342 150.963 277.42C151.028 277.459 151.101 277.484 151.176 277.493C151.252 277.503 151.329 277.495 151.401 277.472C151.638 277.415 151.861 277.309 152.055 277.162C152.25 277.015 152.413 276.83 152.533 276.618C152.66 276.407 152.686 276.221 152.917 276.11C153.073 276.034 153.263 276.101 153.423 276.003C154.181 275.535 153.92 274.199 154.85 273.803Z" fill="#2F2E41"/>
<path d="M134.575 299.709L133.488 300.801C133.488 300.801 126.961 320.446 129.136 324.812C131.312 329.178 135.663 340.092 137.114 339.728C138.564 339.364 143.64 336.09 143.64 335.726C143.64 335.362 137.476 325.176 137.476 325.176C137.476 325.176 136.751 322.993 137.114 322.629C137.476 322.265 137.476 322.629 137.114 321.902C136.751 321.174 136.751 321.902 137.476 321.174C138.201 320.446 138.201 320.446 138.201 320.083C138.201 319.719 140.377 310.624 140.377 310.624L134.575 299.709Z" fill="#D0CDE1"/>
<path d="M140.195 342.456L148.173 339.91L149.26 342.456L140.558 344.275L140.195 342.456Z" fill="#2F2E41"/>
<path opacity="0.1" d="M140.195 342.456L148.173 339.91L149.26 342.456L140.558 344.275L140.195 342.456Z" fill="black"/>
<path opacity="0.1" d="M151.073 287.522L157.237 292.615L157.963 291.524L151.073 287.522Z" fill="black"/>
<path opacity="0.1" d="M163.401 288.977L159.051 291.524L159.413 292.615L163.401 288.977Z" fill="black"/>
</svg>
